<?xml version="1.0" encoding="UTF-8" standalone="no"?><svg xmlns="http://www.w3.org/2000/svg" xmlns:xlink="http://www.w3.org/1999/xlink" contentStyleType="text/css" height="833px" preserveAspectRatio="none" style="width:744px;height:833px;background:#FFFFFF;" version="1.1" viewBox="0 0 744 833" width="744px" zoomAndPan="magnify"><defs/><g><g id="elem_Currency"><rect codeLine="6" fill="#FFFFFF" height="88.8594" id="Currency" rx="2.5" ry="2.5" style="stroke:#000000;stroke-width:1.0;" width="196" x="119.201" y="738"/><ellipse cx="168.451" cy="758.1328" fill="#FFFFFF" rx="9" ry="9" style="stroke:#000000;stroke-width:1.0;"/><path d="M172.5604,764.1328 L164.8417,764.1328 L164.8417,751.7422 L172.5604,751.7422 L172.5604,753.8984 L167.2948,753.8984 L167.2948,756.5703 L172.0604,756.5703 L172.0604,758.7266 L167.2948,758.7266 L167.2948,761.9766 L172.5604,761.9766 L172.5604,764.1328 Z " fill="#000000"/><text fill="#000000" font-family="Verdana" font-size="12" font-style="italic" lengthAdjust="spacing" textLength="94" x="183.951" y="754.1387">«enumeration»</text><text fill="#000000" font-family="Verdana" font-size="14" lengthAdjust="spacing" textLength="62" x="199.951" y="769.9639">Currency</text><line style="stroke:#000000;stroke-width:1.0;" x1="120.201" x2="314.201" y1="778.2656" y2="778.2656"/><line style="stroke:#000000;stroke-width:1.0;" x1="120.201" x2="314.201" y1="786.2656" y2="786.2656"/><ellipse cx="130.201" cy="799.9141" fill="#FFFFFF" rx="3" ry="3" style="stroke:#000000;stroke-width:1.0;"/><text fill="#000000" font-family="Verdana" font-size="14" lengthAdjust="spacing" textLength="135" x="137.201" y="803.2607">values(): Currency[]</text><ellipse cx="130.201" cy="816.2109" fill="#FFFFFF" rx="3" ry="3" style="stroke:#000000;stroke-width:1.0;"/><text fill="#000000" font-family="Verdana" font-size="14" lengthAdjust="spacing" textLength="172" x="137.201" y="819.5576">valueOf(String): Currency</text></g><g id="elem_Employee"><rect codeLine="10" fill="#FFFFFF" height="92.8906" id="Employee" rx="2.5" ry="2.5" style="stroke:#000000;stroke-width:1.0;" width="106" x="23.201" y="230"/><ellipse cx="40.701" cy="244" fill="#FFFFFF" rx="9" ry="9" style="stroke:#000000;stroke-width:1.0;"/><path d="M43.6698,249.6406 Q43.0917,249.9375 42.451,250.0781 Q41.8104,250.2344 41.1073,250.2344 Q38.6073,250.2344 37.2792,248.5938 Q35.9667,246.9375 35.9667,243.8125 Q35.9667,240.6875 37.2792,239.0313 Q38.6073,237.375 41.1073,237.375 Q41.8104,237.375 42.451,237.5313 Q43.1073,237.6875 43.6698,237.9844 L43.6698,240.7031 Q43.0448,240.125 42.451,239.8594 Q41.8573,239.5781 41.2323,239.5781 Q39.8885,239.5781 39.201,240.6563 Q38.5135,241.7188 38.5135,243.8125 Q38.5135,245.9063 39.201,246.9844 Q39.8885,248.0469 41.2323,248.0469 Q41.8573,248.0469 42.451,247.7813 Q43.0448,247.5 43.6698,246.9219 L43.6698,249.6406 Z " fill="#000000"/><text fill="#000000" font-family="Verdana" font-size="14" lengthAdjust="spacing" textLength="68" x="53.701" y="248.8467">Employee</text><line style="stroke:#000000;stroke-width:1.0;" x1="24.201" x2="128.201" y1="258" y2="258"/><text fill="#000000" font-family="Verdana" font-size="14" lengthAdjust="spacing" textLength="88" x="29.201" y="274.9951">name: String</text><text fill="#000000" font-family="Verdana" font-size="14" lengthAdjust="spacing" textLength="38" x="29.201" y="291.292">id: int</text><text fill="#000000" font-family="Verdana" font-size="14" lengthAdjust="spacing" textLength="94" x="29.201" y="307.5889">salary: Money</text><line style="stroke:#000000;stroke-width:1.0;" x1="24.201" x2="128.201" y1="314.8906" y2="314.8906"/></g><g id="elem_Money"><rect codeLine="15" fill="#FFFFFF" height="76.5938" id="Money" rx="2.5" ry="2.5" style="stroke:#000000;stroke-width:1.0;" width="143" x="57.701" y="432"/><ellipse cx="102.451" cy="446" fill="#FFFFFF" rx="9" ry="9" style="stroke:#000000;stroke-width:1.0;"/><path d="M105.4198,451.6406 Q104.8417,451.9375 104.201,452.0781 Q103.5604,452.2344 102.8573,452.2344 Q100.3573,452.2344 99.0292,450.5938 Q97.7167,448.9375 97.7167,445.8125 Q97.7167,442.6875 99.0292,441.0313 Q100.3573,439.375 102.8573,439.375 Q103.5604,439.375 104.201,439.5313 Q104.8573,439.6875 105.4198,439.9844 L105.4198,442.7031 Q104.7948,442.125 104.201,441.8594 Q103.6073,441.5781 102.9823,441.5781 Q101.6385,441.5781 100.951,442.6563 Q100.2635,443.7188 100.2635,445.8125 Q100.2635,447.9063 100.951,448.9844 Q101.6385,450.0469 102.9823,450.0469 Q103.6073,450.0469 104.201,449.7813 Q104.7948,449.5 105.4198,448.9219 L105.4198,451.6406 Z " fill="#000000"/><text fill="#000000" font-family="Verdana" font-size="14" lengthAdjust="spacing" textLength="46" x="119.951" y="450.8467">Money</text><line style="stroke:#000000;stroke-width:1.0;" x1="58.701" x2="199.701" y1="460" y2="460"/><text fill="#000000" font-family="Verdana" font-size="14" lengthAdjust="spacing" textLength="131" x="63.701" y="476.9951">currency: Currency</text><text fill="#000000" font-family="Verdana" font-size="14" lengthAdjust="spacing" textLength="110" x="63.701" y="493.292">amount: double</text><line style="stroke:#000000;stroke-width:1.0;" x1="58.701" x2="199.701" y1="500.5938" y2="500.5938"/></g><g id="elem_PaySlip"><rect codeLine="19" fill="#FFFFFF" height="190.6719" id="PaySlip" rx="2.5" ry="2.5" style="stroke:#000000;stroke-width:1.0;" width="270" x="235.201" y="181"/><ellipse cx="342.451" cy="195" fill="#FFFFFF" rx="9" ry="9" style="stroke:#000000;stroke-width:1.0;"/><path d="M345.4198,200.6406 Q344.8417,200.9375 344.201,201.0781 Q343.5604,201.2344 342.8573,201.2344 Q340.3573,201.2344 339.0292,199.5938 Q337.7167,197.9375 337.7167,194.8125 Q337.7167,191.6875 339.0292,190.0313 Q340.3573,188.375 342.8573,188.375 Q343.5604,188.375 344.201,188.5313 Q344.8573,188.6875 345.4198,188.9844 L345.4198,191.7031 Q344.7948,191.125 344.201,190.8594 Q343.6073,190.5781 342.9823,190.5781 Q341.6385,190.5781 340.951,191.6563 Q340.2635,192.7188 340.2635,194.8125 Q340.2635,196.9063 340.951,197.9844 Q341.6385,199.0469 342.9823,199.0469 Q343.6073,199.0469 344.201,198.7813 Q344.7948,198.5 345.4198,197.9219 L345.4198,200.6406 Z " fill="#000000"/><text fill="#000000" font-family="Verdana" font-size="14" lengthAdjust="spacing" textLength="48" x="359.951" y="199.8467">PaySlip</text><line style="stroke:#000000;stroke-width:1.0;" x1="236.201" x2="504.201" y1="209" y2="209"/><text fill="#000000" font-family="Verdana" font-size="14" lengthAdjust="spacing" textLength="125" x="241.201" y="225.9951">insurance: double</text><text fill="#000000" font-family="Verdana" font-size="14" lengthAdjust="spacing" textLength="122" x="241.201" y="242.292">actualPay: double</text><text fill="#000000" font-family="Verdana" font-size="14" lengthAdjust="spacing" textLength="106" x="241.201" y="258.5889">employeeId: int</text><text fill="#000000" font-family="Verdana" font-size="14" lengthAdjust="spacing" textLength="77" x="241.201" y="274.8857">tax: double</text><text fill="#000000" font-family="Verdana" font-size="14" lengthAdjust="spacing" textLength="115" x="241.201" y="291.1826">basePay: double</text><line style="stroke:#000000;stroke-width:1.0;" x1="236.201" x2="504.201" y1="298.4844" y2="298.4844"/><ellipse cx="246.201" cy="312.1328" fill="#FFFFFF" rx="3" ry="3" style="stroke:#000000;stroke-width:1.0;"/><text fill="#000000" font-family="Verdana" font-size="14" lengthAdjust="spacing" textLength="105" x="253.201" y="315.4795">clone(): PaySlip</text><ellipse cx="246.201" cy="328.4297" fill="#FFFFFF" rx="3" ry="3" style="stroke:#000000;stroke-width:1.0;"/><text fill="#000000" font-family="Verdana" font-size="14" lengthAdjust="spacing" textLength="202" x="253.201" y="331.7764">calculateTaxForPaySlip(): void</text><ellipse cx="246.201" cy="344.7266" fill="#FFFFFF" rx="3" ry="3" style="stroke:#000000;stroke-width:1.0;"/><text fill="#000000" font-family="Verdana" font-size="14" lengthAdjust="spacing" textLength="246" x="253.201" y="348.0732">calculateInsuranceForPaySlip(): void</text><ellipse cx="246.201" cy="361.0234" fill="#FFFFFF" rx="3" ry="3" style="stroke:#000000;stroke-width:1.0;"/><text fill="#000000" font-family="Verdana" font-size="14" lengthAdjust="spacing" textLength="244" x="253.201" y="364.3701">calculateActualPayForPaySlip(): void</text></g><g id="elem_RateService"><rect codeLine="30" fill="#FFFFFF" height="109.1875" id="RateService" rx="2.5" ry="2.5" style="stroke:#000000;stroke-width:1.0;" width="362" x="375.201" y="569"/><ellipse cx="511.451" cy="583" fill="#FFFFFF" rx="9" ry="9" style="stroke:#000000;stroke-width:1.0;"/><path d="M514.4198,588.6406 Q513.8417,588.9375 513.201,589.0781 Q512.5604,589.2344 511.8573,589.2344 Q509.3573,589.2344 508.0292,587.5938 Q506.7167,585.9375 506.7167,582.8125 Q506.7167,579.6875 508.0292,578.0313 Q509.3573,576.375 511.8573,576.375 Q512.5604,576.375 513.201,576.5313 Q513.8573,576.6875 514.4198,576.9844 L514.4198,579.7031 Q513.7948,579.125 513.201,578.8594 Q512.6073,578.5781 511.9823,578.5781 Q510.6385,578.5781 509.951,579.6563 Q509.2635,580.7188 509.2635,582.8125 Q509.2635,584.9063 509.951,585.9844 Q510.6385,587.0469 511.9823,587.0469 Q512.6073,587.0469 513.201,586.7813 Q513.7948,586.5 514.4198,585.9219 L514.4198,588.6406 Z " fill="#000000"/><text fill="#000000" font-family="Verdana" font-size="14" lengthAdjust="spacing" textLength="82" x="528.951" y="587.8467">RateService</text><line style="stroke:#000000;stroke-width:1.0;" x1="376.201" x2="736.201" y1="597" y2="597"/><line style="stroke:#000000;stroke-width:1.0;" x1="376.201" x2="736.201" y1="605" y2="605"/><ellipse cx="386.201" cy="618.6484" fill="#FFFFFF" rx="3" ry="3" style="stroke:#000000;stroke-width:1.0;"/><text fill="#000000" font-family="Verdana" font-size="14" lengthAdjust="spacing" textLength="338" x="393.201" y="621.9951">queryExchangeRate(Currency, Currency): double</text><rect fill="#FFFFFF" height="6" style="stroke:#000000;stroke-width:1.0;" width="6" x="383.201" y="631.9453"/><text fill="#000000" font-family="Verdana" font-size="14" lengthAdjust="spacing" textLength="301" x="393.201" y="638.292">doSomeBusiness(Currency, Currency): void</text><ellipse cx="386.201" cy="651.2422" fill="#FFFFFF" rx="3" ry="3" style="stroke:#000000;stroke-width:1.0;"/><text fill="#000000" font-family="Verdana" font-size="14" lengthAdjust="spacing" textLength="330" x="393.201" y="654.5889">queryAllRatesToCny(): Map&lt;Currency, Double&gt;</text><rect fill="#FFFFFF" height="6" style="stroke:#000000;stroke-width:1.0;" width="6" x="383.201" y="664.5391"/><text fill="#000000" font-family="Verdana" font-size="14" lengthAdjust="spacing" textLength="273" x="393.201" y="670.8857">exchangeRateToCny(Currency): double</text></g><g id="elem_SalaryService"><rect codeLine="36" fill="#FFFFFF" height="109.1875" id="SalaryService" rx="2.5" ry="2.5" style="stroke:#000000;stroke-width:1.0;" width="302" x="31.201" y="12"/><ellipse cx="133.451" cy="26" fill="#FFFFFF" rx="9" ry="9" style="stroke:#000000;stroke-width:1.0;"/><path d="M136.4198,31.6406 Q135.8417,31.9375 135.201,32.0781 Q134.5604,32.2344 133.8573,32.2344 Q131.3573,32.2344 130.0292,30.5938 Q128.7167,28.9375 128.7167,25.8125 Q128.7167,22.6875 130.0292,21.0313 Q131.3573,19.375 133.8573,19.375 Q134.5604,19.375 135.201,19.5313 Q135.8573,19.6875 136.4198,19.9844 L136.4198,22.7031 Q135.7948,22.125 135.201,21.8594 Q134.6073,21.5781 133.9823,21.5781 Q132.6385,21.5781 131.951,22.6563 Q131.2635,23.7188 131.2635,25.8125 Q131.2635,27.9063 131.951,28.9844 Q132.6385,30.0469 133.9823,30.0469 Q134.6073,30.0469 135.201,29.7813 Q135.7948,29.5 136.4198,28.9219 L136.4198,31.6406 Z " fill="#000000"/><text fill="#000000" font-family="Verdana" font-size="14" lengthAdjust="spacing" textLength="90" x="150.951" y="30.8467">SalaryService</text><line style="stroke:#000000;stroke-width:1.0;" x1="32.201" x2="332.201" y1="40" y2="40"/><line style="stroke:#000000;stroke-width:1.0;" x1="32.201" x2="332.201" y1="48" y2="48"/><ellipse cx="42.201" cy="61.6484" fill="#FFFFFF" rx="3" ry="3" style="stroke:#000000;stroke-width:1.0;"/><text fill="#000000" font-family="Verdana" font-size="14" lengthAdjust="spacing" textLength="226" x="49.201" y="64.9951">raisePay(Employee, Money): void</text><rect fill="#FFFFFF" height="6" style="stroke:#000000;stroke-width:1.0;" width="6" x="39.201" y="74.9453"/><text fill="#000000" font-family="Verdana" font-size="14" lengthAdjust="spacing" textLength="273" x="49.201" y="81.292">exchangeRateToCny(Currency): double</text><rect fill="#FFFFFF" height="6" style="stroke:#000000;stroke-width:1.0;" width="6" x="39.201" y="91.2422"/><text fill="#000000" font-family="Verdana" font-size="14" lengthAdjust="spacing" textLength="223" x="49.201" y="97.5889">doSomeRecord(Employee): void</text><ellipse cx="42.201" cy="110.5391" fill="#FFFFFF" rx="3" ry="3" style="stroke:#000000;stroke-width:1.0;"/><text fill="#000000" font-family="Verdana" font-size="14" lengthAdjust="spacing" textLength="278" x="49.201" y="113.8857">calculateDetailOfPaySlip(PaySlip): PaySlip</text></g><g id="elem_SupportedCurrencyChecker"><rect codeLine="42" fill="#FFFFFF" height="60.2969" id="SupportedCurrencyChecker" rx="2.5" ry="2.5" style="stroke:#000000;stroke-width:1.0;" width="245" x="94.701" y="593.5"/><ellipse cx="118.501" cy="607.5" fill="#FFFFFF" rx="9" ry="9" style="stroke:#000000;stroke-width:1.0;"/><path d="M121.4698,613.1406 Q120.8917,613.4375 120.251,613.5781 Q119.6104,613.7344 118.9073,613.7344 Q116.4073,613.7344 115.0792,612.0938 Q113.7667,610.4375 113.7667,607.3125 Q113.7667,604.1875 115.0792,602.5313 Q116.4073,600.875 118.9073,600.875 Q119.6104,600.875 120.251,601.0313 Q120.9073,601.1875 121.4698,601.4844 L121.4698,604.2031 Q120.8448,603.625 120.251,603.3594 Q119.6573,603.0781 119.0323,603.0781 Q117.6885,603.0781 117.001,604.1563 Q116.3135,605.2188 116.3135,607.3125 Q116.3135,609.4063 117.001,610.4844 Q117.6885,611.5469 119.0323,611.5469 Q119.6573,611.5469 120.251,611.2813 Q120.8448,611 121.4698,610.4219 L121.4698,613.1406 Z " fill="#000000"/><text fill="#000000" font-family="Verdana" font-size="14" lengthAdjust="spacing" textLength="193" x="132.901" y="612.3467">SupportedCurrencyChecker</text><line style="stroke:#000000;stroke-width:1.0;" x1="95.701" x2="338.701" y1="621.5" y2="621.5"/><line style="stroke:#000000;stroke-width:1.0;" x1="95.701" x2="338.701" y1="629.5" y2="629.5"/><ellipse cx="105.701" cy="643.1484" fill="#FFFFFF" rx="3" ry="3" style="stroke:#000000;stroke-width:1.0;"/><text fill="#000000" font-family="Verdana" font-size="14" lengthAdjust="spacing" textLength="221" x="112.701" y="646.4951">isSupported(Currency): boolean</text></g><g id="link_Employee_Money"><path codeLine="46" d="M93.451,335.462 C93.451,335.462 93.451,418.795 93.451,418.795 " fill="none" id="Employee-Money" style="stroke:#595959;stroke-width:1.0;"/><polygon fill="#595959" points="93.451,431.795,97.451,422.795,93.451,426.795,89.451,422.795,93.451,431.795" style="stroke:#595959;stroke-width:1.0;"/><line style="stroke:#595959;stroke-width:1.0;" x1="93.451" x2="93.451" y1="426.795" y2="418.795"/><polygon fill="#595959" points="93.451,323.462,89.451,329.462,93.451,335.462,97.451,329.462,93.451,323.462" style="stroke:#595959;stroke-width:1.0;"/><text fill="#000000" font-family="Verdana" font-size="13" lengthAdjust="spacing" textLength="8" x="78.619" y="420.9667">1</text><text fill="#000000" font-family="Verdana" font-size="13" lengthAdjust="spacing" textLength="38" x="55.2378" y="343.1034">salary</text><text fill="#000000" font-family="Verdana" font-size="13" lengthAdjust="spacing" textLength="8" x="70.2378" y="358.2362">1</text></g><g id="link_Money_Currency"><path codeLine="47" d="M76.201,521.132 C76.201,521.132 76.201,783 76.201,783 C76.201,783 105.8883,783 105.8883,783 " fill="none" id="Money-Currency" style="stroke:#595959;stroke-width:1.0;"/><polygon fill="#595959" points="118.8883,783,109.8883,779,113.8883,783,109.8883,787,118.8883,783" style="stroke:#595959;stroke-width:1.0;"/><line style="stroke:#595959;stroke-width:1.0;" x1="113.8883" x2="105.8883" y1="783" y2="782.9999"/><polygon fill="#595959" points="76.201,509.132,72.201,515.132,76.201,521.132,80.201,515.132,76.201,509.132" style="stroke:#595959;stroke-width:1.0;"/><text fill="#000000" font-family="Verdana" font-size="13" lengthAdjust="spacing" textLength="8" x="59.1167" y="528.5941">1</text><text fill="#000000" font-family="Verdana" font-size="13" lengthAdjust="spacing" textLength="55" x="56.2216" y="764.1957">currency</text><text fill="#000000" font-family="Verdana" font-size="13" lengthAdjust="spacing" textLength="8" x="79.7216" y="779.3285">1</text></g><g id="link_Money_SupportedCurrencyChecker"><path codeLine="48" d="M147.701,509.108 C147.701,509.108 147.701,588.101 147.701,588.101 " fill="none" id="Money-to-SupportedCurrencyChecker" style="stroke:#595959;stroke-width:1.0;stroke-dasharray:7.0,7.0;"/><polygon fill="#595959" points="147.701,593.101,151.701,584.101,147.701,588.101,143.701,584.101,147.701,593.101" style="stroke:#595959;stroke-width:1.0;"/><text fill="#000000" font-family="Verdana" font-size="13" lengthAdjust="spacing" textLength="41" x="105.701" y="544.6709">create</text></g><g id="link_RateService_Currency"><path codeLine="49" d="M374.907,666 C308.764,666 249.868,666 249.868,666 C249.868,666 249.868,732.7912 249.868,732.7912 " fill="none" id="RateService-to-Currency" style="stroke:#595959;stroke-width:1.0;stroke-dasharray:7.0,7.0;"/><polygon fill="#595959" points="249.868,737.7912,253.868,728.7912,249.868,732.7912,245.868,728.7912,249.868,737.7912" style="stroke:#595959;stroke-width:1.0;"/></g><g id="link_SalaryService_Employee"><path codeLine="50" d="M80.201,121.127 C80.201,121.127 80.201,224.974 80.201,224.974 " fill="none" id="SalaryService-to-Employee" style="stroke:#595959;stroke-width:1.0;stroke-dasharray:7.0,7.0;"/><polygon fill="#595959" points="80.201,229.974,84.201,220.974,80.201,224.974,76.201,220.974,80.201,229.974" style="stroke:#595959;stroke-width:1.0;"/></g><g id="link_SalaryService_Money"><path codeLine="51" d="M164.951,121.406 C164.951,121.406 164.951,426.77 164.951,426.77 " fill="none" id="SalaryService-to-Money" style="stroke:#595959;stroke-width:1.0;stroke-dasharray:7.0,7.0;"/><polygon fill="#595959" points="164.951,431.77,168.951,422.77,164.951,426.77,160.951,422.77,164.951,431.77" style="stroke:#595959;stroke-width:1.0;"/></g><g id="link_SalaryService_PaySlip"><path codeLine="52" d="M284.201,121.127 C284.201,121.127 284.201,175.658 284.201,175.658 " fill="none" id="SalaryService-to-PaySlip" style="stroke:#595959;stroke-width:1.0;stroke-dasharray:7.0,7.0;"/><polygon fill="#595959" points="284.201,180.658,288.201,171.658,284.201,175.658,280.201,171.658,284.201,180.658" style="stroke:#595959;stroke-width:1.0;"/></g><g id="link_SupportedCurrencyChecker_Currency"><path codeLine="53" d="M184.534,665.781 C184.534,665.781 184.534,724.899 184.534,724.899 " fill="none" id="SupportedCurrencyChecker-Currency" style="stroke:#595959;stroke-width:1.0;"/><polygon fill="#595959" points="184.534,737.899,188.534,728.899,184.534,732.899,180.534,728.899,184.534,737.899" style="stroke:#595959;stroke-width:1.0;"/><line style="stroke:#595959;stroke-width:1.0;" x1="184.534" x2="184.534" y1="732.899" y2="724.899"/><polygon fill="#595959" points="184.534,653.781,180.534,659.781,184.534,665.781,188.534,659.781,184.534,653.781" style="stroke:#595959;stroke-width:1.0;"/><text fill="#000000" font-family="Verdana" font-size="13" lengthAdjust="spacing" textLength="8" x="170.9194" y="727.0089">1</text><text fill="#000000" font-family="Verdana" font-size="13" lengthAdjust="spacing" textLength="154" x="11" y="673.9108">SUPPORTED_CURRENCY</text><text fill="#000000" font-family="Verdana" font-size="13" lengthAdjust="spacing" textLength="7" x="84.5" y="689.0436">*</text></g></g></svg>