<?xml version="1.0" encoding="UTF-8" standalone="no"?><svg xmlns="http://www.w3.org/2000/svg" xmlns:xlink="http://www.w3.org/1999/xlink" contentStyleType="text/css" height="580px" preserveAspectRatio="none" style="width:579px;height:580px;background:#FFFFFF;" version="1.1" viewBox="0 0 579 580" width="579px" zoomAndPan="magnify"><defs/><g><g id="elem_BigHouse"><rect codeLine="6" fill="#FFFFFF" height="60.2969" id="BigHouse" rx="2.5" ry="2.5" style="stroke:#000000;stroke-width:1.0;" width="143" x="253.5" y="53"/><ellipse cx="288.1" cy="67" fill="#FFFFFF" rx="9" ry="9" style="stroke:#000000;stroke-width:1.0;"/><path d="M291.0688,72.6406 Q290.4906,72.9375 289.85,73.0781 Q289.2094,73.2344 288.5063,73.2344 Q286.0063,73.2344 284.6781,71.5938 Q283.3656,69.9375 283.3656,66.8125 Q283.3656,63.6875 284.6781,62.0313 Q286.0063,60.375 288.5063,60.375 Q289.2094,60.375 289.85,60.5313 Q290.5063,60.6875 291.0688,60.9844 L291.0688,63.7031 Q290.4438,63.125 289.85,62.8594 Q289.2563,62.5781 288.6313,62.5781 Q287.2875,62.5781 286.6,63.6563 Q285.9125,64.7188 285.9125,66.8125 Q285.9125,68.9063 286.6,69.9844 Q287.2875,71.0469 288.6313,71.0469 Q289.2563,71.0469 289.85,70.7813 Q290.4438,70.5 291.0688,69.9219 L291.0688,72.6406 Z " fill="#000000"/><text fill="#000000" font-family="Verdana" font-size="14" lengthAdjust="spacing" textLength="67" x="304.9" y="71.8467">BigHouse</text><line style="stroke:#000000;stroke-width:1.0;" x1="254.5" x2="395.5" y1="81" y2="81"/><text fill="#000000" font-family="Verdana" font-size="14" lengthAdjust="spacing" textLength="131" x="259.5" y="97.9951">bigHouse: boolean</text><line style="stroke:#000000;stroke-width:1.0;" x1="254.5" x2="395.5" y1="105.2969" y2="105.2969"/></g><g id="elem_House"><rect codeLine="9" fill="#FFFFFF" height="158.0781" id="House" rx="2.5" ry="2.5" style="stroke:#000000;stroke-width:1.0;" width="382" x="12" y="214"/><ellipse cx="176.75" cy="228" fill="#FFFFFF" rx="9" ry="9" style="stroke:#000000;stroke-width:1.0;"/><path d="M179.7188,233.6406 Q179.1406,233.9375 178.5,234.0781 Q177.8594,234.2344 177.1563,234.2344 Q174.6563,234.2344 173.3281,232.5938 Q172.0156,230.9375 172.0156,227.8125 Q172.0156,224.6875 173.3281,223.0313 Q174.6563,221.375 177.1563,221.375 Q177.8594,221.375 178.5,221.5313 Q179.1563,221.6875 179.7188,221.9844 L179.7188,224.7031 Q179.0938,224.125 178.5,223.8594 Q177.9063,223.5781 177.2813,223.5781 Q175.9375,223.5781 175.25,224.6563 Q174.5625,225.7188 174.5625,227.8125 Q174.5625,229.9063 175.25,230.9844 Q175.9375,232.0469 177.2813,232.0469 Q177.9063,232.0469 178.5,231.7813 Q179.0938,231.5 179.7188,230.9219 L179.7188,233.6406 Z " fill="#000000"/><text fill="#000000" font-family="Verdana" font-size="14" lengthAdjust="spacing" textLength="45" x="194.25" y="232.8467">House</text><line style="stroke:#000000;stroke-width:1.0;" x1="13" x2="393" y1="242" y2="242"/><text fill="#000000" font-family="Verdana" font-size="14" lengthAdjust="spacing" textLength="105" x="18" y="258.9951">square: double</text><text fill="#000000" font-family="Verdana" font-size="14" lengthAdjust="spacing" textLength="117" x="18" y="275.292">unitPrice: double</text><line style="stroke:#000000;stroke-width:1.0;" x1="13" x2="393" y1="282.5938" y2="282.5938"/><ellipse cx="23" cy="296.2422" fill="#FFFFFF" rx="3" ry="3" style="stroke:#000000;stroke-width:1.0;"/><text fill="#000000" font-family="Verdana" font-size="14" lengthAdjust="spacing" textLength="206" x="30" y="299.5889">getTotalPrice(double): double</text><ellipse cx="23" cy="312.5391" fill="#FFFFFF" rx="3" ry="3" style="stroke:#000000;stroke-width:1.0;"/><text fill="#000000" font-family="Verdana" font-size="14" lengthAdjust="spacing" textLength="358" x="30" y="315.8857">getDownPayment(boolean, double, double): double</text><ellipse cx="23" cy="328.8359" fill="#FFFFFF" rx="3" ry="3" style="stroke:#000000;stroke-width:1.0;"/><text fill="#000000" font-family="Verdana" font-size="14" lengthAdjust="spacing" textLength="169" x="30" y="332.1826">calculateHouseAge(): int</text><rect fill="#FFFFFF" height="6" style="stroke:#000000;stroke-width:1.0;" width="6" x="20" y="342.1328"/><text fill="#000000" font-family="Verdana" font-size="14" lengthAdjust="spacing" textLength="189" x="30" y="348.4795">doCalculateHouseAge(): int</text><rect fill="#FFFFFF" height="6" style="stroke:#000000;stroke-width:1.0;" width="6" x="20" y="358.4297"/><text fill="#000000" font-family="Verdana" font-size="14" lengthAdjust="spacing" textLength="212" x="30" y="364.7764">doCalculateHouseAgeOld(): int</text></g><g id="elem_HouseData"><rect codeLine="18" fill="#FFFFFF" height="141.7813" id="HouseData" rx="2.5" ry="2.5" style="stroke:#000000;stroke-width:1.0;" width="204" x="223" y="432"/><ellipse cx="282.75" cy="446" fill="#FFFFFF" rx="9" ry="9" style="stroke:#000000;stroke-width:1.0;"/><path d="M285.7188,451.6406 Q285.1406,451.9375 284.5,452.0781 Q283.8594,452.2344 283.1563,452.2344 Q280.6563,452.2344 279.3281,450.5938 Q278.0156,448.9375 278.0156,445.8125 Q278.0156,442.6875 279.3281,441.0313 Q280.6563,439.375 283.1563,439.375 Q283.8594,439.375 284.5,439.5313 Q285.1563,439.6875 285.7188,439.9844 L285.7188,442.7031 Q285.0938,442.125 284.5,441.8594 Q283.9063,441.5781 283.2813,441.5781 Q281.9375,441.5781 281.25,442.6563 Q280.5625,443.7188 280.5625,445.8125 Q280.5625,447.9063 281.25,448.9844 Q281.9375,450.0469 283.2813,450.0469 Q283.9063,450.0469 284.5,449.7813 Q285.0938,449.5 285.7188,448.9219 L285.7188,451.6406 Z " fill="#000000"/><text fill="#000000" font-family="Verdana" font-size="14" lengthAdjust="spacing" textLength="77" x="300.25" y="450.8467">HouseData</text><line style="stroke:#000000;stroke-width:1.0;" x1="224" x2="426" y1="460" y2="460"/><rect fill="none" height="6" style="stroke:#000000;stroke-width:1.0;" width="6" x="231" y="470.6484"/><text fill="#000000" font-family="Verdana" font-size="14" lengthAdjust="spacing" textLength="105" x="241" y="476.9951">square: double</text><rect fill="none" height="6" style="stroke:#000000;stroke-width:1.0;" width="6" x="231" y="486.9453"/><text fill="#000000" font-family="Verdana" font-size="14" lengthAdjust="spacing" textLength="117" x="241" y="493.292">unitPrice: double</text><rect fill="none" height="6" style="stroke:#000000;stroke-width:1.0;" width="6" x="231" y="503.2422"/><text fill="#000000" font-family="Verdana" font-size="14" lengthAdjust="spacing" textLength="180" x="241" y="509.5889">completionDate: Calendar</text><text fill="#000000" font-family="Verdana" font-size="14" lengthAdjust="spacing" textLength="105" x="241" y="525.8857">square: double</text><text fill="#000000" font-family="Verdana" font-size="14" lengthAdjust="spacing" textLength="117" x="241" y="542.1826">unitPrice: double</text><text fill="#000000" font-family="Verdana" font-size="14" lengthAdjust="spacing" textLength="180" x="241" y="558.4795">completionDate: Calendar</text><line style="stroke:#000000;stroke-width:1.0;" x1="224" x2="426" y1="565.7813" y2="565.7813"/></g><g id="elem_HouseDataOld"><rect codeLine="26" fill="#FFFFFF" height="141.7813" id="HouseDataOld" rx="2.5" ry="2.5" style="stroke:#000000;stroke-width:1.0;" width="141" x="431.5" y="12"/><ellipse cx="450.35" cy="26" fill="#FFFFFF" rx="9" ry="9" style="stroke:#000000;stroke-width:1.0;"/><path d="M453.3188,31.6406 Q452.7406,31.9375 452.1,32.0781 Q451.4594,32.2344 450.7563,32.2344 Q448.2563,32.2344 446.9281,30.5938 Q445.6156,28.9375 445.6156,25.8125 Q445.6156,22.6875 446.9281,21.0313 Q448.2563,19.375 450.7563,19.375 Q451.4594,19.375 452.1,19.5313 Q452.7563,19.6875 453.3188,19.9844 L453.3188,22.7031 Q452.6938,22.125 452.1,21.8594 Q451.5063,21.5781 450.8813,21.5781 Q449.5375,21.5781 448.85,22.6563 Q448.1625,23.7188 448.1625,25.8125 Q448.1625,27.9063 448.85,28.9844 Q449.5375,30.0469 450.8813,30.0469 Q451.5063,30.0469 452.1,29.7813 Q452.6938,29.5 453.3188,28.9219 L453.3188,31.6406 Z " fill="#000000"/><text fill="#000000" font-family="Verdana" font-size="14" lengthAdjust="spacing" textLength="100" x="463.65" y="30.8467">HouseDataOld</text><line style="stroke:#000000;stroke-width:1.0;" x1="432.5" x2="571.5" y1="40" y2="40"/><rect fill="none" height="6" style="stroke:#000000;stroke-width:1.0;" width="6" x="439.5" y="50.6484"/><text fill="#000000" font-family="Verdana" font-size="14" lengthAdjust="spacing" textLength="105" x="449.5" y="56.9951">square: double</text><rect fill="none" height="6" style="stroke:#000000;stroke-width:1.0;" width="6" x="439.5" y="66.9453"/><text fill="#000000" font-family="Verdana" font-size="14" lengthAdjust="spacing" textLength="117" x="449.5" y="73.292">unitPrice: double</text><rect fill="none" height="6" style="stroke:#000000;stroke-width:1.0;" width="6" x="439.5" y="83.2422"/><text fill="#000000" font-family="Verdana" font-size="14" lengthAdjust="spacing" textLength="90" x="449.5" y="89.5889">buildYear: int</text><text fill="#000000" font-family="Verdana" font-size="14" lengthAdjust="spacing" textLength="105" x="449.5" y="105.8857">square: double</text><text fill="#000000" font-family="Verdana" font-size="14" lengthAdjust="spacing" textLength="90" x="449.5" y="122.1826">buildYear: int</text><text fill="#000000" font-family="Verdana" font-size="14" lengthAdjust="spacing" textLength="117" x="449.5" y="138.4795">unitPrice: double</text><line style="stroke:#000000;stroke-width:1.0;" x1="432.5" x2="571.5" y1="145.7813" y2="145.7813"/></g><g id="link_BigHouse_House"><path codeLine="35" d="M323.75,113.088 C323.75,113.088 323.75,193.582 323.75,193.582 " fill="none" id="BigHouse-to-House" style="stroke:#000082;stroke-width:1.0;"/><polygon fill="none" points="330.75,193.582,323.75,213.582,316.75,193.582,330.75,193.582" style="stroke:#000082;stroke-width:1.0;"/></g><g id="link_BigHouse_HouseData"><path codeLine="36" d="M396.639,83 C405.629,83 411.75,83 411.75,83 C411.75,83 411.75,426.753 411.75,426.753 " fill="none" id="BigHouse-to-HouseData" style="stroke:#595959;stroke-width:1.0;stroke-dasharray:7.0,7.0;"/><polygon fill="#595959" points="411.75,431.753,415.75,422.753,411.75,426.753,407.75,422.753,411.75,431.753" style="stroke:#595959;stroke-width:1.0;"/></g><g id="link_House_HouseData"><path codeLine="37" d="M308.5,384.093 C308.5,384.093 308.5,418.92 308.5,418.92 " fill="none" id="House-HouseData" style="stroke:#595959;stroke-width:1.0;"/><polygon fill="#595959" points="308.5,431.92,312.5,422.92,308.5,426.92,304.5,422.92,308.5,431.92" style="stroke:#595959;stroke-width:1.0;"/><line style="stroke:#595959;stroke-width:1.0;" x1="308.5" x2="308.5" y1="426.92" y2="418.92"/><polygon fill="#595959" points="308.5,372.093,304.5,378.093,308.5,384.093,312.5,378.093,308.5,372.093" style="stroke:#595959;stroke-width:1.0;"/><text fill="#000000" font-family="Verdana" font-size="13" lengthAdjust="spacing" textLength="8" x="298.3859" y="420.9015">1</text><text fill="#000000" font-family="Verdana" font-size="13" lengthAdjust="spacing" textLength="70" x="244.5586" y="392.2541">houseData</text><text fill="#000000" font-family="Verdana" font-size="13" lengthAdjust="spacing" textLength="8" x="275.5586" y="407.3869">1</text></g></g></svg>