<?xml version="1.0" encoding="UTF-8" standalone="no"?><svg xmlns="http://www.w3.org/2000/svg" xmlns:xlink="http://www.w3.org/1999/xlink" contentStyleType="text/css" height="462px" preserveAspectRatio="none" style="width:1106px;height:462px;background:#FFFFFF;" version="1.1" viewBox="0 0 1106 462" width="1106px" zoomAndPan="magnify"><defs/><g><g id="elem_Animal"><rect codeLine="6" fill="#FFFFFF" height="56.2656" id="Animal" rx="2.5" ry="2.5" style="stroke:#000000;stroke-width:1.0;" width="94" x="736" y="399"/><ellipse cx="749" cy="419.1328" fill="#FFFFFF" rx="9" ry="9" style="stroke:#000000;stroke-width:1.0;"/><path d="M744.9219,414.8984 L744.9219,412.7422 L752.3125,412.7422 L752.3125,414.8984 L749.8438,414.8984 L749.8438,422.9766 L752.3125,422.9766 L752.3125,425.1328 L744.9219,425.1328 L744.9219,422.9766 L747.3906,422.9766 L747.3906,414.8984 L744.9219,414.8984 Z " fill="#000000"/><text fill="#000000" font-family="Verdana" font-size="12" font-style="italic" lengthAdjust="spacing" textLength="70" x="759" y="415.1387">«interface»</text><text fill="#000000" font-family="Verdana" font-size="14" font-style="italic" lengthAdjust="spacing" textLength="45" x="771.5" y="430.9639">Animal</text><line style="stroke:#000000;stroke-width:1.0;" x1="737" x2="829" y1="439.2656" y2="439.2656"/><line style="stroke:#000000;stroke-width:1.0;" x1="737" x2="829" y1="447.2656" y2="447.2656"/></g><g id="elem_BodyMassInfo"><rect codeLine="7" fill="#FFFFFF" height="125.4844" id="BodyMassInfo" rx="2.5" ry="2.5" style="stroke:#000000;stroke-width:1.0;" width="188" x="12" y="12"/><ellipse cx="54.25" cy="26" fill="#FFFFFF" rx="9" ry="9" style="stroke:#000000;stroke-width:1.0;"/><path d="M57.2188,31.6406 Q56.6406,31.9375 56,32.0781 Q55.3594,32.2344 54.6563,32.2344 Q52.1563,32.2344 50.8281,30.5938 Q49.5156,28.9375 49.5156,25.8125 Q49.5156,22.6875 50.8281,21.0313 Q52.1563,19.375 54.6563,19.375 Q55.3594,19.375 56,19.5313 Q56.6563,19.6875 57.2188,19.9844 L57.2188,22.7031 Q56.5938,22.125 56,21.8594 Q55.4063,21.5781 54.7813,21.5781 Q53.4375,21.5781 52.75,22.6563 Q52.0625,23.7188 52.0625,25.8125 Q52.0625,27.9063 52.75,28.9844 Q53.4375,30.0469 54.7813,30.0469 Q55.4063,30.0469 56,29.7813 Q56.5938,29.5 57.2188,28.9219 L57.2188,31.6406 Z " fill="#000000"/><text fill="#000000" font-family="Verdana" font-size="14" lengthAdjust="spacing" textLength="96" x="71.75" y="30.8467">BodyMassInfo</text><line style="stroke:#000000;stroke-width:1.0;" x1="13" x2="199" y1="40" y2="40"/><rect fill="none" height="6" style="stroke:#000000;stroke-width:1.0;" width="6" x="20" y="50.6484"/><text fill="#000000" font-family="Verdana" font-size="14" lengthAdjust="spacing" textLength="101" x="30" y="56.9951">height: double</text><rect fill="none" height="6" style="stroke:#000000;stroke-width:1.0;" width="6" x="20" y="66.9453"/><text fill="#000000" font-family="Verdana" font-size="14" lengthAdjust="spacing" textLength="103" x="30" y="73.292">weight: double</text><text fill="#000000" font-family="Verdana" font-size="14" lengthAdjust="spacing" textLength="103" x="30" y="89.5889">weight: double</text><text fill="#000000" font-family="Verdana" font-size="14" lengthAdjust="spacing" textLength="101" x="30" y="105.8857">height: double</text><text fill="#000000" font-family="Verdana" font-size="14" lengthAdjust="spacing" textLength="164" x="30" y="122.1826">bodyMassIndex: double</text><line style="stroke:#000000;stroke-width:1.0;" x1="13" x2="199" y1="129.4844" y2="129.4844"/></g><g id="elem_FutureMayUseInfo"><rect codeLine="14" fill="#FFFFFF" height="56.2656" id="FutureMayUseInfo" rx="2.5" ry="2.5" style="stroke:#000000;stroke-width:1.0;" width="152" x="235" y="46.5"/><ellipse cx="248" cy="66.6328" fill="#FFFFFF" rx="9" ry="9" style="stroke:#000000;stroke-width:1.0;"/><path d="M243.9219,62.3984 L243.9219,60.2422 L251.3125,60.2422 L251.3125,62.3984 L248.8438,62.3984 L248.8438,70.4766 L251.3125,70.4766 L251.3125,72.6328 L243.9219,72.6328 L243.9219,70.4766 L246.3906,70.4766 L246.3906,62.3984 L243.9219,62.3984 Z " fill="#000000"/><text fill="#000000" font-family="Verdana" font-size="12" font-style="italic" lengthAdjust="spacing" textLength="70" x="287" y="62.6387">«interface»</text><text fill="#000000" font-family="Verdana" font-size="14" font-style="italic" lengthAdjust="spacing" textLength="124" x="260" y="78.4639">FutureMayUseInfo</text><line style="stroke:#000000;stroke-width:1.0;" x1="236" x2="386" y1="86.7656" y2="86.7656"/><line style="stroke:#000000;stroke-width:1.0;" x1="236" x2="386" y1="94.7656" y2="94.7656"/></g><g id="elem_Gender"><rect codeLine="15" fill="#FFFFFF" height="121.4531" id="Gender" rx="2.5" ry="2.5" style="stroke:#000000;stroke-width:1.0;" width="186" x="13" y="207.5"/><ellipse cx="57.25" cy="227.6328" fill="#FFFFFF" rx="9" ry="9" style="stroke:#000000;stroke-width:1.0;"/><path d="M61.3594,233.6328 L53.6406,233.6328 L53.6406,221.2422 L61.3594,221.2422 L61.3594,223.3984 L56.0938,223.3984 L56.0938,226.0703 L60.8594,226.0703 L60.8594,228.2266 L56.0938,228.2266 L56.0938,231.4766 L61.3594,231.4766 L61.3594,233.6328 Z " fill="#000000"/><text fill="#000000" font-family="Verdana" font-size="12" font-style="italic" lengthAdjust="spacing" textLength="94" x="72.75" y="223.6387">«enumeration»</text><text fill="#000000" font-family="Verdana" font-size="14" lengthAdjust="spacing" textLength="52" x="93.75" y="239.4639">Gender</text><line style="stroke:#000000;stroke-width:1.0;" x1="14" x2="198" y1="247.7656" y2="247.7656"/><rect fill="none" height="6" style="stroke:#000000;stroke-width:1.0;" width="6" x="21" y="258.4141"/><text fill="#000000" font-family="Verdana" font-size="14" lengthAdjust="spacing" textLength="61" x="31" y="264.7607">code: int</text><text fill="#000000" font-family="Verdana" font-size="14" lengthAdjust="spacing" textLength="61" x="31" y="281.0576">code: int</text><line style="stroke:#000000;stroke-width:1.0;" x1="14" x2="198" y1="288.3594" y2="288.3594"/><ellipse cx="24" cy="302.0078" fill="#FFFFFF" rx="3" ry="3" style="stroke:#000000;stroke-width:1.0;"/><text fill="#000000" font-family="Verdana" font-size="14" lengthAdjust="spacing" textLength="162" x="31" y="305.3545">valueOf(String): Gender</text><ellipse cx="24" cy="318.3047" fill="#FFFFFF" rx="3" ry="3" style="stroke:#000000;stroke-width:1.0;"/><text fill="#000000" font-family="Verdana" font-size="14" lengthAdjust="spacing" textLength="125" x="31" y="321.6514">values(): Gender[]</text></g><g id="elem_HealthService"><rect codeLine="21" fill="#FFFFFF" height="105.1563" id="HealthService" rx="2.5" ry="2.5" style="stroke:#000000;stroke-width:1.0;" width="259" x="506.5" y="215.5"/><ellipse cx="579.75" cy="235.6328" fill="#FFFFFF" rx="9" ry="9" style="stroke:#000000;stroke-width:1.0;"/><path d="M575.6719,231.3984 L575.6719,229.2422 L583.0625,229.2422 L583.0625,231.3984 L580.5938,231.3984 L580.5938,239.4766 L583.0625,239.4766 L583.0625,241.6328 L575.6719,241.6328 L575.6719,239.4766 L578.1406,239.4766 L578.1406,231.3984 L575.6719,231.3984 Z " fill="#000000"/><text fill="#000000" font-family="Verdana" font-size="12" font-style="italic" lengthAdjust="spacing" textLength="70" x="609.25" y="231.6387">«interface»</text><text fill="#000000" font-family="Verdana" font-size="14" font-style="italic" lengthAdjust="spacing" textLength="94" x="597.25" y="247.4639">HealthService</text><rect fill="#FFFFFF" height="15.9688" style="stroke:#000000;stroke-width:1.0;stroke-dasharray:2.0,2.0;" width="9" x="759.5" y="212.5"/><text fill="#000000" font-family="Verdana" font-size="12" font-style="italic" lengthAdjust="spacing" textLength="7" x="760.5" y="224.6387">T</text><line style="stroke:#000000;stroke-width:1.0;" x1="507.5" x2="764.5" y1="255.7656" y2="255.7656"/><line style="stroke:#000000;stroke-width:1.0;" x1="507.5" x2="764.5" y1="263.7656" y2="263.7656"/><ellipse cx="517.5" cy="277.4141" fill="#FFFFFF" rx="3" ry="3" style="stroke:#000000;stroke-width:1.0;"/><text fill="#000000" font-family="Verdana" font-size="14" lengthAdjust="spacing" textLength="197" x="524.5" y="280.7607">isObese(T, double): boolean</text><ellipse cx="517.5" cy="293.7109" fill="#FFFFFF" rx="3" ry="3" style="stroke:#000000;stroke-width:1.0;"/><text fill="#000000" font-family="Verdana" font-size="14" lengthAdjust="spacing" textLength="215" x="524.5" y="297.0576">getBasalMetabolism(T): double</text><ellipse cx="517.5" cy="310.0078" fill="#FFFFFF" rx="3" ry="3" style="stroke:#000000;stroke-width:1.0;"/><text fill="#000000" font-family="Verdana" font-size="14" lengthAdjust="spacing" textLength="235" x="524.5" y="313.3545">getBodyFatPercentage(T): double</text></g><g id="elem_HealthServiceImp"><rect codeLine="26" fill="#FFFFFF" height="109.1875" id="HealthServiceImp" rx="2.5" ry="2.5" style="stroke:#000000;stroke-width:1.0;" width="365" x="422.5" y="20"/><ellipse cx="541.75" cy="34" fill="#FFFFFF" rx="9" ry="9" style="stroke:#000000;stroke-width:1.0;"/><path d="M544.7188,39.6406 Q544.1406,39.9375 543.5,40.0781 Q542.8594,40.2344 542.1563,40.2344 Q539.6563,40.2344 538.3281,38.5938 Q537.0156,36.9375 537.0156,33.8125 Q537.0156,30.6875 538.3281,29.0313 Q539.6563,27.375 542.1563,27.375 Q542.8594,27.375 543.5,27.5313 Q544.1563,27.6875 544.7188,27.9844 L544.7188,30.7031 Q544.0938,30.125 543.5,29.8594 Q542.9063,29.5781 542.2813,29.5781 Q540.9375,29.5781 540.25,30.6563 Q539.5625,31.7188 539.5625,33.8125 Q539.5625,35.9063 540.25,36.9844 Q540.9375,38.0469 542.2813,38.0469 Q542.9063,38.0469 543.5,37.7813 Q544.0938,37.5 544.7188,36.9219 L544.7188,39.6406 Z " fill="#000000"/><text fill="#000000" font-family="Verdana" font-size="14" lengthAdjust="spacing" textLength="119" x="559.25" y="38.8467">HealthServiceImp</text><line style="stroke:#000000;stroke-width:1.0;" x1="423.5" x2="786.5" y1="48" y2="48"/><line style="stroke:#000000;stroke-width:1.0;" x1="423.5" x2="786.5" y1="56" y2="56"/><ellipse cx="433.5" cy="69.6484" fill="#FFFFFF" rx="3" ry="3" style="stroke:#000000;stroke-width:1.0;"/><text fill="#000000" font-family="Verdana" font-size="14" lengthAdjust="spacing" textLength="303" x="440.5" y="72.9951">isObese(PersonForHealth, double): boolean</text><ellipse cx="433.5" cy="85.9453" fill="#FFFFFF" rx="3" ry="3" style="stroke:#000000;stroke-width:1.0;"/><text fill="#000000" font-family="Verdana" font-size="14" lengthAdjust="spacing" textLength="321" x="440.5" y="89.292">getBasalMetabolism(PersonForHealth): double</text><rect fill="#FFFFFF" height="6" style="stroke:#000000;stroke-width:1.0;" width="6" x="430.5" y="99.2422"/><text fill="#000000" font-family="Verdana" font-size="14" lengthAdjust="spacing" textLength="313" x="440.5" y="105.5889">getBodyMassIndex(PersonForHealth): double</text><ellipse cx="433.5" cy="118.5391" fill="#FFFFFF" rx="3" ry="3" style="stroke:#000000;stroke-width:1.0;"/><text fill="#000000" font-family="Verdana" font-size="14" lengthAdjust="spacing" textLength="341" x="440.5" y="121.8857">getBodyFatPercentage(PersonForHealth): double</text></g><g id="elem_Person"><rect codeLine="32" fill="#FFFFFF" height="141.7813" id="Person" rx="2.5" ry="2.5" style="stroke:#000000;stroke-width:1.0;" width="135" x="862.5" y="197"/><ellipse cx="901.75" cy="211" fill="#FFFFFF" rx="9" ry="9" style="stroke:#000000;stroke-width:1.0;"/><path d="M904.7188,216.6406 Q904.1406,216.9375 903.5,217.0781 Q902.8594,217.2344 902.1563,217.2344 Q899.6563,217.2344 898.3281,215.5938 Q897.0156,213.9375 897.0156,210.8125 Q897.0156,207.6875 898.3281,206.0313 Q899.6563,204.375 902.1563,204.375 Q902.8594,204.375 903.5,204.5313 Q904.1563,204.6875 904.7188,204.9844 L904.7188,207.7031 Q904.0938,207.125 903.5,206.8594 Q902.9063,206.5781 902.2813,206.5781 Q900.9375,206.5781 900.25,207.6563 Q899.5625,208.7188 899.5625,210.8125 Q899.5625,212.9063 900.25,213.9844 Q900.9375,215.0469 902.2813,215.0469 Q902.9063,215.0469 903.5,214.7813 Q904.0938,214.5 904.7188,213.9219 L904.7188,216.6406 Z " fill="#000000"/><text fill="#000000" font-family="Verdana" font-size="14" lengthAdjust="spacing" textLength="49" x="919.25" y="215.8467">Person</text><line style="stroke:#000000;stroke-width:1.0;" x1="863.5" x2="996.5" y1="225" y2="225"/><rect fill="none" height="6" style="stroke:#000000;stroke-width:1.0;" width="6" x="870.5" y="235.6484"/><text fill="#000000" font-family="Verdana" font-size="14" lengthAdjust="spacing" textLength="52" x="880.5" y="241.9951">age: int</text><rect fill="none" height="6" style="stroke:#000000;stroke-width:1.0;" width="6" x="870.5" y="251.9453"/><text fill="#000000" font-family="Verdana" font-size="14" lengthAdjust="spacing" textLength="88" x="880.5" y="258.292">name: String</text><rect fill="none" height="6" style="stroke:#000000;stroke-width:1.0;" width="6" x="870.5" y="268.2422"/><text fill="#000000" font-family="Verdana" font-size="14" lengthAdjust="spacing" textLength="111" x="880.5" y="274.5889">gender: Gender</text><text fill="#000000" font-family="Verdana" font-size="14" lengthAdjust="spacing" textLength="88" x="880.5" y="290.8857">name: String</text><text fill="#000000" font-family="Verdana" font-size="14" lengthAdjust="spacing" textLength="52" x="880.5" y="307.1826">age: int</text><text fill="#000000" font-family="Verdana" font-size="14" lengthAdjust="spacing" textLength="111" x="880.5" y="323.4795">gender: Gender</text><line style="stroke:#000000;stroke-width:1.0;" x1="863.5" x2="996.5" y1="330.7813" y2="330.7813"/></g><g id="elem_PersonForHealth"><rect codeLine="40" fill="#FFFFFF" height="92.8906" id="PersonForHealth" rx="2.5" ry="2.5" style="stroke:#000000;stroke-width:1.0;" width="277" x="822.5" y="28"/><ellipse cx="899.75" cy="42" fill="#FFFFFF" rx="9" ry="9" style="stroke:#000000;stroke-width:1.0;"/><path d="M902.7188,47.6406 Q902.1406,47.9375 901.5,48.0781 Q900.8594,48.2344 900.1563,48.2344 Q897.6563,48.2344 896.3281,46.5938 Q895.0156,44.9375 895.0156,41.8125 Q895.0156,38.6875 896.3281,37.0313 Q897.6563,35.375 900.1563,35.375 Q900.8594,35.375 901.5,35.5313 Q902.1563,35.6875 902.7188,35.9844 L902.7188,38.7031 Q902.0938,38.125 901.5,37.8594 Q900.9063,37.5781 900.2813,37.5781 Q898.9375,37.5781 898.25,38.6563 Q897.5625,39.7188 897.5625,41.8125 Q897.5625,43.9063 898.25,44.9844 Q898.9375,46.0469 900.2813,46.0469 Q900.9063,46.0469 901.5,45.7813 Q902.0938,45.5 902.7188,44.9219 L902.7188,47.6406 Z " fill="#000000"/><text fill="#000000" font-family="Verdana" font-size="14" lengthAdjust="spacing" textLength="115" x="917.25" y="46.8467">PersonForHealth</text><line style="stroke:#000000;stroke-width:1.0;" x1="823.5" x2="1098.5" y1="56" y2="56"/><rect fill="none" height="6" style="stroke:#000000;stroke-width:1.0;" width="6" x="830.5" y="66.6484"/><text fill="#000000" font-family="Verdana" font-size="14" lengthAdjust="spacing" textLength="253" x="840.5" y="72.9951">futureMayUseInfo: FutureMayUseInfo</text><text fill="#000000" font-family="Verdana" font-size="14" lengthAdjust="spacing" textLength="175" x="840.5" y="89.292">bodyMass: BodyMassInfo</text><text fill="#000000" font-family="Verdana" font-size="14" lengthAdjust="spacing" textLength="253" x="840.5" y="105.5889">futureMayUseInfo: FutureMayUseInfo</text><line style="stroke:#000000;stroke-width:1.0;" x1="823.5" x2="1098.5" y1="112.8906" y2="112.8906"/></g><g id="link_HealthService_Animal"><path codeLine="46" d="M750.75,320.503 C750.75,320.503 750.75,393.6427 750.75,393.6427 " fill="none" id="HealthService-to-Animal" style="stroke:#595959;stroke-width:1.0;stroke-dasharray:7.0,7.0;"/><polygon fill="#595959" points="750.75,398.6427,754.75,389.6427,750.75,393.6427,746.75,389.6427,750.75,398.6427" style="stroke:#595959;stroke-width:1.0;"/></g><g id="link_HealthServiceImp_HealthService"><path codeLine="47" d="M636,129.173 C636,129.173 636,195.462 636,195.462 " fill="none" id="HealthServiceImp-to-HealthService" style="stroke:#008200;stroke-width:1.0;stroke-dasharray:7.0,7.0;"/><polygon fill="none" points="643,195.462,636,215.462,629,195.462,643,195.462" style="stroke:#008200;stroke-width:1.0;"/></g><g id="link_Person_Animal"><path codeLine="48" d="M862.246,334 C842.559,334 826.25,334 826.25,334 C826.25,334 826.25,378.8446 826.25,378.8446 " fill="none" id="Person-to-Animal" style="stroke:#008200;stroke-width:1.0;stroke-dasharray:7.0,7.0;"/><polygon fill="none" points="833.25,378.8446,826.25,398.8446,819.25,378.8445,833.25,378.8446" style="stroke:#008200;stroke-width:1.0;"/></g><g id="link_PersonForHealth_Person"><path codeLine="49" d="M930,121.341 C930,121.341 930,176.661 930,176.661 " fill="none" id="PersonForHealth-to-Person" style="stroke:#000082;stroke-width:1.0;"/><polygon fill="none" points="937,176.661,930,196.661,923,176.661,937,176.661" style="stroke:#000082;stroke-width:1.0;"/></g></g></svg>