<?xml version="1.0" encoding="UTF-8" standalone="no"?><svg xmlns="http://www.w3.org/2000/svg" xmlns:xlink="http://www.w3.org/1999/xlink" contentStyleType="text/css" height="985px" preserveAspectRatio="none" style="width:887px;height:985px;background:#FFFFFF;" version="1.1" viewBox="0 0 887 985" width="887px" zoomAndPan="magnify"><defs/><g><g id="elem_Course"><rect codeLine="6" fill="#FFFFFF" height="109.1875" id="Course" rx="2.5" ry="2.5" style="stroke:#000000;stroke-width:1.0;" width="126" x="168" y="704.5"/><ellipse cx="202.6" cy="718.5" fill="#FFFFFF" rx="9" ry="9" style="stroke:#000000;stroke-width:1.0;"/><path d="M205.5688,724.1406 Q204.9906,724.4375 204.35,724.5781 Q203.7094,724.7344 203.0063,724.7344 Q200.5063,724.7344 199.1781,723.0938 Q197.8656,721.4375 197.8656,718.3125 Q197.8656,715.1875 199.1781,713.5313 Q200.5063,711.875 203.0063,711.875 Q203.7094,711.875 204.35,712.0313 Q205.0063,712.1875 205.5688,712.4844 L205.5688,715.2031 Q204.9438,714.625 204.35,714.3594 Q203.7563,714.0781 203.1313,714.0781 Q201.7875,714.0781 201.1,715.1563 Q200.4125,716.2188 200.4125,718.3125 Q200.4125,720.4063 201.1,721.4844 Q201.7875,722.5469 203.1313,722.5469 Q203.7563,722.5469 204.35,722.2813 Q204.9438,722 205.5688,721.4219 L205.5688,724.1406 Z " fill="#000000"/><text fill="#000000" font-family="Verdana" font-size="14" lengthAdjust="spacing" textLength="50" x="219.4" y="723.3467">Course</text><line style="stroke:#000000;stroke-width:1.0;" x1="169" x2="293" y1="732.5" y2="732.5"/><rect fill="none" height="6" style="stroke:#000000;stroke-width:1.0;" width="6" x="176" y="743.1484"/><text fill="#000000" font-family="Verdana" font-size="14" lengthAdjust="spacing" textLength="102" x="186" y="749.4951">teacher: String</text><rect fill="none" height="6" style="stroke:#000000;stroke-width:1.0;" width="6" x="176" y="759.4453"/><text fill="#000000" font-family="Verdana" font-size="14" lengthAdjust="spacing" textLength="88" x="186" y="765.792">name: String</text><text fill="#000000" font-family="Verdana" font-size="14" lengthAdjust="spacing" textLength="88" x="186" y="782.0889">name: String</text><text fill="#000000" font-family="Verdana" font-size="14" lengthAdjust="spacing" textLength="102" x="186" y="798.3857">teacher: String</text><line style="stroke:#000000;stroke-width:1.0;" x1="169" x2="293" y1="805.6875" y2="805.6875"/></g><g id="elem_CourseManager"><rect codeLine="12" fill="#FFFFFF" height="125.4844" id="CourseManager" rx="2.5" ry="2.5" style="stroke:#000000;stroke-width:1.0;" width="472" x="227" y="318"/><ellipse cx="404.25" cy="332" fill="#FFFFFF" rx="9" ry="9" style="stroke:#000000;stroke-width:1.0;"/><path d="M407.2188,337.6406 Q406.6406,337.9375 406,338.0781 Q405.3594,338.2344 404.6563,338.2344 Q402.1563,338.2344 400.8281,336.5938 Q399.5156,334.9375 399.5156,331.8125 Q399.5156,328.6875 400.8281,327.0313 Q402.1563,325.375 404.6563,325.375 Q405.3594,325.375 406,325.5313 Q406.6563,325.6875 407.2188,325.9844 L407.2188,328.7031 Q406.5938,328.125 406,327.8594 Q405.4063,327.5781 404.7813,327.5781 Q403.4375,327.5781 402.75,328.6563 Q402.0625,329.7188 402.0625,331.8125 Q402.0625,333.9063 402.75,334.9844 Q403.4375,336.0469 404.7813,336.0469 Q405.4063,336.0469 406,335.7813 Q406.5938,335.5 407.2188,334.9219 L407.2188,337.6406 Z " fill="#000000"/><text fill="#000000" font-family="Verdana" font-size="14" lengthAdjust="spacing" textLength="110" x="421.75" y="336.8467">CourseManager</text><line style="stroke:#000000;stroke-width:1.0;" x1="228" x2="698" y1="346" y2="346"/><line style="stroke:#000000;stroke-width:1.0;" x1="228" x2="698" y1="354" y2="354"/><ellipse cx="238" cy="367.6484" fill="#FFFFFF" rx="3" ry="3" style="stroke:#000000;stroke-width:1.0;"/><text fill="#000000" font-family="Verdana" font-size="14" lengthAdjust="spacing" textLength="246" x="245" y="370.9951">importCourses(List&lt;Course&gt;): void</text><ellipse cx="238" cy="383.9453" fill="#FFFFFF" rx="3" ry="3" style="stroke:#000000;stroke-width:1.0;"/><text fill="#000000" font-family="Verdana" font-size="14" lengthAdjust="spacing" textLength="198" x="245" y="387.292">queryCourse(String): Course</text><ellipse cx="238" cy="400.2422" fill="#FFFFFF" rx="3" ry="3" style="stroke:#000000;stroke-width:1.0;"/><text fill="#000000" font-family="Verdana" font-size="14" lengthAdjust="spacing" textLength="448" x="245" y="403.5889">queryStudentCourseTeacher(StudentManager, int, String): String</text><ellipse cx="238" cy="416.5391" fill="#FFFFFF" rx="3" ry="3" style="stroke:#000000;stroke-width:1.0;"/><text fill="#000000" font-family="Verdana" font-size="14" lengthAdjust="spacing" textLength="293" x="245" y="419.8857">addStudentInCourse(String, Student): void</text><ellipse cx="238" cy="432.8359" fill="#FFFFFF" rx="3" ry="3" style="stroke:#000000;stroke-width:1.0;"/><text fill="#000000" font-family="Verdana" font-size="14" lengthAdjust="spacing" textLength="326" x="245" y="436.1826">statisticStudentByGender(String, Gender): long</text></g><g id="elem_CourseSelectionManager"><rect codeLine="19" fill="#FFFFFF" height="44" id="CourseSelectionManager" rx="2.5" ry="2.5" style="stroke:#000000;stroke-width:1.0;" width="202" x="208" y="214"/><ellipse cx="221" cy="228" fill="#FFFFFF" rx="9" ry="9" style="stroke:#000000;stroke-width:1.0;"/><path d="M223.9688,233.6406 Q223.3906,233.9375 222.75,234.0781 Q222.1094,234.2344 221.4063,234.2344 Q218.9063,234.2344 217.5781,232.5938 Q216.2656,230.9375 216.2656,227.8125 Q216.2656,224.6875 217.5781,223.0313 Q218.9063,221.375 221.4063,221.375 Q222.1094,221.375 222.75,221.5313 Q223.4063,221.6875 223.9688,221.9844 L223.9688,224.7031 Q223.3438,224.125 222.75,223.8594 Q222.1563,223.5781 221.5313,223.5781 Q220.1875,223.5781 219.5,224.6563 Q218.8125,225.7188 218.8125,227.8125 Q218.8125,229.9063 219.5,230.9844 Q220.1875,232.0469 221.5313,232.0469 Q222.1563,232.0469 222.75,231.7813 Q223.3438,231.5 223.9688,230.9219 L223.9688,233.6406 Z " fill="#000000"/><text fill="#000000" font-family="Verdana" font-size="14" lengthAdjust="spacing" textLength="174" x="233" y="232.8467">CourseSelectionManager</text><line style="stroke:#000000;stroke-width:1.0;" x1="209" x2="409" y1="242" y2="242"/><line style="stroke:#000000;stroke-width:1.0;" x1="209" x2="409" y1="250" y2="250"/></g><g id="elem_CourseSelectionSystemApi"><rect codeLine="20" fill="#FFFFFF" height="141.7813" id="CourseSelectionSystemApi" rx="2.5" ry="2.5" style="stroke:#000000;stroke-width:1.0;" width="352" x="210" y="12"/><ellipse cx="289.25" cy="26" fill="#FFFFFF" rx="9" ry="9" style="stroke:#000000;stroke-width:1.0;"/><path d="M292.2188,31.6406 Q291.6406,31.9375 291,32.0781 Q290.3594,32.2344 289.6563,32.2344 Q287.1563,32.2344 285.8281,30.5938 Q284.5156,28.9375 284.5156,25.8125 Q284.5156,22.6875 285.8281,21.0313 Q287.1563,19.375 289.6563,19.375 Q290.3594,19.375 291,19.5313 Q291.6563,19.6875 292.2188,19.9844 L292.2188,22.7031 Q291.5938,22.125 291,21.8594 Q290.4063,21.5781 289.7813,21.5781 Q288.4375,21.5781 287.75,22.6563 Q287.0625,23.7188 287.0625,25.8125 Q287.0625,27.9063 287.75,28.9844 Q288.4375,30.0469 289.7813,30.0469 Q290.4063,30.0469 291,29.7813 Q291.5938,29.5 292.2188,28.9219 L292.2188,31.6406 Z " fill="#000000"/><text fill="#000000" font-family="Verdana" font-size="14" lengthAdjust="spacing" textLength="186" x="306.75" y="30.8467">CourseSelectionSystemApi</text><line style="stroke:#000000;stroke-width:1.0;" x1="211" x2="561" y1="40" y2="40"/><line style="stroke:#000000;stroke-width:1.0;" x1="211" x2="561" y1="48" y2="48"/><ellipse cx="221" cy="61.6484" fill="#FFFFFF" rx="3" ry="3" style="stroke:#000000;stroke-width:1.0;"/><text fill="#000000" font-family="Verdana" font-size="14" lengthAdjust="spacing" textLength="325" x="228" y="64.9951">queryStudentCourseTeacher(int, String): String</text><ellipse cx="221" cy="77.9453" fill="#FFFFFF" rx="3" ry="3" style="stroke:#000000;stroke-width:1.0;"/><text fill="#000000" font-family="Verdana" font-size="14" lengthAdjust="spacing" textLength="256" x="228" y="81.292">importStudents(List&lt;Student&gt;): void</text><ellipse cx="221" cy="94.2422" fill="#FFFFFF" rx="3" ry="3" style="stroke:#000000;stroke-width:1.0;"/><text fill="#000000" font-family="Verdana" font-size="14" lengthAdjust="spacing" textLength="246" x="228" y="97.5889">importCourses(List&lt;Course&gt;): void</text><ellipse cx="221" cy="110.5391" fill="#FFFFFF" rx="3" ry="3" style="stroke:#000000;stroke-width:1.0;"/><text fill="#000000" font-family="Verdana" font-size="14" lengthAdjust="spacing" textLength="328" x="228" y="113.8857">queryStudentSelectCourses(int): List&lt;Course&gt;</text><ellipse cx="221" cy="126.8359" fill="#FFFFFF" rx="3" ry="3" style="stroke:#000000;stroke-width:1.0;"/><text fill="#000000" font-family="Verdana" font-size="14" lengthAdjust="spacing" textLength="262" x="228" y="130.1826">assignCourses(int, List&lt;String&gt;): void</text><ellipse cx="221" cy="143.1328" fill="#FFFFFF" rx="3" ry="3" style="stroke:#000000;stroke-width:1.0;"/><text fill="#000000" font-family="Verdana" font-size="14" lengthAdjust="spacing" textLength="326" x="228" y="146.4795">statisticStudentByGender(String, Gender): long</text></g><g id="elem_Gender"><rect codeLine="28" fill="#FFFFFF" height="88.8594" id="Gender" rx="2.5" ry="2.5" style="stroke:#000000;stroke-width:1.0;" width="186" x="694" y="890"/><ellipse cx="738.25" cy="910.1328" fill="#FFFFFF" rx="9" ry="9" style="stroke:#000000;stroke-width:1.0;"/><path d="M742.3594,916.1328 L734.6406,916.1328 L734.6406,903.7422 L742.3594,903.7422 L742.3594,905.8984 L737.0938,905.8984 L737.0938,908.5703 L741.8594,908.5703 L741.8594,910.7266 L737.0938,910.7266 L737.0938,913.9766 L742.3594,913.9766 L742.3594,916.1328 Z " fill="#000000"/><text fill="#000000" font-family="Verdana" font-size="12" font-style="italic" lengthAdjust="spacing" textLength="94" x="753.75" y="906.1387">«enumeration»</text><text fill="#000000" font-family="Verdana" font-size="14" lengthAdjust="spacing" textLength="52" x="774.75" y="921.9639">Gender</text><line style="stroke:#000000;stroke-width:1.0;" x1="695" x2="879" y1="930.2656" y2="930.2656"/><line style="stroke:#000000;stroke-width:1.0;" x1="695" x2="879" y1="938.2656" y2="938.2656"/><ellipse cx="705" cy="951.9141" fill="#FFFFFF" rx="3" ry="3" style="stroke:#000000;stroke-width:1.0;"/><text fill="#000000" font-family="Verdana" font-size="14" lengthAdjust="spacing" textLength="125" x="712" y="955.2607">values(): Gender[]</text><ellipse cx="705" cy="968.2109" fill="#FFFFFF" rx="3" ry="3" style="stroke:#000000;stroke-width:1.0;"/><text fill="#000000" font-family="Verdana" font-size="14" lengthAdjust="spacing" textLength="162" x="712" y="971.5576">valueOf(String): Gender</text></g><g id="elem_Student"><rect codeLine="32" fill="#FFFFFF" height="141.7813" id="Student" rx="2.5" ry="2.5" style="stroke:#000000;stroke-width:1.0;" width="135" x="566.5" y="688"/><ellipse cx="602.9" cy="702" fill="#FFFFFF" rx="9" ry="9" style="stroke:#000000;stroke-width:1.0;"/><path d="M605.8688,707.6406 Q605.2906,707.9375 604.65,708.0781 Q604.0094,708.2344 603.3063,708.2344 Q600.8063,708.2344 599.4781,706.5938 Q598.1656,704.9375 598.1656,701.8125 Q598.1656,698.6875 599.4781,697.0313 Q600.8063,695.375 603.3063,695.375 Q604.0094,695.375 604.65,695.5313 Q605.3063,695.6875 605.8688,695.9844 L605.8688,698.7031 Q605.2438,698.125 604.65,697.8594 Q604.0563,697.5781 603.4313,697.5781 Q602.0875,697.5781 601.4,698.6563 Q600.7125,699.7188 600.7125,701.8125 Q600.7125,703.9063 601.4,704.9844 Q602.0875,706.0469 603.4313,706.0469 Q604.0563,706.0469 604.65,705.7813 Q605.2438,705.5 605.8688,704.9219 L605.8688,707.6406 Z " fill="#000000"/><text fill="#000000" font-family="Verdana" font-size="14" lengthAdjust="spacing" textLength="55" x="620.1" y="706.8467">Student</text><line style="stroke:#000000;stroke-width:1.0;" x1="567.5" x2="700.5" y1="716" y2="716"/><rect fill="none" height="6" style="stroke:#000000;stroke-width:1.0;" width="6" x="574.5" y="726.6484"/><text fill="#000000" font-family="Verdana" font-size="14" lengthAdjust="spacing" textLength="38" x="584.5" y="732.9951">id: int</text><rect fill="none" height="6" style="stroke:#000000;stroke-width:1.0;" width="6" x="574.5" y="742.9453"/><text fill="#000000" font-family="Verdana" font-size="14" lengthAdjust="spacing" textLength="88" x="584.5" y="749.292">name: String</text><rect fill="none" height="6" style="stroke:#000000;stroke-width:1.0;" width="6" x="574.5" y="759.2422"/><text fill="#000000" font-family="Verdana" font-size="14" lengthAdjust="spacing" textLength="111" x="584.5" y="765.5889">gender: Gender</text><text fill="#000000" font-family="Verdana" font-size="14" lengthAdjust="spacing" textLength="88" x="584.5" y="781.8857">name: String</text><text fill="#000000" font-family="Verdana" font-size="14" lengthAdjust="spacing" textLength="111" x="584.5" y="798.1826">gender: Gender</text><text fill="#000000" font-family="Verdana" font-size="14" lengthAdjust="spacing" textLength="38" x="584.5" y="814.4795">id: int</text><line style="stroke:#000000;stroke-width:1.0;" x1="567.5" x2="700.5" y1="821.7813" y2="821.7813"/></g><g id="elem_StudentManager"><rect codeLine="40" fill="#FFFFFF" height="125.4844" id="StudentManager" rx="2.5" ry="2.5" style="stroke:#000000;stroke-width:1.0;" width="404" x="29" y="503"/><ellipse cx="169.75" cy="517" fill="#FFFFFF" rx="9" ry="9" style="stroke:#000000;stroke-width:1.0;"/><path d="M172.7188,522.6406 Q172.1406,522.9375 171.5,523.0781 Q170.8594,523.2344 170.1563,523.2344 Q167.6563,523.2344 166.3281,521.5938 Q165.0156,519.9375 165.0156,516.8125 Q165.0156,513.6875 166.3281,512.0313 Q167.6563,510.375 170.1563,510.375 Q170.8594,510.375 171.5,510.5313 Q172.1563,510.6875 172.7188,510.9844 L172.7188,513.7031 Q172.0938,513.125 171.5,512.8594 Q170.9063,512.5781 170.2813,512.5781 Q168.9375,512.5781 168.25,513.6563 Q167.5625,514.7188 167.5625,516.8125 Q167.5625,518.9063 168.25,519.9844 Q168.9375,521.0469 170.2813,521.0469 Q170.9063,521.0469 171.5,520.7813 Q172.0938,520.5 172.7188,519.9219 L172.7188,522.6406 Z " fill="#000000"/><text fill="#000000" font-family="Verdana" font-size="14" lengthAdjust="spacing" textLength="115" x="187.25" y="521.8467">StudentManager</text><line style="stroke:#000000;stroke-width:1.0;" x1="30" x2="432" y1="531" y2="531"/><line style="stroke:#000000;stroke-width:1.0;" x1="30" x2="432" y1="539" y2="539"/><ellipse cx="40" cy="552.6484" fill="#FFFFFF" rx="3" ry="3" style="stroke:#000000;stroke-width:1.0;"/><text fill="#000000" font-family="Verdana" font-size="14" lengthAdjust="spacing" textLength="256" x="47" y="555.9951">importStudents(List&lt;Student&gt;): void</text><ellipse cx="40" cy="568.9453" fill="#FFFFFF" rx="3" ry="3" style="stroke:#000000;stroke-width:1.0;"/><text fill="#000000" font-family="Verdana" font-size="14" lengthAdjust="spacing" textLength="380" x="47" y="572.292">assignCourses(CourseManager, int, List&lt;String&gt;): void</text><rect fill="#FFFFFF" height="6" style="stroke:#000000;stroke-width:1.0;" width="6" x="37" y="582.2422"/><text fill="#000000" font-family="Verdana" font-size="14" lengthAdjust="spacing" textLength="369" x="47" y="588.5889">selectCourse(CourseManager, int, List&lt;String&gt;): void</text><ellipse cx="40" cy="601.5391" fill="#FFFFFF" rx="3" ry="3" style="stroke:#000000;stroke-width:1.0;"/><text fill="#000000" font-family="Verdana" font-size="14" lengthAdjust="spacing" textLength="185" x="47" y="604.8857">queryStudent(int): Student</text><ellipse cx="40" cy="617.8359" fill="#FFFFFF" rx="3" ry="3" style="stroke:#000000;stroke-width:1.0;"/><text fill="#000000" font-family="Verdana" font-size="14" lengthAdjust="spacing" textLength="328" x="47" y="621.1826">queryStudentSelectCourses(int): List&lt;Course&gt;</text></g><g id="link_CourseManager_Course"><path codeLine="48" d="M499.75,455.002 C499.75,455.002 499.75,759 499.75,759 C499.75,759 307.01,759 307.01,759 " fill="none" id="CourseManager-Course" style="stroke:#595959;stroke-width:1.0;"/><polygon fill="#595959" points="294.01,759,303.01,763,299.01,759,303.01,755,294.01,759" style="stroke:#595959;stroke-width:1.0;"/><line style="stroke:#595959;stroke-width:1.0;" x1="299.01" x2="307.01" y1="759" y2="759"/><polygon fill="#595959" points="499.75,443.002,495.75,449.002,499.75,455.002,503.75,449.002,499.75,443.002" style="stroke:#595959;stroke-width:1.0;"/><text fill="#000000" font-family="Verdana" font-size="13" lengthAdjust="spacing" textLength="8" x="495.7414" y="463.579">1</text><text fill="#000000" font-family="Verdana" font-size="13" lengthAdjust="spacing" textLength="63" x="302.132" y="739.7812">COURSES</text><text fill="#000000" font-family="Verdana" font-size="13" lengthAdjust="spacing" textLength="7" x="330.132" y="754.914">*</text></g><g id="link_CourseManager_Gender"><path codeLine="49" d="M699.018,381 C750.914,381 790.75,381 790.75,381 C790.75,381 790.75,884.6736 790.75,884.6736 " fill="none" id="CourseManager-to-Gender" style="stroke:#595959;stroke-width:1.0;stroke-dasharray:7.0,7.0;"/><polygon fill="#595959" points="790.75,889.6736,794.75,880.6736,790.75,884.6736,786.75,880.6736,790.75,889.6736" style="stroke:#595959;stroke-width:1.0;"/></g><g id="link_CourseManager_Student"><path codeLine="50" d="M632.75,443.002 C632.75,443.002 632.75,682.692 632.75,682.692 " fill="none" id="CourseManager-to-Student" style="stroke:#595959;stroke-width:1.0;stroke-dasharray:7.0,7.0;"/><polygon fill="#595959" points="632.75,687.692,636.75,678.692,632.75,682.692,628.75,678.692,632.75,687.692" style="stroke:#595959;stroke-width:1.0;"/></g><g id="link_CourseManager_StudentManager"><path codeLine="51" d="M295.667,443.133 C295.667,443.133 295.667,497.932 295.667,497.932 " fill="none" id="CourseManager-to-StudentManager" style="stroke:#595959;stroke-width:1.0;stroke-dasharray:7.0,7.0;"/><polygon fill="#595959" points="295.667,502.932,299.667,493.932,295.667,497.932,291.667,493.932,295.667,502.932" style="stroke:#595959;stroke-width:1.0;"/></g><g id="link_StudentManager_CourseManager"><path codeLine="64" d="M364.333,502.867 C364.333,502.867 364.333,448.068 364.333,448.068 " fill="none" id="StudentManager-to-CourseManager" style="stroke:#595959;stroke-width:1.0;stroke-dasharray:7.0,7.0;"/><polygon fill="#595959" points="364.333,443.068,360.333,452.068,364.333,448.068,368.333,452.068,364.333,443.068" style="stroke:#595959;stroke-width:1.0;"/></g><g id="link_CourseSelectionManager_CourseManager"><path codeLine="52" d="M288,258.261 C288,258.261 288,312.916 288,312.916 " fill="none" id="CourseSelectionManager-to-CourseManager" style="stroke:#595959;stroke-width:1.0;stroke-dasharray:7.0,7.0;"/><polygon fill="#595959" points="288,317.916,292,308.916,288,312.916,284,308.916,288,317.916" style="stroke:#595959;stroke-width:1.0;"/><text fill="#000000" font-family="Verdana" font-size="13" lengthAdjust="spacing" textLength="41" x="246" y="281.6559">create</text></g><g id="link_CourseSelectionManager_CourseManager"><path codeLine="53" d="M349,270.261 C349,270.261 349,304.916 349,304.916 " fill="none" id="CourseSelectionManager-CourseManager" style="stroke:#595959;stroke-width:1.0;"/><polygon fill="#595959" points="349,317.916,353,308.916,349,312.916,345,308.916,349,317.916" style="stroke:#595959;stroke-width:1.0;"/><line style="stroke:#595959;stroke-width:1.0;" x1="349" x2="349" y1="312.916" y2="304.916"/><polygon fill="#595959" points="349,258.261,345,264.261,349,270.261,353,264.261,349,258.261" style="stroke:#595959;stroke-width:1.0;"/><text fill="#000000" font-family="Verdana" font-size="13" lengthAdjust="spacing" textLength="8" x="327.3563" y="306.8591">1</text><text fill="#000000" font-family="Verdana" font-size="13" lengthAdjust="spacing" textLength="99" x="367.4594" y="278.0404">courseManager</text><text fill="#000000" font-family="Verdana" font-size="13" lengthAdjust="spacing" textLength="8" x="412.9594" y="293.1732">1</text></g><g id="link_CourseSelectionManager_StudentManager"><path codeLine="54" d="M214.333,258.131 C214.333,258.131 214.333,497.993 214.333,497.993 " fill="none" id="CourseSelectionManager-to-StudentManager" style="stroke:#595959;stroke-width:1.0;stroke-dasharray:7.0,7.0;"/><polygon fill="#595959" points="214.333,502.993,218.333,493.993,214.333,497.993,210.333,493.993,214.333,502.993" style="stroke:#595959;stroke-width:1.0;"/><text fill="#000000" font-family="Verdana" font-size="13" lengthAdjust="spacing" textLength="41" x="172.333" y="374.1289">create</text></g><g id="link_CourseSelectionManager_StudentManager"><path codeLine="55" d="M220.667,270.131 C220.667,270.131 220.667,489.993 220.667,489.993 " fill="none" id="CourseSelectionManager-StudentManager" style="stroke:#595959;stroke-width:1.0;"/><polygon fill="#595959" points="220.667,502.993,224.667,493.993,220.667,497.993,216.667,493.993,220.667,502.993" style="stroke:#595959;stroke-width:1.0;"/><line style="stroke:#595959;stroke-width:1.0;" x1="220.667" x2="220.667" y1="497.993" y2="489.993"/><polygon fill="#595959" points="220.667,258.131,216.667,264.131,220.667,270.131,224.667,264.131,220.667,258.131" style="stroke:#595959;stroke-width:1.0;"/><text fill="#000000" font-family="Verdana" font-size="13" lengthAdjust="spacing" textLength="8" x="211.0097" y="491.945">1</text><text fill="#000000" font-family="Verdana" font-size="13" lengthAdjust="spacing" textLength="105" x="94.9822" y="275.671">studentManager</text><text fill="#000000" font-family="Verdana" font-size="13" lengthAdjust="spacing" textLength="8" x="143.4822" y="290.8038">1</text></g><g id="link_CourseSelectionSystemApi_Course"><path codeLine="56" d="M209.755,60 C112.408,60 11,60 11,60 C11,60 11,759 11,759 C11,759 162.957,759 162.957,759 " fill="none" id="CourseSelectionSystemApi-to-Course" style="stroke:#595959;stroke-width:1.0;stroke-dasharray:7.0,7.0;"/><polygon fill="#595959" points="167.957,759,158.957,755,162.957,759,158.957,763,167.957,759" style="stroke:#595959;stroke-width:1.0;"/></g><g id="link_CourseSelectionSystemApi_CourseManager"><path codeLine="57" d="M486,154.259 C486,154.259 486,312.899 486,312.899 " fill="none" id="CourseSelectionSystemApi-to-CourseManager" style="stroke:#595959;stroke-width:1.0;stroke-dasharray:7.0,7.0;"/><polygon fill="#595959" points="486,317.899,490,308.899,486,312.899,482,308.899,486,317.899" style="stroke:#595959;stroke-width:1.0;"/></g><g id="link_CourseSelectionSystemApi_CourseSelectionManager"><path codeLine="58" d="M310,154.125 C310,154.125 310,193.921 310,193.921 " fill="none" id="CourseSelectionSystemApi-to-CourseSelectionManager" style="stroke:#000082;stroke-width:1.0;"/><polygon fill="none" points="317,193.921,310,213.921,303,193.921,317,193.921" style="stroke:#000082;stroke-width:1.0;"/></g><g id="link_CourseSelectionSystemApi_Gender"><path codeLine="59" d="M562.315,60 C688.21,60 835.375,60 835.375,60 C835.375,60 835.375,884.9311 835.375,884.9311 " fill="none" id="CourseSelectionSystemApi-to-Gender" style="stroke:#595959;stroke-width:1.0;stroke-dasharray:7.0,7.0;"/><polygon fill="#595959" points="835.375,889.9311,839.375,880.9311,835.375,884.9311,831.375,880.9311,835.375,889.9311" style="stroke:#595959;stroke-width:1.0;"/></g><g id="link_CourseSelectionSystemApi_Student"><path codeLine="60" d="M562.106,107 C653.437,107 746.125,107 746.125,107 C746.125,107 746.125,759 746.125,759 C746.125,759 706.81,759 706.81,759 " fill="none" id="CourseSelectionSystemApi-to-Student" style="stroke:#595959;stroke-width:1.0;stroke-dasharray:7.0,7.0;"/><polygon fill="#595959" points="701.81,759,710.81,763,706.81,759,710.81,755,701.81,759" style="stroke:#595959;stroke-width:1.0;"/></g><g id="link_CourseSelectionSystemApi_StudentManager"><path codeLine="61" d="M209.81,107 C159.726,107 118.5,107 118.5,107 C118.5,107 118.5,497.709 118.5,497.709 " fill="none" id="CourseSelectionSystemApi-to-StudentManager" style="stroke:#595959;stroke-width:1.0;stroke-dasharray:7.0,7.0;"/><polygon fill="#595959" points="118.5,502.709,122.5,493.709,118.5,497.709,114.5,493.709,118.5,502.709" style="stroke:#595959;stroke-width:1.0;"/></g><g id="link_Student_Gender"><path codeLine="62" d="M697.75,842.13 C697.75,842.13 697.75,876.996 697.75,876.996 " fill="none" id="Student-Gender" style="stroke:#595959;stroke-width:1.0;"/><polygon fill="#595959" points="697.75,889.9964,701.75,880.9964,697.75,884.9964,693.75,880.9964,697.75,889.9964" style="stroke:#595959;stroke-width:1.0;"/><line style="stroke:#595959;stroke-width:1.0;" x1="697.75" x2="697.75" y1="884.9964" y2="876.996"/><polygon fill="#595959" points="697.75,830.13,693.75,836.13,697.75,842.13,701.75,836.13,697.75,830.13" style="stroke:#595959;stroke-width:1.0;"/><text fill="#000000" font-family="Verdana" font-size="13" lengthAdjust="spacing" textLength="8" x="677.8023" y="880.4174">1</text><text fill="#000000" font-family="Verdana" font-size="13" lengthAdjust="spacing" textLength="45" x="656.4238" y="849.8894">gender</text><text fill="#000000" font-family="Verdana" font-size="13" lengthAdjust="spacing" textLength="8" x="674.9238" y="865.0222">1</text></g><g id="link_StudentManager_Course"><path codeLine="63" d="M231,628.057 C231,628.057 231,699.474 231,699.474 " fill="none" id="StudentManager-to-Course" style="stroke:#595959;stroke-width:1.0;stroke-dasharray:7.0,7.0;"/><polygon fill="#595959" points="231,704.474,235,695.474,231,699.474,227,695.474,231,704.474" style="stroke:#595959;stroke-width:1.0;"/></g><g id="link_StudentManager_Student"><path codeLine="65" d="M363.5,640.169 C363.5,640.169 363.5,697 363.5,697 C363.5,697 553.439,697 553.439,697 " fill="none" id="StudentManager-Student" style="stroke:#595959;stroke-width:1.0;"/><polygon fill="#595959" points="566.439,697,557.439,693,561.439,697,557.439,701,566.439,697" style="stroke:#595959;stroke-width:1.0;"/><line style="stroke:#595959;stroke-width:1.0;" x1="561.439" x2="553.439" y1="697" y2="697"/><polygon fill="#595959" points="363.5,628.169,359.5,634.169,363.5,640.169,367.5,634.169,363.5,628.169" style="stroke:#595959;stroke-width:1.0;"/><text fill="#000000" font-family="Verdana" font-size="13" lengthAdjust="spacing" textLength="8" x="371.1609" y="648.7663">1</text><text fill="#000000" font-family="Verdana" font-size="13" lengthAdjust="spacing" textLength="70" x="488.5867" y="673.1901">STUDENTS</text><text fill="#000000" font-family="Verdana" font-size="13" lengthAdjust="spacing" textLength="7" x="520.0867" y="688.3229">*</text></g></g></svg>