<?xml version="1.0" encoding="UTF-8" standalone="no"?><svg xmlns="http://www.w3.org/2000/svg" xmlns:xlink="http://www.w3.org/1999/xlink" contentStyleType="text/css" height="676px" preserveAspectRatio="none" style="width:364px;height:676px;background:#FFFFFF;" version="1.1" viewBox="0 0 364 676" width="364px" zoomAndPan="magnify"><defs/><g><g id="elem_Address"><rect codeLine="6" fill="#FFFFFF" height="76.5938" id="Address" rx="2.5" ry="2.5" style="stroke:#000000;stroke-width:1.0;" width="116" x="122.5" y="423"/><ellipse cx="149.45" cy="437" fill="#FFFFFF" rx="9" ry="9" style="stroke:#000000;stroke-width:1.0;"/><path d="M152.4188,442.6406 Q151.8406,442.9375 151.2,443.0781 Q150.5594,443.2344 149.8563,443.2344 Q147.3563,443.2344 146.0281,441.5938 Q144.7156,439.9375 144.7156,436.8125 Q144.7156,433.6875 146.0281,432.0313 Q147.3563,430.375 149.8563,430.375 Q150.5594,430.375 151.2,430.5313 Q151.8563,430.6875 152.4188,430.9844 L152.4188,433.7031 Q151.7938,433.125 151.2,432.8594 Q150.6063,432.5781 149.9813,432.5781 Q148.6375,432.5781 147.95,433.6563 Q147.2625,434.7188 147.2625,436.8125 Q147.2625,438.9063 147.95,439.9844 Q148.6375,441.0469 149.9813,441.0469 Q150.6063,441.0469 151.2,440.7813 Q151.7938,440.5 152.4188,439.9219 L152.4188,442.6406 Z " fill="#000000"/><text fill="#000000" font-family="Verdana" font-size="14" lengthAdjust="spacing" textLength="57" x="164.55" y="441.8467">Address</text><line style="stroke:#000000;stroke-width:1.0;" x1="123.5" x2="237.5" y1="451" y2="451"/><rect fill="none" height="6" style="stroke:#000000;stroke-width:1.0;" width="6" x="130.5" y="461.6484"/><text fill="#000000" font-family="Verdana" font-size="14" lengthAdjust="spacing" textLength="92" x="140.5" y="467.9951">street: Street</text><text fill="#000000" font-family="Verdana" font-size="14" lengthAdjust="spacing" textLength="92" x="140.5" y="484.292">street: Street</text><line style="stroke:#000000;stroke-width:1.0;" x1="123.5" x2="237.5" y1="491.5938" y2="491.5938"/></g><g id="elem_Department"><rect codeLine="10" fill="#FFFFFF" height="76.5938" id="Department" rx="2.5" ry="2.5" style="stroke:#000000;stroke-width:1.0;" width="146" x="107.5" y="286"/><ellipse cx="136.25" cy="300" fill="#FFFFFF" rx="9" ry="9" style="stroke:#000000;stroke-width:1.0;"/><path d="M139.2188,305.6406 Q138.6406,305.9375 138,306.0781 Q137.3594,306.2344 136.6563,306.2344 Q134.1563,306.2344 132.8281,304.5938 Q131.5156,302.9375 131.5156,299.8125 Q131.5156,296.6875 132.8281,295.0313 Q134.1563,293.375 136.6563,293.375 Q137.3594,293.375 138,293.5313 Q138.6563,293.6875 139.2188,293.9844 L139.2188,296.7031 Q138.5938,296.125 138,295.8594 Q137.4063,295.5781 136.7813,295.5781 Q135.4375,295.5781 134.75,296.6563 Q134.0625,297.7188 134.0625,299.8125 Q134.0625,301.9063 134.75,302.9844 Q135.4375,304.0469 136.7813,304.0469 Q137.4063,304.0469 138,303.7813 Q138.5938,303.5 139.2188,302.9219 L139.2188,305.6406 Z " fill="#000000"/><text fill="#000000" font-family="Verdana" font-size="14" lengthAdjust="spacing" textLength="83" x="151.75" y="304.8467">Department</text><line style="stroke:#000000;stroke-width:1.0;" x1="108.5" x2="252.5" y1="314" y2="314"/><rect fill="none" height="6" style="stroke:#000000;stroke-width:1.0;" width="6" x="115.5" y="324.6484"/><text fill="#000000" font-family="Verdana" font-size="14" lengthAdjust="spacing" textLength="122" x="125.5" y="330.9951">address: Address</text><text fill="#000000" font-family="Verdana" font-size="14" lengthAdjust="spacing" textLength="122" x="125.5" y="347.292">address: Address</text><line style="stroke:#000000;stroke-width:1.0;" x1="108.5" x2="252.5" y1="354.5938" y2="354.5938"/></g><g id="elem_InformationClient"><rect codeLine="14" fill="#FFFFFF" height="76.5938" id="InformationClient" rx="2.5" ry="2.5" style="stroke:#000000;stroke-width:1.0;" width="281" x="12" y="12"/><ellipse cx="90.75" cy="26" fill="#FFFFFF" rx="9" ry="9" style="stroke:#000000;stroke-width:1.0;"/><path d="M93.7188,31.6406 Q93.1406,31.9375 92.5,32.0781 Q91.8594,32.2344 91.1563,32.2344 Q88.6563,32.2344 87.3281,30.5938 Q86.0156,28.9375 86.0156,25.8125 Q86.0156,22.6875 87.3281,21.0313 Q88.6563,19.375 91.1563,19.375 Q91.8594,19.375 92.5,19.5313 Q93.1563,19.6875 93.7188,19.9844 L93.7188,22.7031 Q93.0938,22.125 92.5,21.8594 Q91.9063,21.5781 91.2813,21.5781 Q89.9375,21.5781 89.25,22.6563 Q88.5625,23.7188 88.5625,25.8125 Q88.5625,27.9063 89.25,28.9844 Q89.9375,30.0469 91.2813,30.0469 Q91.9063,30.0469 92.5,29.7813 Q93.0938,29.5 93.7188,28.9219 L93.7188,31.6406 Z " fill="#000000"/><text fill="#000000" font-family="Verdana" font-size="14" lengthAdjust="spacing" textLength="116" x="108.25" y="30.8467">InformationClient</text><line style="stroke:#000000;stroke-width:1.0;" x1="13" x2="292" y1="40" y2="40"/><line style="stroke:#000000;stroke-width:1.0;" x1="13" x2="292" y1="48" y2="48"/><ellipse cx="23" cy="61.6484" fill="#FFFFFF" rx="3" ry="3" style="stroke:#000000;stroke-width:1.0;"/><text fill="#000000" font-family="Verdana" font-size="14" lengthAdjust="spacing" textLength="245" x="30" y="64.9951">getServerStreetNo(Person): Integer</text><ellipse cx="23" cy="77.9453" fill="#FFFFFF" rx="3" ry="3" style="stroke:#000000;stroke-width:1.0;"/><text fill="#000000" font-family="Verdana" font-size="14" lengthAdjust="spacing" textLength="257" x="30" y="81.292">getServerStreetName(Person): String</text></g><g id="elem_Person"><rect codeLine="18" fill="#FFFFFF" height="76.5938" id="Person" rx="2.5" ry="2.5" style="stroke:#000000;stroke-width:1.0;" width="197" x="130" y="149"/><ellipse cx="200.25" cy="163" fill="#FFFFFF" rx="9" ry="9" style="stroke:#000000;stroke-width:1.0;"/><path d="M203.2188,168.6406 Q202.6406,168.9375 202,169.0781 Q201.3594,169.2344 200.6563,169.2344 Q198.1563,169.2344 196.8281,167.5938 Q195.5156,165.9375 195.5156,162.8125 Q195.5156,159.6875 196.8281,158.0313 Q198.1563,156.375 200.6563,156.375 Q201.3594,156.375 202,156.5313 Q202.6563,156.6875 203.2188,156.9844 L203.2188,159.7031 Q202.5938,159.125 202,158.8594 Q201.4063,158.5781 200.7813,158.5781 Q199.4375,158.5781 198.75,159.6563 Q198.0625,160.7188 198.0625,162.8125 Q198.0625,164.9063 198.75,165.9844 Q199.4375,167.0469 200.7813,167.0469 Q201.4063,167.0469 202,166.7813 Q202.5938,166.5 203.2188,165.9219 L203.2188,168.6406 Z " fill="#000000"/><text fill="#000000" font-family="Verdana" font-size="14" lengthAdjust="spacing" textLength="49" x="217.75" y="167.8467">Person</text><line style="stroke:#000000;stroke-width:1.0;" x1="131" x2="326" y1="177" y2="177"/><rect fill="none" height="6" style="stroke:#000000;stroke-width:1.0;" width="6" x="138" y="187.6484"/><text fill="#000000" font-family="Verdana" font-size="14" lengthAdjust="spacing" textLength="173" x="148" y="193.9951">department: Department</text><text fill="#000000" font-family="Verdana" font-size="14" lengthAdjust="spacing" textLength="173" x="148" y="210.292">department: Department</text><line style="stroke:#000000;stroke-width:1.0;" x1="131" x2="326" y1="217.5938" y2="217.5938"/></g><g id="elem_Street"><rect codeLine="22" fill="#FFFFFF" height="109.1875" id="Street" rx="2.5" ry="2.5" style="stroke:#000000;stroke-width:1.0;" width="154" x="203.5" y="560"/><ellipse cx="255.75" cy="574" fill="#FFFFFF" rx="9" ry="9" style="stroke:#000000;stroke-width:1.0;"/><path d="M258.7188,579.6406 Q258.1406,579.9375 257.5,580.0781 Q256.8594,580.2344 256.1563,580.2344 Q253.6563,580.2344 252.3281,578.5938 Q251.0156,576.9375 251.0156,573.8125 Q251.0156,570.6875 252.3281,569.0313 Q253.6563,567.375 256.1563,567.375 Q256.8594,567.375 257.5,567.5313 Q258.1563,567.6875 258.7188,567.9844 L258.7188,570.7031 Q258.0938,570.125 257.5,569.8594 Q256.9063,569.5781 256.2813,569.5781 Q254.9375,569.5781 254.25,570.6563 Q253.5625,571.7188 253.5625,573.8125 Q253.5625,575.9063 254.25,576.9844 Q254.9375,578.0469 256.2813,578.0469 Q256.9063,578.0469 257.5,577.7813 Q258.0938,577.5 258.7188,576.9219 L258.7188,579.6406 Z " fill="#000000"/><text fill="#000000" font-family="Verdana" font-size="14" lengthAdjust="spacing" textLength="42" x="273.25" y="578.8467">Street</text><line style="stroke:#000000;stroke-width:1.0;" x1="204.5" x2="356.5" y1="588" y2="588"/><rect fill="none" height="6" style="stroke:#000000;stroke-width:1.0;" width="6" x="211.5" y="598.6484"/><text fill="#000000" font-family="Verdana" font-size="14" lengthAdjust="spacing" textLength="118" x="221.5" y="604.9951">streetNo: Integer</text><rect fill="none" height="6" style="stroke:#000000;stroke-width:1.0;" width="6" x="211.5" y="614.9453"/><text fill="#000000" font-family="Verdana" font-size="14" lengthAdjust="spacing" textLength="130" x="221.5" y="621.292">streetName: String</text><text fill="#000000" font-family="Verdana" font-size="14" lengthAdjust="spacing" textLength="130" x="221.5" y="637.5889">streetName: String</text><text fill="#000000" font-family="Verdana" font-size="14" lengthAdjust="spacing" textLength="118" x="221.5" y="653.8857">streetNo: Integer</text><line style="stroke:#000000;stroke-width:1.0;" x1="204.5" x2="356.5" y1="661.1875" y2="661.1875"/></g><g id="link_Address_Street"><path codeLine="29" d="M221,512.108 C221,512.108 221,546.723 221,546.723 " fill="none" id="Address-Street" style="stroke:#595959;stroke-width:1.0;"/><polygon fill="#595959" points="221,559.723,225,550.723,221,554.723,217,550.723,221,559.723" style="stroke:#595959;stroke-width:1.0;"/><line style="stroke:#595959;stroke-width:1.0;" x1="221" x2="221" y1="554.723" y2="546.723"/><polygon fill="#595959" points="221,500.108,217,506.108,221,512.108,225,506.108,221,500.108" style="stroke:#595959;stroke-width:1.0;"/><text fill="#000000" font-family="Verdana" font-size="13" lengthAdjust="spacing" textLength="8" x="204.8641" y="548.8072">1</text><text fill="#000000" font-family="Verdana" font-size="13" lengthAdjust="spacing" textLength="38" x="186.0234" y="519.7608">street</text><text fill="#000000" font-family="Verdana" font-size="13" lengthAdjust="spacing" textLength="8" x="201.0234" y="534.8936">1</text></g><g id="link_Department_Address"><path codeLine="30" d="M180.5,375.027 C180.5,375.027 180.5,409.788 180.5,409.788 " fill="none" id="Department-Address" style="stroke:#595959;stroke-width:1.0;"/><polygon fill="#595959" points="180.5,422.788,184.5,413.788,180.5,417.788,176.5,413.788,180.5,422.788" style="stroke:#595959;stroke-width:1.0;"/><line style="stroke:#595959;stroke-width:1.0;" x1="180.5" x2="180.5" y1="417.788" y2="409.788"/><polygon fill="#595959" points="180.5,363.027,176.5,369.027,180.5,375.027,184.5,369.027,180.5,363.027" style="stroke:#595959;stroke-width:1.0;"/><text fill="#000000" font-family="Verdana" font-size="13" lengthAdjust="spacing" textLength="8" x="171.8125" y="411.9585">1</text><text fill="#000000" font-family="Verdana" font-size="13" lengthAdjust="spacing" textLength="51" x="125.9141" y="382.6684">address</text><text fill="#000000" font-family="Verdana" font-size="13" lengthAdjust="spacing" textLength="8" x="147.4141" y="397.8012">1</text></g><g id="link_InformationClient_Address"><path codeLine="31" d="M59.75,89.213 C59.75,191.65 59.75,462 59.75,462 C59.75,462 117.247,462 117.247,462 " fill="none" id="InformationClient-to-Address" style="stroke:#595959;stroke-width:1.0;stroke-dasharray:7.0,7.0;"/><polygon fill="#595959" points="122.247,462,113.247,458,117.247,462,113.247,466,122.247,462" style="stroke:#595959;stroke-width:1.0;"/></g><g id="link_InformationClient_Department"><path codeLine="32" d="M118.75,89.176 C118.75,89.176 118.75,280.578 118.75,280.578 " fill="none" id="InformationClient-to-Department" style="stroke:#595959;stroke-width:1.0;stroke-dasharray:7.0,7.0;"/><polygon fill="#595959" points="118.75,285.578,122.75,276.578,118.75,280.578,114.75,276.578,118.75,285.578" style="stroke:#595959;stroke-width:1.0;"/></g><g id="link_InformationClient_Person"><path codeLine="33" d="M211.5,89.027 C211.5,89.027 211.5,143.788 211.5,143.788 " fill="none" id="InformationClient-to-Person" style="stroke:#595959;stroke-width:1.0;stroke-dasharray:7.0,7.0;"/><polygon fill="#595959" points="211.5,148.788,215.5,139.788,211.5,143.788,207.5,139.788,211.5,148.788" style="stroke:#595959;stroke-width:1.0;"/></g><g id="link_InformationClient_Street"><path codeLine="34" d="M293.385,51 C321.331,51 342.25,51 342.25,51 C342.25,51 342.25,554.957 342.25,554.957 " fill="none" id="InformationClient-to-Street" style="stroke:#595959;stroke-width:1.0;stroke-dasharray:7.0,7.0;"/><polygon fill="#595959" points="342.25,559.957,346.25,550.957,342.25,554.957,338.25,550.957,342.25,559.957" style="stroke:#595959;stroke-width:1.0;"/></g><g id="link_Person_Department"><path codeLine="35" d="M191.75,238.027 C191.75,238.027 191.75,272.788 191.75,272.788 " fill="none" id="Person-Department" style="stroke:#595959;stroke-width:1.0;"/><polygon fill="#595959" points="191.75,285.788,195.75,276.788,191.75,280.788,187.75,276.788,191.75,285.788" style="stroke:#595959;stroke-width:1.0;"/><line style="stroke:#595959;stroke-width:1.0;" x1="191.75" x2="191.75" y1="280.788" y2="272.788"/><polygon fill="#595959" points="191.75,226.027,187.75,232.027,191.75,238.027,195.75,232.027,191.75,226.027" style="stroke:#595959;stroke-width:1.0;"/><text fill="#000000" font-family="Verdana" font-size="13" lengthAdjust="spacing" textLength="8" x="184.9961" y="274.9585">1</text><text fill="#000000" font-family="Verdana" font-size="13" lengthAdjust="spacing" textLength="76" x="105.2383" y="245.6684">department</text><text fill="#000000" font-family="Verdana" font-size="13" lengthAdjust="spacing" textLength="8" x="139.2383" y="260.8012">1</text></g></g></svg>