<?xml version="1.0" encoding="UTF-8" standalone="no"?><svg xmlns="http://www.w3.org/2000/svg" xmlns:xlink="http://www.w3.org/1999/xlink" contentStyleType="text/css" height="394px" preserveAspectRatio="none" style="width:1077px;height:394px;background:#FFFFFF;" version="1.1" viewBox="0 0 1077 394" width="1077px" zoomAndPan="magnify"><defs/><g><g id="elem_Adult"><rect codeLine="6" fill="#FFFFFF" height="125.4844" id="Adult" rx="2.5" ry="2.5" style="stroke:#000000;stroke-width:1.0;" width="326" x="12" y="12"/><ellipse cx="153.75" cy="26" fill="#FFFFFF" rx="9" ry="9" style="stroke:#000000;stroke-width:1.0;"/><path d="M156.7188,31.6406 Q156.1406,31.9375 155.5,32.0781 Q154.8594,32.2344 154.1563,32.2344 Q151.6563,32.2344 150.3281,30.5938 Q149.0156,28.9375 149.0156,25.8125 Q149.0156,22.6875 150.3281,21.0313 Q151.6563,19.375 154.1563,19.375 Q154.8594,19.375 155.5,19.5313 Q156.1563,19.6875 156.7188,19.9844 L156.7188,22.7031 Q156.0938,22.125 155.5,21.8594 Q154.9063,21.5781 154.2813,21.5781 Q152.9375,21.5781 152.25,22.6563 Q151.5625,23.7188 151.5625,25.8125 Q151.5625,27.9063 152.25,28.9844 Q152.9375,30.0469 154.2813,30.0469 Q154.9063,30.0469 155.5,29.7813 Q156.0938,29.5 156.7188,28.9219 L156.7188,31.6406 Z " fill="#000000"/><text fill="#000000" font-family="Verdana" font-size="14" lengthAdjust="spacing" textLength="35" x="171.25" y="30.8467">Adult</text><line style="stroke:#000000;stroke-width:1.0;" x1="13" x2="337" y1="40" y2="40"/><text fill="#000000" font-family="Verdana" font-size="14" lengthAdjust="spacing" textLength="109" x="18" y="56.9951">obese: boolean</text><text fill="#000000" font-family="Verdana" font-size="14" lengthAdjust="spacing" textLength="178" x="18" y="73.292">reachSchoolAge: boolean</text><line style="stroke:#000000;stroke-width:1.0;" x1="13" x2="337" y1="80.5938" y2="80.5938"/><ellipse cx="23" cy="94.2422" fill="#FFFFFF" rx="3" ry="3" style="stroke:#000000;stroke-width:1.0;"/><text fill="#000000" font-family="Verdana" font-size="14" lengthAdjust="spacing" textLength="302" x="30" y="97.5889">Adult(String, int, double, double, int, int, int):</text><ellipse cx="23" cy="110.5391" fill="#FFFFFF" rx="3" ry="3" style="stroke:#000000;stroke-width:1.0;"/><text fill="#000000" font-family="Verdana" font-size="14" lengthAdjust="spacing" textLength="115" x="30" y="113.8857">printInfo(): String</text><ellipse cx="23" cy="126.8359" fill="#FFFFFF" rx="3" ry="3" style="stroke:#000000;stroke-width:1.0;"/><text fill="#000000" font-family="Verdana" font-size="14" lengthAdjust="spacing" textLength="246" x="30" y="130.1826">calculateMonthlyPensionWage(): int</text></g><g id="elem_Children"><rect codeLine="13" fill="#FFFFFF" height="125.4844" id="Children" rx="2.5" ry="2.5" style="stroke:#000000;stroke-width:1.0;" width="348" x="373" y="12"/><ellipse cx="514.75" cy="26" fill="#FFFFFF" rx="9" ry="9" style="stroke:#000000;stroke-width:1.0;"/><path d="M517.7188,31.6406 Q517.1406,31.9375 516.5,32.0781 Q515.8594,32.2344 515.1563,32.2344 Q512.6563,32.2344 511.3281,30.5938 Q510.0156,28.9375 510.0156,25.8125 Q510.0156,22.6875 511.3281,21.0313 Q512.6563,19.375 515.1563,19.375 Q515.8594,19.375 516.5,19.5313 Q517.1563,19.6875 517.7188,19.9844 L517.7188,22.7031 Q517.0938,22.125 516.5,21.8594 Q515.9063,21.5781 515.2813,21.5781 Q513.9375,21.5781 513.25,22.6563 Q512.5625,23.7188 512.5625,25.8125 Q512.5625,27.9063 513.25,28.9844 Q513.9375,30.0469 515.2813,30.0469 Q515.9063,30.0469 516.5,29.7813 Q517.0938,29.5 517.7188,28.9219 L517.7188,31.6406 Z " fill="#000000"/><text fill="#000000" font-family="Verdana" font-size="14" lengthAdjust="spacing" textLength="57" x="532.25" y="30.8467">Children</text><line style="stroke:#000000;stroke-width:1.0;" x1="374" x2="720" y1="40" y2="40"/><text fill="#000000" font-family="Verdana" font-size="14" lengthAdjust="spacing" textLength="109" x="379" y="56.9951">obese: boolean</text><text fill="#000000" font-family="Verdana" font-size="14" lengthAdjust="spacing" textLength="178" x="379" y="73.292">reachSchoolAge: boolean</text><line style="stroke:#000000;stroke-width:1.0;" x1="374" x2="720" y1="80.5938" y2="80.5938"/><ellipse cx="384" cy="94.2422" fill="#FFFFFF" rx="3" ry="3" style="stroke:#000000;stroke-width:1.0;"/><text fill="#000000" font-family="Verdana" font-size="14" lengthAdjust="spacing" textLength="324" x="391" y="97.5889">Children(String, int, double, double, int, int, int):</text><ellipse cx="384" cy="110.5391" fill="#FFFFFF" rx="3" ry="3" style="stroke:#000000;stroke-width:1.0;"/><text fill="#000000" font-family="Verdana" font-size="14" lengthAdjust="spacing" textLength="246" x="391" y="113.8857">calculateMonthlyPensionWage(): int</text><ellipse cx="384" cy="126.8359" fill="#FFFFFF" rx="3" ry="3" style="stroke:#000000;stroke-width:1.0;"/><text fill="#000000" font-family="Verdana" font-size="14" lengthAdjust="spacing" textLength="115" x="391" y="130.1826">printInfo(): String</text></g><g id="elem_Old"><rect codeLine="20" fill="#FFFFFF" height="125.4844" id="Old" rx="2.5" ry="2.5" style="stroke:#000000;stroke-width:1.0;" width="314" x="756" y="12"/><ellipse cx="897.75" cy="26" fill="#FFFFFF" rx="9" ry="9" style="stroke:#000000;stroke-width:1.0;"/><path d="M900.7188,31.6406 Q900.1406,31.9375 899.5,32.0781 Q898.8594,32.2344 898.1563,32.2344 Q895.6563,32.2344 894.3281,30.5938 Q893.0156,28.9375 893.0156,25.8125 Q893.0156,22.6875 894.3281,21.0313 Q895.6563,19.375 898.1563,19.375 Q898.8594,19.375 899.5,19.5313 Q900.1563,19.6875 900.7188,19.9844 L900.7188,22.7031 Q900.0938,22.125 899.5,21.8594 Q898.9063,21.5781 898.2813,21.5781 Q896.9375,21.5781 896.25,22.6563 Q895.5625,23.7188 895.5625,25.8125 Q895.5625,27.9063 896.25,28.9844 Q896.9375,30.0469 898.2813,30.0469 Q898.9063,30.0469 899.5,29.7813 Q900.0938,29.5 900.7188,28.9219 L900.7188,31.6406 Z " fill="#000000"/><text fill="#000000" font-family="Verdana" font-size="14" lengthAdjust="spacing" textLength="23" x="915.25" y="30.8467">Old</text><line style="stroke:#000000;stroke-width:1.0;" x1="757" x2="1069" y1="40" y2="40"/><text fill="#000000" font-family="Verdana" font-size="14" lengthAdjust="spacing" textLength="109" x="762" y="56.9951">obese: boolean</text><text fill="#000000" font-family="Verdana" font-size="14" lengthAdjust="spacing" textLength="178" x="762" y="73.292">reachSchoolAge: boolean</text><line style="stroke:#000000;stroke-width:1.0;" x1="757" x2="1069" y1="80.5938" y2="80.5938"/><ellipse cx="767" cy="94.2422" fill="#FFFFFF" rx="3" ry="3" style="stroke:#000000;stroke-width:1.0;"/><text fill="#000000" font-family="Verdana" font-size="14" lengthAdjust="spacing" textLength="290" x="774" y="97.5889">Old(String, int, double, double, int, int, int):</text><ellipse cx="767" cy="110.5391" fill="#FFFFFF" rx="3" ry="3" style="stroke:#000000;stroke-width:1.0;"/><text fill="#000000" font-family="Verdana" font-size="14" lengthAdjust="spacing" textLength="246" x="774" y="113.8857">calculateMonthlyPensionWage(): int</text><ellipse cx="767" cy="126.8359" fill="#FFFFFF" rx="3" ry="3" style="stroke:#000000;stroke-width:1.0;"/><text fill="#000000" font-family="Verdana" font-size="14" lengthAdjust="spacing" textLength="115" x="774" y="130.1826">printInfo(): String</text></g><g id="elem_PersonInfo"><rect codeLine="27" fill="#FFFFFF" height="190.6719" id="PersonInfo" rx="2.5" ry="2.5" style="stroke:#000000;stroke-width:1.0;" width="365" x="364.5" y="197"/><ellipse cx="506.25" cy="211" fill="#FFFFFF" rx="9" ry="9" style="stroke:#000000;stroke-width:1.0;"/><path d="M509.2188,216.6406 Q508.6406,216.9375 508,217.0781 Q507.3594,217.2344 506.6563,217.2344 Q504.1563,217.2344 502.8281,215.5938 Q501.5156,213.9375 501.5156,210.8125 Q501.5156,207.6875 502.8281,206.0313 Q504.1563,204.375 506.6563,204.375 Q507.3594,204.375 508,204.5313 Q508.6563,204.6875 509.2188,204.9844 L509.2188,207.7031 Q508.5938,207.125 508,206.8594 Q507.4063,206.5781 506.7813,206.5781 Q505.4375,206.5781 504.75,207.6563 Q504.0625,208.7188 504.0625,210.8125 Q504.0625,212.9063 504.75,213.9844 Q505.4375,215.0469 506.7813,215.0469 Q507.4063,215.0469 508,214.7813 Q508.5938,214.5 509.2188,213.9219 L509.2188,216.6406 Z " fill="#000000"/><text fill="#000000" font-family="Verdana" font-size="14" lengthAdjust="spacing" textLength="74" x="523.75" y="215.8467">PersonInfo</text><line style="stroke:#000000;stroke-width:1.0;" x1="365.5" x2="728.5" y1="225" y2="225"/><text fill="#000000" font-family="Verdana" font-size="14" lengthAdjust="spacing" textLength="214" x="370.5" y="241.9951">commutingTimeEveryWeek: int</text><text fill="#000000" font-family="Verdana" font-size="14" lengthAdjust="spacing" textLength="106" x="370.5" y="258.292">childInfo: String</text><text fill="#000000" font-family="Verdana" font-size="14" lengthAdjust="spacing" textLength="178" x="370.5" y="274.5889">reachSchoolAge: boolean</text><text fill="#000000" font-family="Verdana" font-size="14" lengthAdjust="spacing" textLength="109" x="370.5" y="290.8857">obese: boolean</text><text fill="#000000" font-family="Verdana" font-size="14" lengthAdjust="spacing" textLength="95" x="370.5" y="307.1826">oldInfo: String</text><text fill="#000000" font-family="Verdana" font-size="14" lengthAdjust="spacing" textLength="108" x="370.5" y="323.4795">adultInfo: String</text><line style="stroke:#000000;stroke-width:1.0;" x1="365.5" x2="728.5" y1="330.7813" y2="330.7813"/><ellipse cx="375.5" cy="344.4297" fill="#FFFFFF" rx="3" ry="3" style="stroke:#000000;stroke-width:1.0;"/><text fill="#000000" font-family="Verdana" font-size="14" lengthAdjust="spacing" textLength="341" x="382.5" y="347.7764">PersonInfo(String, int, double, double, int, int, int):</text><ellipse cx="375.5" cy="360.7266" fill="#FFFFFF" rx="3" ry="3" style="stroke:#000000;stroke-width:1.0;"/><text fill="#000000" font-family="Verdana" font-size="14" lengthAdjust="spacing" textLength="115" x="382.5" y="364.0732">printInfo(): String</text><ellipse cx="375.5" cy="377.0234" fill="#FFFFFF" rx="3" ry="3" style="stroke:#000000;stroke-width:1.0;"/><text fill="#000000" font-family="Verdana" font-size="14" lengthAdjust="spacing" textLength="246" x="382.5" y="380.3701">calculateMonthlyPensionWage(): int</text></g><g id="link_Adult_PersonInfo"><path codeLine="39" d="M338.05,75 C356.451,75 368.75,75 368.75,75 C368.75,75 368.75,176.785 368.75,176.785 " fill="none" id="Adult-to-PersonInfo" style="stroke:#000082;stroke-width:1.0;"/><polygon fill="none" points="375.75,176.785,368.75,196.785,361.75,176.785,375.75,176.785" style="stroke:#000082;stroke-width:1.0;"/></g><g id="link_Children_PersonInfo"><path codeLine="40" d="M547,137.262 C547,137.262 547,176.904 547,176.904 " fill="none" id="Children-to-PersonInfo" style="stroke:#000082;stroke-width:1.0;"/><polygon fill="none" points="554,176.904,547,196.904,540,176.904,554,176.904" style="stroke:#000082;stroke-width:1.0;"/></g><g id="link_Old_PersonInfo"><path codeLine="41" d="M755.833,75 C737.541,75 725.25,75 725.25,75 C725.25,75 725.25,176.785 725.25,176.785 " fill="none" id="Old-to-PersonInfo" style="stroke:#000082;stroke-width:1.0;"/><polygon fill="none" points="732.25,176.785,725.25,196.785,718.25,176.785,732.25,176.785" style="stroke:#000082;stroke-width:1.0;"/></g></g></svg>