<?xml version="1.0" encoding="UTF-8" standalone="no"?><svg xmlns="http://www.w3.org/2000/svg" xmlns:xlink="http://www.w3.org/1999/xlink" contentStyleType="text/css" height="629px" preserveAspectRatio="none" style="width:626px;height:629px;background:#FFFFFF;" version="1.1" viewBox="0 0 626 629" width="626px" zoomAndPan="magnify"><defs/><g><g id="elem_Audit"><rect codeLine="6" fill="#FFFFFF" height="76.5938" id="Audit" rx="2.5" ry="2.5" style="stroke:#000000;stroke-width:1.0;" width="295" x="12" y="12"/><ellipse cx="138.25" cy="26" fill="#FFFFFF" rx="9" ry="9" style="stroke:#000000;stroke-width:1.0;"/><path d="M141.2188,31.6406 Q140.6406,31.9375 140,32.0781 Q139.3594,32.2344 138.6563,32.2344 Q136.1563,32.2344 134.8281,30.5938 Q133.5156,28.9375 133.5156,25.8125 Q133.5156,22.6875 134.8281,21.0313 Q136.1563,19.375 138.6563,19.375 Q139.3594,19.375 140,19.5313 Q140.6563,19.6875 141.2188,19.9844 L141.2188,22.7031 Q140.5938,22.125 140,21.8594 Q139.4063,21.5781 138.7813,21.5781 Q137.4375,21.5781 136.75,22.6563 Q136.0625,23.7188 136.0625,25.8125 Q136.0625,27.9063 136.75,28.9844 Q137.4375,30.0469 138.7813,30.0469 Q139.4063,30.0469 140,29.7813 Q140.5938,29.5 141.2188,28.9219 L141.2188,31.6406 Z " fill="#000000"/><text fill="#000000" font-family="Verdana" font-size="14" lengthAdjust="spacing" textLength="35" x="155.75" y="30.8467">Audit</text><line style="stroke:#000000;stroke-width:1.0;" x1="13" x2="306" y1="40" y2="40"/><line style="stroke:#000000;stroke-width:1.0;" x1="13" x2="306" y1="48" y2="48"/><ellipse cx="23" cy="61.6484" fill="#FFFFFF" rx="3" ry="3" style="stroke:#000000;stroke-width:1.0;"/><text fill="#000000" font-family="Verdana" font-size="14" lengthAdjust="spacing" textLength="50" x="30" y="64.9951">Audit():</text><ellipse cx="23" cy="77.9453" fill="#FFFFFF" rx="3" ry="3" style="stroke:#000000;stroke-width:1.0;"/><text fill="#000000" font-family="Verdana" font-size="14" lengthAdjust="spacing" textLength="271" x="30" y="81.292">auditGenderRatio(Department): double</text></g><g id="elem_Department"><rect codeLine="10" fill="#FFFFFF" height="223.2656" id="Department" rx="2.5" ry="2.5" style="stroke:#000000;stroke-width:1.0;" width="277" x="150" y="149"/><ellipse cx="243.25" cy="163" fill="#FFFFFF" rx="9" ry="9" style="stroke:#000000;stroke-width:1.0;"/><path d="M246.2188,168.6406 Q245.6406,168.9375 245,169.0781 Q244.3594,169.2344 243.6563,169.2344 Q241.1563,169.2344 239.8281,167.5938 Q238.5156,165.9375 238.5156,162.8125 Q238.5156,159.6875 239.8281,158.0313 Q241.1563,156.375 243.6563,156.375 Q244.3594,156.375 245,156.5313 Q245.6563,156.6875 246.2188,156.9844 L246.2188,159.7031 Q245.5938,159.125 245,158.8594 Q244.4063,158.5781 243.7813,158.5781 Q242.4375,158.5781 241.75,159.6563 Q241.0625,160.7188 241.0625,162.8125 Q241.0625,164.9063 241.75,165.9844 Q242.4375,167.0469 243.7813,167.0469 Q244.4063,167.0469 245,166.7813 Q245.5938,166.5 246.2188,165.9219 L246.2188,168.6406 Z " fill="#000000"/><text fill="#000000" font-family="Verdana" font-size="14" lengthAdjust="spacing" textLength="83" x="260.75" y="167.8467">Department</text><line style="stroke:#000000;stroke-width:1.0;" x1="151" x2="426" y1="177" y2="177"/><rect fill="none" height="6" style="stroke:#000000;stroke-width:1.0;" width="6" x="158" y="187.6484"/><text fill="#000000" font-family="Verdana" font-size="14" lengthAdjust="spacing" textLength="88" x="168" y="193.9951">name: String</text><rect fill="none" height="6" style="stroke:#000000;stroke-width:1.0;" width="6" x="158" y="203.9453"/><text fill="#000000" font-family="Verdana" font-size="14" lengthAdjust="spacing" textLength="123" x="168" y="210.292">staffs: List&lt;Staff&gt;</text><rect fill="none" height="6" style="stroke:#000000;stroke-width:1.0;" width="6" x="158" y="220.2422"/><text fill="#000000" font-family="Verdana" font-size="14" lengthAdjust="spacing" textLength="104" x="168" y="226.5889">minister: String</text><text fill="#000000" font-family="Verdana" font-size="14" lengthAdjust="spacing" textLength="88" x="168" y="242.8857">name: String</text><text fill="#000000" font-family="Verdana" font-size="14" lengthAdjust="spacing" textLength="104" x="168" y="259.1826">minister: String</text><text fill="#000000" font-family="Verdana" font-size="14" lengthAdjust="spacing" textLength="123" x="168" y="275.4795">staffs: List&lt;Staff&gt;</text><line style="stroke:#000000;stroke-width:1.0;" x1="151" x2="426" y1="282.7813" y2="282.7813"/><ellipse cx="161" cy="296.4297" fill="#FFFFFF" rx="3" ry="3" style="stroke:#000000;stroke-width:1.0;"/><text fill="#000000" font-family="Verdana" font-size="14" lengthAdjust="spacing" textLength="186" x="168" y="299.7764">Department(String, String):</text><ellipse cx="161" cy="312.7266" fill="#FFFFFF" rx="3" ry="3" style="stroke:#000000;stroke-width:1.0;"/><text fill="#000000" font-family="Verdana" font-size="14" lengthAdjust="spacing" textLength="151" x="168" y="316.0732">deleteStaff(Staff): void</text><ellipse cx="161" cy="329.0234" fill="#FFFFFF" rx="3" ry="3" style="stroke:#000000;stroke-width:1.0;"/><text fill="#000000" font-family="Verdana" font-size="14" lengthAdjust="spacing" textLength="133" x="168" y="332.3701">addStaff(Staff): void</text><ellipse cx="161" cy="345.3203" fill="#FFFFFF" rx="3" ry="3" style="stroke:#000000;stroke-width:1.0;"/><text fill="#000000" font-family="Verdana" font-size="14" lengthAdjust="spacing" textLength="253" x="168" y="348.667">getStaffNumOfGender(Gender): long</text><ellipse cx="161" cy="361.6172" fill="#FFFFFF" rx="3" ry="3" style="stroke:#000000;stroke-width:1.0;"/><text fill="#000000" font-family="Verdana" font-size="14" lengthAdjust="spacing" textLength="180" x="168" y="364.9639">addStaff(List&lt;Staff&gt;): void</text></g><g id="elem_Hrbp"><rect codeLine="23" fill="#FFFFFF" height="76.5938" id="Hrbp" rx="2.5" ry="2.5" style="stroke:#000000;stroke-width:1.0;" width="277" x="342" y="12"/><ellipse cx="460.25" cy="26" fill="#FFFFFF" rx="9" ry="9" style="stroke:#000000;stroke-width:1.0;"/><path d="M463.2188,31.6406 Q462.6406,31.9375 462,32.0781 Q461.3594,32.2344 460.6563,32.2344 Q458.1563,32.2344 456.8281,30.5938 Q455.5156,28.9375 455.5156,25.8125 Q455.5156,22.6875 456.8281,21.0313 Q458.1563,19.375 460.6563,19.375 Q461.3594,19.375 462,19.5313 Q462.6563,19.6875 463.2188,19.9844 L463.2188,22.7031 Q462.5938,22.125 462,21.8594 Q461.4063,21.5781 460.7813,21.5781 Q459.4375,21.5781 458.75,22.6563 Q458.0625,23.7188 458.0625,25.8125 Q458.0625,27.9063 458.75,28.9844 Q459.4375,30.0469 460.7813,30.0469 Q461.4063,30.0469 462,29.7813 Q462.5938,29.5 463.2188,28.9219 L463.2188,31.6406 Z " fill="#000000"/><text fill="#000000" font-family="Verdana" font-size="14" lengthAdjust="spacing" textLength="33" x="477.75" y="30.8467">Hrbp</text><line style="stroke:#000000;stroke-width:1.0;" x1="343" x2="618" y1="40" y2="40"/><line style="stroke:#000000;stroke-width:1.0;" x1="343" x2="618" y1="48" y2="48"/><ellipse cx="353" cy="61.6484" fill="#FFFFFF" rx="3" ry="3" style="stroke:#000000;stroke-width:1.0;"/><text fill="#000000" font-family="Verdana" font-size="14" lengthAdjust="spacing" textLength="178" x="360" y="64.9951">Hrbp(List&lt;Department&gt;):</text><ellipse cx="353" cy="77.9453" fill="#FFFFFF" rx="3" ry="3" style="stroke:#000000;stroke-width:1.0;"/><text fill="#000000" font-family="Verdana" font-size="14" lengthAdjust="spacing" textLength="253" x="360" y="81.292">getStaffNumOfGender(Gender): long</text></g><g id="elem_Staff"><rect codeLine="27" fill="#FFFFFF" height="190.6719" id="Staff" rx="2.5" ry="2.5" style="stroke:#000000;stroke-width:1.0;" width="242" x="263.5" y="432"/><ellipse cx="365.75" cy="446" fill="#FFFFFF" rx="9" ry="9" style="stroke:#000000;stroke-width:1.0;"/><path d="M368.7188,451.6406 Q368.1406,451.9375 367.5,452.0781 Q366.8594,452.2344 366.1563,452.2344 Q363.6563,452.2344 362.3281,450.5938 Q361.0156,448.9375 361.0156,445.8125 Q361.0156,442.6875 362.3281,441.0313 Q363.6563,439.375 366.1563,439.375 Q366.8594,439.375 367.5,439.5313 Q368.1563,439.6875 368.7188,439.9844 L368.7188,442.7031 Q368.0938,442.125 367.5,441.8594 Q366.9063,441.5781 366.2813,441.5781 Q364.9375,441.5781 364.25,442.6563 Q363.5625,443.7188 363.5625,445.8125 Q363.5625,447.9063 364.25,448.9844 Q364.9375,450.0469 366.2813,450.0469 Q366.9063,450.0469 367.5,449.7813 Q368.0938,449.5 368.7188,448.9219 L368.7188,451.6406 Z " fill="#000000"/><text fill="#000000" font-family="Verdana" font-size="14" lengthAdjust="spacing" textLength="30" x="383.25" y="450.8467">Staff</text><line style="stroke:#000000;stroke-width:1.0;" x1="264.5" x2="504.5" y1="460" y2="460"/><rect fill="none" height="6" style="stroke:#000000;stroke-width:1.0;" width="6" x="271.5" y="470.6484"/><text fill="#000000" font-family="Verdana" font-size="14" lengthAdjust="spacing" textLength="52" x="281.5" y="476.9951">age: int</text><rect fill="none" height="6" style="stroke:#000000;stroke-width:1.0;" width="6" x="271.5" y="486.9453"/><text fill="#000000" font-family="Verdana" font-size="14" lengthAdjust="spacing" textLength="88" x="281.5" y="493.292">name: String</text><rect fill="none" height="6" style="stroke:#000000;stroke-width:1.0;" width="6" x="271.5" y="503.2422"/><text fill="#000000" font-family="Verdana" font-size="14" lengthAdjust="spacing" textLength="170" x="281.5" y="509.5889">departmentName: String</text><rect fill="none" height="6" style="stroke:#000000;stroke-width:1.0;" width="6" x="271.5" y="519.5391"/><text fill="#000000" font-family="Verdana" font-size="14" lengthAdjust="spacing" textLength="111" x="281.5" y="525.8857">gender: Gender</text><text fill="#000000" font-family="Verdana" font-size="14" lengthAdjust="spacing" textLength="170" x="281.5" y="542.1826">departmentName: String</text><text fill="#000000" font-family="Verdana" font-size="14" lengthAdjust="spacing" textLength="88" x="281.5" y="558.4795">name: String</text><text fill="#000000" font-family="Verdana" font-size="14" lengthAdjust="spacing" textLength="111" x="281.5" y="574.7764">gender: Gender</text><text fill="#000000" font-family="Verdana" font-size="14" lengthAdjust="spacing" textLength="52" x="281.5" y="591.0732">age: int</text><line style="stroke:#000000;stroke-width:1.0;" x1="264.5" x2="504.5" y1="598.375" y2="598.375"/><ellipse cx="274.5" cy="612.0234" fill="#FFFFFF" rx="3" ry="3" style="stroke:#000000;stroke-width:1.0;"/><text fill="#000000" font-family="Verdana" font-size="14" lengthAdjust="spacing" textLength="218" x="281.5" y="615.3701">Staff(String, Gender, int, String):</text></g><g id="link_Audit_Department"><path codeLine="39" d="M228.5,89.017 C228.5,89.017 228.5,143.952 228.5,143.952 " fill="none" id="Audit-to-Department" style="stroke:#595959;stroke-width:1.0;stroke-dasharray:7.0,7.0;"/><polygon fill="#595959" points="228.5,148.952,232.5,139.952,228.5,143.952,224.5,139.952,228.5,148.952" style="stroke:#595959;stroke-width:1.0;"/></g><g id="link_Department_Staff"><path codeLine="40" d="M345.25,384.185 C345.25,384.185 345.25,418.938 345.25,418.938 " fill="none" id="Department-Staff" style="stroke:#595959;stroke-width:1.0;"/><polygon fill="#595959" points="345.25,431.938,349.25,422.938,345.25,426.938,341.25,422.938,345.25,431.938" style="stroke:#595959;stroke-width:1.0;"/><line style="stroke:#595959;stroke-width:1.0;" x1="345.25" x2="345.25" y1="426.938" y2="418.938"/><polygon fill="#595959" points="345.25,372.185,341.25,378.185,345.25,384.185,349.25,378.185,345.25,372.185" style="stroke:#595959;stroke-width:1.0;"/><text fill="#000000" font-family="Verdana" font-size="13" lengthAdjust="spacing" textLength="8" x="333.8035" y="420.8105">1</text><text fill="#000000" font-family="Verdana" font-size="13" lengthAdjust="spacing" textLength="35" x="312.7645" y="392.3677">staffs</text><text fill="#000000" font-family="Verdana" font-size="13" lengthAdjust="spacing" textLength="7" x="326.7645" y="407.5005">*</text></g><g id="link_Hrbp_Department"><path codeLine="41" d="M384.5,101.017 C384.5,101.017 384.5,135.952 384.5,135.952 " fill="none" id="Hrbp-Department" style="stroke:#595959;stroke-width:1.0;"/><polygon fill="#595959" points="384.5,148.952,388.5,139.952,384.5,143.952,380.5,139.952,384.5,148.952" style="stroke:#595959;stroke-width:1.0;"/><line style="stroke:#595959;stroke-width:1.0;" x1="384.5" x2="384.5" y1="143.952" y2="135.9525"/><polygon fill="#595959" points="384.5,89.017,380.5,95.017,384.5,101.017,388.5,95.017,384.5,89.017" style="stroke:#595959;stroke-width:1.0;"/><text fill="#000000" font-family="Verdana" font-size="13" lengthAdjust="spacing" textLength="8" x="382.6813" y="138.0159">1</text><text fill="#000000" font-family="Verdana" font-size="13" lengthAdjust="spacing" textLength="83" x="307.0305" y="108.742">departments</text><text fill="#000000" font-family="Verdana" font-size="13" lengthAdjust="spacing" textLength="7" x="345.0305" y="123.8748">*</text></g><g id="link_Hrbp_Staff"><path codeLine="42" d="M466.25,89.131 C466.25,89.131 466.25,426.778 466.25,426.778 " fill="none" id="Hrbp-to-Staff" style="stroke:#595959;stroke-width:1.0;stroke-dasharray:7.0,7.0;"/><polygon fill="#595959" points="466.25,431.778,470.25,422.778,466.25,426.778,462.25,422.778,466.25,431.778" style="stroke:#595959;stroke-width:1.0;"/></g></g></svg>