<?xml version="1.0" encoding="UTF-8" standalone="no"?><svg xmlns="http://www.w3.org/2000/svg" xmlns:xlink="http://www.w3.org/1999/xlink" contentStyleType="text/css" height="729px" preserveAspectRatio="none" style="width:603px;height:729px;background:#FFFFFF;" version="1.1" viewBox="0 0 603 729" width="603px" zoomAndPan="magnify"><defs/><g><g id="elem_Currency"><rect codeLine="6" fill="#FFFFFF" height="154.0469" id="Currency" rx="2.5" ry="2.5" style="stroke:#000000;stroke-width:1.0;" width="333" x="99.5" y="568"/><ellipse cx="217.25" cy="588.1328" fill="#FFFFFF" rx="9" ry="9" style="stroke:#000000;stroke-width:1.0;"/><path d="M221.3594,594.1328 L213.6406,594.1328 L213.6406,581.7422 L221.3594,581.7422 L221.3594,583.8984 L216.0938,583.8984 L216.0938,586.5703 L220.8594,586.5703 L220.8594,588.7266 L216.0938,588.7266 L216.0938,591.9766 L221.3594,591.9766 L221.3594,594.1328 Z " fill="#000000"/><text fill="#000000" font-family="Verdana" font-size="12" font-style="italic" lengthAdjust="spacing" textLength="94" x="232.75" y="584.1387">«enumeration»</text><text fill="#000000" font-family="Verdana" font-size="14" lengthAdjust="spacing" textLength="62" x="248.75" y="599.9639">Currency</text><line style="stroke:#000000;stroke-width:1.0;" x1="100.5" x2="431.5" y1="608.2656" y2="608.2656"/><text fill="#000000" font-family="Verdana" font-size="14" lengthAdjust="spacing" textLength="321" x="105.5" y="625.2607">currencyDoubleMap: Map&lt;Currency, Double&gt;</text><text fill="#000000" font-family="Verdana" font-size="14" lengthAdjust="spacing" textLength="137" x="105.5" y="641.5576">supported: boolean</text><line style="stroke:#000000;stroke-width:1.0;" x1="100.5" x2="431.5" y1="648.8594" y2="648.8594"/><ellipse cx="110.5" cy="662.5078" fill="#FFFFFF" rx="3" ry="3" style="stroke:#000000;stroke-width:1.0;"/><text fill="#000000" font-family="Verdana" font-size="14" lengthAdjust="spacing" textLength="172" x="117.5" y="665.8545">valueOf(String): Currency</text><ellipse cx="110.5" cy="678.8047" fill="#FFFFFF" rx="3" ry="3" style="stroke:#000000;stroke-width:1.0;"/><text fill="#000000" font-family="Verdana" font-size="14" lengthAdjust="spacing" textLength="135" x="117.5" y="682.1514">values(): Currency[]</text><rect fill="#FFFFFF" height="6" style="stroke:#000000;stroke-width:1.0;" width="6" x="107.5" y="692.1016"/><text fill="#000000" font-family="Verdana" font-size="14" lengthAdjust="spacing" textLength="211" x="117.5" y="698.4482">exchangeRateToCny(): double</text><ellipse cx="110.5" cy="711.3984" fill="#FFFFFF" rx="3" ry="3" style="stroke:#000000;stroke-width:1.0;"/><text fill="#000000" font-family="Verdana" font-size="14" lengthAdjust="spacing" textLength="229" x="117.5" y="714.7451">exchangeRate(Currency): double</text></g><g id="elem_Employee"><rect codeLine="14" fill="#FFFFFF" height="92.8906" id="Employee" rx="2.5" ry="2.5" style="stroke:#000000;stroke-width:1.0;" width="106" x="12" y="229.5"/><ellipse cx="29.5" cy="243.5" fill="#FFFFFF" rx="9" ry="9" style="stroke:#000000;stroke-width:1.0;"/><path d="M32.4688,249.1406 Q31.8906,249.4375 31.25,249.5781 Q30.6094,249.7344 29.9063,249.7344 Q27.4063,249.7344 26.0781,248.0938 Q24.7656,246.4375 24.7656,243.3125 Q24.7656,240.1875 26.0781,238.5313 Q27.4063,236.875 29.9063,236.875 Q30.6094,236.875 31.25,237.0313 Q31.9063,237.1875 32.4688,237.4844 L32.4688,240.2031 Q31.8438,239.625 31.25,239.3594 Q30.6563,239.0781 30.0313,239.0781 Q28.6875,239.0781 28,240.1563 Q27.3125,241.2188 27.3125,243.3125 Q27.3125,245.4063 28,246.4844 Q28.6875,247.5469 30.0313,247.5469 Q30.6563,247.5469 31.25,247.2813 Q31.8438,247 32.4688,246.4219 L32.4688,249.1406 Z " fill="#000000"/><text fill="#000000" font-family="Verdana" font-size="14" lengthAdjust="spacing" textLength="68" x="42.5" y="248.3467">Employee</text><line style="stroke:#000000;stroke-width:1.0;" x1="13" x2="117" y1="257.5" y2="257.5"/><text fill="#000000" font-family="Verdana" font-size="14" lengthAdjust="spacing" textLength="88" x="18" y="274.4951">name: String</text><text fill="#000000" font-family="Verdana" font-size="14" lengthAdjust="spacing" textLength="38" x="18" y="290.792">id: int</text><text fill="#000000" font-family="Verdana" font-size="14" lengthAdjust="spacing" textLength="94" x="18" y="307.0889">salary: Money</text><line style="stroke:#000000;stroke-width:1.0;" x1="13" x2="117" y1="314.3906" y2="314.3906"/></g><g id="elem_Money"><rect codeLine="19" fill="#FFFFFF" height="92.8906" id="Money" rx="2.5" ry="2.5" style="stroke:#000000;stroke-width:1.0;" width="161" x="37.5" y="415"/><ellipse cx="91.25" cy="429" fill="#FFFFFF" rx="9" ry="9" style="stroke:#000000;stroke-width:1.0;"/><path d="M94.2188,434.6406 Q93.6406,434.9375 93,435.0781 Q92.3594,435.2344 91.6563,435.2344 Q89.1563,435.2344 87.8281,433.5938 Q86.5156,431.9375 86.5156,428.8125 Q86.5156,425.6875 87.8281,424.0313 Q89.1563,422.375 91.6563,422.375 Q92.3594,422.375 93,422.5313 Q93.6563,422.6875 94.2188,422.9844 L94.2188,425.7031 Q93.5938,425.125 93,424.8594 Q92.4063,424.5781 91.7813,424.5781 Q90.4375,424.5781 89.75,425.6563 Q89.0625,426.7188 89.0625,428.8125 Q89.0625,430.9063 89.75,431.9844 Q90.4375,433.0469 91.7813,433.0469 Q92.4063,433.0469 93,432.7813 Q93.5938,432.5 94.2188,431.9219 L94.2188,434.6406 Z " fill="#000000"/><text fill="#000000" font-family="Verdana" font-size="14" lengthAdjust="spacing" textLength="46" x="108.75" y="433.8467">Money</text><line style="stroke:#000000;stroke-width:1.0;" x1="38.5" x2="197.5" y1="443" y2="443"/><text fill="#000000" font-family="Verdana" font-size="14" lengthAdjust="spacing" textLength="131" x="43.5" y="459.9951">currency: Currency</text><text fill="#000000" font-family="Verdana" font-size="14" lengthAdjust="spacing" textLength="110" x="43.5" y="476.292">amount: double</text><line style="stroke:#000000;stroke-width:1.0;" x1="38.5" x2="197.5" y1="483.5938" y2="483.5938"/><ellipse cx="48.5" cy="497.2422" fill="#FFFFFF" rx="3" ry="3" style="stroke:#000000;stroke-width:1.0;"/><text fill="#000000" font-family="Verdana" font-size="14" lengthAdjust="spacing" textLength="137" x="55.5" y="500.5889">add(Money): Money</text></g><g id="elem_PaySlip"><rect codeLine="24" fill="#FFFFFF" height="158.0781" id="PaySlip" rx="2.5" ry="2.5" style="stroke:#000000;stroke-width:1.0;" width="182" x="224" y="197"/><ellipse cx="287.25" cy="211" fill="#FFFFFF" rx="9" ry="9" style="stroke:#000000;stroke-width:1.0;"/><path d="M290.2188,216.6406 Q289.6406,216.9375 289,217.0781 Q288.3594,217.2344 287.6563,217.2344 Q285.1563,217.2344 283.8281,215.5938 Q282.5156,213.9375 282.5156,210.8125 Q282.5156,207.6875 283.8281,206.0313 Q285.1563,204.375 287.6563,204.375 Q288.3594,204.375 289,204.5313 Q289.6563,204.6875 290.2188,204.9844 L290.2188,207.7031 Q289.5938,207.125 289,206.8594 Q288.4063,206.5781 287.7813,206.5781 Q286.4375,206.5781 285.75,207.6563 Q285.0625,208.7188 285.0625,210.8125 Q285.0625,212.9063 285.75,213.9844 Q286.4375,215.0469 287.7813,215.0469 Q288.4063,215.0469 289,214.7813 Q289.5938,214.5 290.2188,213.9219 L290.2188,216.6406 Z " fill="#000000"/><text fill="#000000" font-family="Verdana" font-size="14" lengthAdjust="spacing" textLength="48" x="304.75" y="215.8467">PaySlip</text><line style="stroke:#000000;stroke-width:1.0;" x1="225" x2="405" y1="225" y2="225"/><text fill="#000000" font-family="Verdana" font-size="14" lengthAdjust="spacing" textLength="125" x="230" y="241.9951">insurance: double</text><text fill="#000000" font-family="Verdana" font-size="14" lengthAdjust="spacing" textLength="122" x="230" y="258.292">actualPay: double</text><text fill="#000000" font-family="Verdana" font-size="14" lengthAdjust="spacing" textLength="106" x="230" y="274.5889">employeeId: int</text><text fill="#000000" font-family="Verdana" font-size="14" lengthAdjust="spacing" textLength="77" x="230" y="290.8857">tax: double</text><text fill="#000000" font-family="Verdana" font-size="14" lengthAdjust="spacing" textLength="115" x="230" y="307.1826">basePay: double</text><line style="stroke:#000000;stroke-width:1.0;" x1="225" x2="405" y1="314.4844" y2="314.4844"/><ellipse cx="235" cy="328.1328" fill="#FFFFFF" rx="3" ry="3" style="stroke:#000000;stroke-width:1.0;"/><text fill="#000000" font-family="Verdana" font-size="14" lengthAdjust="spacing" textLength="105" x="242" y="331.4795">clone(): PaySlip</text><ellipse cx="235" cy="344.4297" fill="#FFFFFF" rx="3" ry="3" style="stroke:#000000;stroke-width:1.0;"/><text fill="#000000" font-family="Verdana" font-size="14" lengthAdjust="spacing" textLength="158" x="242" y="347.7764">enrichPaySlip(): PaySlip</text></g><g id="elem_RateService"><rect codeLine="33" fill="#FFFFFF" height="92.8906" id="RateService" rx="2.5" ry="2.5" style="stroke:#000000;stroke-width:1.0;" width="362" x="234" y="415"/><ellipse cx="370.25" cy="429" fill="#FFFFFF" rx="9" ry="9" style="stroke:#000000;stroke-width:1.0;"/><path d="M373.2188,434.6406 Q372.6406,434.9375 372,435.0781 Q371.3594,435.2344 370.6563,435.2344 Q368.1563,435.2344 366.8281,433.5938 Q365.5156,431.9375 365.5156,428.8125 Q365.5156,425.6875 366.8281,424.0313 Q368.1563,422.375 370.6563,422.375 Q371.3594,422.375 372,422.5313 Q372.6563,422.6875 373.2188,422.9844 L373.2188,425.7031 Q372.5938,425.125 372,424.8594 Q371.4063,424.5781 370.7813,424.5781 Q369.4375,424.5781 368.75,425.6563 Q368.0625,426.7188 368.0625,428.8125 Q368.0625,430.9063 368.75,431.9844 Q369.4375,433.0469 370.7813,433.0469 Q371.4063,433.0469 372,432.7813 Q372.5938,432.5 373.2188,431.9219 L373.2188,434.6406 Z " fill="#000000"/><text fill="#000000" font-family="Verdana" font-size="14" lengthAdjust="spacing" textLength="82" x="387.75" y="433.8467">RateService</text><line style="stroke:#000000;stroke-width:1.0;" x1="235" x2="595" y1="443" y2="443"/><line style="stroke:#000000;stroke-width:1.0;" x1="235" x2="595" y1="451" y2="451"/><ellipse cx="245" cy="464.6484" fill="#FFFFFF" rx="3" ry="3" style="stroke:#000000;stroke-width:1.0;"/><text fill="#000000" font-family="Verdana" font-size="14" lengthAdjust="spacing" textLength="338" x="252" y="467.9951">queryExchangeRate(Currency, Currency): double</text><rect fill="#FFFFFF" height="6" style="stroke:#000000;stroke-width:1.0;" width="6" x="242" y="477.9453"/><text fill="#000000" font-family="Verdana" font-size="14" lengthAdjust="spacing" textLength="301" x="252" y="484.292">doSomeBusiness(Currency, Currency): void</text><ellipse cx="245" cy="497.2422" fill="#FFFFFF" rx="3" ry="3" style="stroke:#000000;stroke-width:1.0;"/><text fill="#000000" font-family="Verdana" font-size="14" lengthAdjust="spacing" textLength="330" x="252" y="500.5889">queryAllRatesToCny(): Map&lt;Currency, Double&gt;</text></g><g id="elem_SalaryService"><rect codeLine="38" fill="#FFFFFF" height="125.4844" id="SalaryService" rx="2.5" ry="2.5" style="stroke:#000000;stroke-width:1.0;" width="302" x="20" y="12"/><ellipse cx="122.25" cy="26" fill="#FFFFFF" rx="9" ry="9" style="stroke:#000000;stroke-width:1.0;"/><path d="M125.2188,31.6406 Q124.6406,31.9375 124,32.0781 Q123.3594,32.2344 122.6563,32.2344 Q120.1563,32.2344 118.8281,30.5938 Q117.5156,28.9375 117.5156,25.8125 Q117.5156,22.6875 118.8281,21.0313 Q120.1563,19.375 122.6563,19.375 Q123.3594,19.375 124,19.5313 Q124.6563,19.6875 125.2188,19.9844 L125.2188,22.7031 Q124.5938,22.125 124,21.8594 Q123.4063,21.5781 122.7813,21.5781 Q121.4375,21.5781 120.75,22.6563 Q120.0625,23.7188 120.0625,25.8125 Q120.0625,27.9063 120.75,28.9844 Q121.4375,30.0469 122.7813,30.0469 Q123.4063,30.0469 124,29.7813 Q124.5938,29.5 125.2188,28.9219 L125.2188,31.6406 Z " fill="#000000"/><text fill="#000000" font-family="Verdana" font-size="14" lengthAdjust="spacing" textLength="90" x="139.75" y="30.8467">SalaryService</text><line style="stroke:#000000;stroke-width:1.0;" x1="21" x2="321" y1="40" y2="40"/><line style="stroke:#000000;stroke-width:1.0;" x1="21" x2="321" y1="48" y2="48"/><ellipse cx="31" cy="61.6484" fill="#FFFFFF" rx="3" ry="3" style="stroke:#000000;stroke-width:1.0;"/><text fill="#000000" font-family="Verdana" font-size="14" lengthAdjust="spacing" textLength="226" x="38" y="64.9951">raisePay(Employee, Money): void</text><rect fill="#FFFFFF" height="6" style="stroke:#000000;stroke-width:1.0;" width="6" x="28" y="74.9453"/><text fill="#000000" font-family="Verdana" font-size="14" lengthAdjust="spacing" textLength="271" x="38" y="81.292">doSomeCheck(Employee, Money): void</text><rect fill="#FFFFFF" height="6" style="stroke:#000000;stroke-width:1.0;" width="6" x="28" y="91.2422"/><text fill="#000000" font-family="Verdana" font-size="14" lengthAdjust="spacing" textLength="202" x="38" y="97.5889">raise(Employee, Money): void</text><rect fill="#FFFFFF" height="6" style="stroke:#000000;stroke-width:1.0;" width="6" x="28" y="107.5391"/><text fill="#000000" font-family="Verdana" font-size="14" lengthAdjust="spacing" textLength="223" x="38" y="113.8857">doSomeRecord(Employee): void</text><ellipse cx="31" cy="126.8359" fill="#FFFFFF" rx="3" ry="3" style="stroke:#000000;stroke-width:1.0;"/><text fill="#000000" font-family="Verdana" font-size="14" lengthAdjust="spacing" textLength="278" x="38" y="130.1826">calculateDetailOfPaySlip(PaySlip): PaySlip</text></g><g id="link_Employee_Money"><path codeLine="46" d="M77.75,334.809 C77.75,334.809 77.75,401.705 77.75,401.705 " fill="none" id="Employee-Money" style="stroke:#595959;stroke-width:1.0;"/><polygon fill="#595959" points="77.75,414.705,81.75,405.705,77.75,409.705,73.75,405.705,77.75,414.705" style="stroke:#595959;stroke-width:1.0;"/><line style="stroke:#595959;stroke-width:1.0;" x1="77.75" x2="77.75" y1="409.705" y2="401.705"/><polygon fill="#595959" points="77.75,322.809,73.75,328.809,77.75,334.809,81.75,328.809,77.75,322.809" style="stroke:#595959;stroke-width:1.0;"/><text fill="#000000" font-family="Verdana" font-size="13" lengthAdjust="spacing" textLength="8" x="63.2508" y="403.8151">1</text><text fill="#000000" font-family="Verdana" font-size="13" lengthAdjust="spacing" textLength="38" x="38.9883" y="342.4317">salary</text><text fill="#000000" font-family="Verdana" font-size="13" lengthAdjust="spacing" textLength="8" x="53.9883" y="357.5645">1</text></g><g id="link_Money_Currency"><path codeLine="47" d="M149,520.28 C149,520.28 149,554.651 149,554.651 " fill="none" id="Money-Currency" style="stroke:#595959;stroke-width:1.0;"/><polygon fill="#595959" points="149,567.651,153,558.651,149,562.651,145,558.651,149,567.651" style="stroke:#595959;stroke-width:1.0;"/><line style="stroke:#595959;stroke-width:1.0;" x1="149" x2="149" y1="562.651" y2="554.651"/><polygon fill="#595959" points="149,508.28,145,514.28,149,520.28,153,514.28,149,508.28" style="stroke:#595959;stroke-width:1.0;"/><text fill="#000000" font-family="Verdana" font-size="13" lengthAdjust="spacing" textLength="8" x="129.8453" y="556.8998">1</text><text fill="#000000" font-family="Verdana" font-size="13" lengthAdjust="spacing" textLength="55" x="94.4266" y="527.8992">currency</text><text fill="#000000" font-family="Verdana" font-size="13" lengthAdjust="spacing" textLength="8" x="117.9266" y="543.032">1</text></g><g id="link_RateService_Currency"><path codeLine="48" d="M333.25,508.28 C333.25,508.28 333.25,562.651 333.25,562.651 " fill="none" id="RateService-to-Currency" style="stroke:#595959;stroke-width:1.0;stroke-dasharray:7.0,7.0;"/><polygon fill="#595959" points="333.25,567.651,337.25,558.651,333.25,562.651,329.25,558.651,333.25,567.651" style="stroke:#595959;stroke-width:1.0;"/></g><g id="link_SalaryService_Employee"><path codeLine="49" d="M69,137.151 C69,137.151 69,224.396 69,224.396 " fill="none" id="SalaryService-to-Employee" style="stroke:#595959;stroke-width:1.0;stroke-dasharray:7.0,7.0;"/><polygon fill="#595959" points="69,229.396,73,220.396,69,224.396,65,220.396,69,229.396" style="stroke:#595959;stroke-width:1.0;"/></g><g id="link_SalaryService_Money"><path codeLine="50" d="M158.25,137.108 C158.25,137.108 158.25,409.801 158.25,409.801 " fill="none" id="SalaryService-to-Money" style="stroke:#595959;stroke-width:1.0;stroke-dasharray:7.0,7.0;"/><polygon fill="#595959" points="158.25,414.801,162.25,405.801,158.25,409.801,154.25,405.801,158.25,414.801" style="stroke:#595959;stroke-width:1.0;"/></g><g id="link_SalaryService_PaySlip"><path codeLine="51" d="M273,137.151 C273,137.151 273,191.658 273,191.658 " fill="none" id="SalaryService-to-PaySlip" style="stroke:#595959;stroke-width:1.0;stroke-dasharray:7.0,7.0;"/><polygon fill="#595959" points="273,196.658,277,187.658,273,191.658,269,187.658,273,196.658" style="stroke:#595959;stroke-width:1.0;"/></g></g></svg>