<?xml version="1.0" encoding="UTF-8" standalone="no"?><svg xmlns="http://www.w3.org/2000/svg" xmlns:xlink="http://www.w3.org/1999/xlink" contentStyleType="text/css" height="566px" preserveAspectRatio="none" style="width:488px;height:566px;background:#FFFFFF;" version="1.1" viewBox="0 0 488 566" width="488px" zoomAndPan="magnify"><defs/><g><g id="elem_AbstractAirLine"><rect codeLine="6" fill="#FFFFFF" height="141.7813" id="AbstractAirLine" rx="2.5" ry="2.5" style="stroke:#000000;stroke-width:1.0;" width="275" x="109" y="252"/><ellipse cx="191.75" cy="266" fill="#FFFFFF" rx="9" ry="9" style="stroke:#000000;stroke-width:1.0;"/><path d="M194.7187,271.6406 Q194.1406,271.9375 193.5,272.0781 Q192.8594,272.2344 192.1562,272.2344 Q189.6562,272.2344 188.3281,270.5938 Q187.0156,268.9375 187.0156,265.8125 Q187.0156,262.6875 188.3281,261.0313 Q189.6562,259.375 192.1562,259.375 Q192.8594,259.375 193.5,259.5313 Q194.1562,259.6875 194.7187,259.9844 L194.7187,262.7031 Q194.0937,262.125 193.5,261.8594 Q192.9062,261.5781 192.2812,261.5781 Q190.9375,261.5781 190.25,262.6563 Q189.5625,263.7188 189.5625,265.8125 Q189.5625,267.9063 190.25,268.9844 Q190.9375,270.0469 192.2812,270.0469 Q192.9062,270.0469 193.5,269.7813 Q194.0937,269.5 194.7187,268.9219 L194.7187,271.6406 Z " fill="#000000"/><text fill="#000000" font-family="Verdana" font-size="14" lengthAdjust="spacing" textLength="102" x="209.25" y="270.8467">AbstractAirLine</text><line style="stroke:#000000;stroke-width:1.0;" x1="110" x2="383" y1="280" y2="280"/><rect fill="none" height="6" style="stroke:#000000;stroke-width:1.0;" width="6" x="117" y="290.6484"/><text fill="#000000" font-family="Verdana" font-size="14" lengthAdjust="spacing" textLength="127" x="127" y="296.9951">airLineType: String</text><rect fill="none" height="6" style="stroke:#000000;stroke-width:1.0;" width="6" x="117" y="306.9453"/><text fill="#000000" font-family="Verdana" font-size="14" lengthAdjust="spacing" textLength="214" x="127" y="313.292">coordinates: List&lt;Coordinate&gt;</text><text fill="#000000" font-family="Verdana" font-size="14" lengthAdjust="spacing" textLength="127" x="127" y="329.5889">airLineType: String</text><text fill="#000000" font-family="Verdana" font-size="14" lengthAdjust="spacing" textLength="214" x="127" y="345.8857">coordinates: List&lt;Coordinate&gt;</text><line style="stroke:#000000;stroke-width:1.0;" x1="110" x2="383" y1="353.1875" y2="353.1875"/><ellipse cx="120" cy="366.8359" fill="#FFFFFF" rx="3" ry="3" style="stroke:#000000;stroke-width:1.0;"/><text fill="#000000" font-family="Verdana" font-size="14" lengthAdjust="spacing" textLength="99" x="127" y="370.1826">validate(): void</text><polygon fill="#FFFFFF" points="120,378.1328,124,382.1328,120,386.1328,116,382.1328" style="stroke:#000000;stroke-width:1.0;"/><text fill="#000000" font-family="Verdana" font-size="14" lengthAdjust="spacing" textLength="251" x="127" y="386.4795">validateCoordinate(Coordinate): void</text></g><g id="elem_AirLine"><rect codeLine="14" fill="#FFFFFF" height="105.1563" id="AirLine" rx="2.5" ry="2.5" style="stroke:#000000;stroke-width:1.0;" width="226" x="228.5" y="454"/><ellipse cx="304.75" cy="474.1328" fill="#FFFFFF" rx="9" ry="9" style="stroke:#000000;stroke-width:1.0;"/><path d="M300.6719,469.8984 L300.6719,467.7422 L308.0625,467.7422 L308.0625,469.8984 L305.5937,469.8984 L305.5937,477.9766 L308.0625,477.9766 L308.0625,480.1328 L300.6719,480.1328 L300.6719,477.9766 L303.1406,477.9766 L303.1406,469.8984 L300.6719,469.8984 Z " fill="#000000"/><text fill="#000000" font-family="Verdana" font-size="12" font-style="italic" lengthAdjust="spacing" textLength="70" x="320.25" y="470.1387">«interface»</text><text fill="#000000" font-family="Verdana" font-size="14" font-style="italic" lengthAdjust="spacing" textLength="45" x="332.75" y="485.9639">AirLine</text><line style="stroke:#000000;stroke-width:1.0;" x1="229.5" x2="453.5" y1="494.2656" y2="494.2656"/><text fill="#000000" font-family="Verdana" font-size="14" lengthAdjust="spacing" textLength="127" x="234.5" y="511.2607">airLineType: String</text><text fill="#000000" font-family="Verdana" font-size="14" lengthAdjust="spacing" textLength="214" x="234.5" y="527.5576">coordinates: List&lt;Coordinate&gt;</text><line style="stroke:#000000;stroke-width:1.0;" x1="229.5" x2="453.5" y1="534.8594" y2="534.8594"/><ellipse cx="239.5" cy="548.5078" fill="#FFFFFF" rx="3" ry="3" style="stroke:#000000;stroke-width:1.0;"/><text fill="#000000" font-family="Verdana" font-size="14" lengthAdjust="spacing" textLength="99" x="246.5" y="551.8545">validate(): void</text></g><g id="elem_AirLineFactory"><rect codeLine="19" fill="#FFFFFF" height="60.2969" id="AirLineFactory" rx="2.5" ry="2.5" style="stroke:#000000;stroke-width:1.0;" width="469" x="12" y="12"/><ellipse cx="195.25" cy="26" fill="#FFFFFF" rx="9" ry="9" style="stroke:#000000;stroke-width:1.0;"/><path d="M198.2188,31.6406 Q197.6406,31.9375 197,32.0781 Q196.3594,32.2344 195.6563,32.2344 Q193.1563,32.2344 191.8281,30.5938 Q190.5156,28.9375 190.5156,25.8125 Q190.5156,22.6875 191.8281,21.0313 Q193.1563,19.375 195.6563,19.375 Q196.3594,19.375 197,19.5313 Q197.6563,19.6875 198.2188,19.9844 L198.2188,22.7031 Q197.5938,22.125 197,21.8594 Q196.4063,21.5781 195.7813,21.5781 Q194.4375,21.5781 193.75,22.6563 Q193.0625,23.7188 193.0625,25.8125 Q193.0625,27.9063 193.75,28.9844 Q194.4375,30.0469 195.7813,30.0469 Q196.4063,30.0469 197,29.7813 Q197.5938,29.5 198.2188,28.9219 L198.2188,31.6406 Z " fill="#000000"/><text fill="#000000" font-family="Verdana" font-size="14" lengthAdjust="spacing" textLength="95" x="212.75" y="30.8467">AirLineFactory</text><line style="stroke:#000000;stroke-width:1.0;" x1="13" x2="480" y1="40" y2="40"/><line style="stroke:#000000;stroke-width:1.0;" x1="13" x2="480" y1="48" y2="48"/><ellipse cx="23" cy="61.6484" fill="#FFFFFF" rx="3" ry="3" style="stroke:#000000;stroke-width:1.0;"/><text fill="#000000" font-family="Verdana" font-size="14" lengthAdjust="spacing" textLength="445" x="30" y="64.9951">createAbstractAirLine(String, List&lt;Coordinate&gt;): AbstractAirLine?</text></g><g id="elem_DomesticAirLine"><rect codeLine="22" fill="#FFFFFF" height="60.2969" id="DomesticAirLine" rx="2.5" ry="2.5" style="stroke:#000000;stroke-width:1.0;" width="275" x="109" y="132"/><ellipse cx="187.25" cy="146" fill="#FFFFFF" rx="9" ry="9" style="stroke:#000000;stroke-width:1.0;"/><path d="M190.2187,151.6406 Q189.6406,151.9375 189,152.0781 Q188.3594,152.2344 187.6562,152.2344 Q185.1562,152.2344 183.8281,150.5938 Q182.5156,148.9375 182.5156,145.8125 Q182.5156,142.6875 183.8281,141.0313 Q185.1562,139.375 187.6562,139.375 Q188.3594,139.375 189,139.5313 Q189.6562,139.6875 190.2187,139.9844 L190.2187,142.7031 Q189.5937,142.125 189,141.8594 Q188.4062,141.5781 187.7812,141.5781 Q186.4375,141.5781 185.75,142.6563 Q185.0625,143.7188 185.0625,145.8125 Q185.0625,147.9063 185.75,148.9844 Q186.4375,150.0469 187.7812,150.0469 Q188.4062,150.0469 189,149.7813 Q189.5937,149.5 190.2187,148.9219 L190.2187,151.6406 Z " fill="#000000"/><text fill="#000000" font-family="Verdana" font-size="14" lengthAdjust="spacing" textLength="111" x="204.75" y="150.8467">DomesticAirLine</text><line style="stroke:#000000;stroke-width:1.0;" x1="110" x2="383" y1="160" y2="160"/><line style="stroke:#000000;stroke-width:1.0;" x1="110" x2="383" y1="168" y2="168"/><polygon fill="#FFFFFF" points="120,176.6484,124,180.6484,120,184.6484,116,180.6484" style="stroke:#000000;stroke-width:1.0;"/><text fill="#000000" font-family="Verdana" font-size="14" lengthAdjust="spacing" textLength="251" x="127" y="184.9951">validateCoordinate(Coordinate): void</text></g><g id="link_AbstractAirLine_AirLine"><path codeLine="26" d="M306.25,394.209 C306.25,394.209 306.25,433.825 306.25,433.825 " fill="none" id="AbstractAirLine-to-AirLine" style="stroke:#008200;stroke-width:1.0;stroke-dasharray:7.0,7.0;"/><polygon fill="none" points="313.25,433.825,306.25,453.825,299.25,433.825,313.25,433.825" style="stroke:#008200;stroke-width:1.0;"/></g><g id="link_AirLineFactory_AbstractAirLine"><path codeLine="27" d="M407.5,72.072 C407.5,144.562 407.5,323 407.5,323 C407.5,323 389.089,323 389.089,323 " fill="none" id="AirLineFactory-to-AbstractAirLine" style="stroke:#595959;stroke-width:1.0;stroke-dasharray:7.0,7.0;"/><polygon fill="#595959" points="384.089,323,393.089,327,389.089,323,393.089,319,384.089,323" style="stroke:#595959;stroke-width:1.0;"/></g><g id="link_AirLineFactory_AirLine"><path codeLine="28" d="M431,72.119 C431,72.119 431,448.866 431,448.866 " fill="none" id="AirLineFactory-to-AirLine" style="stroke:#595959;stroke-width:1.0;stroke-dasharray:7.0,7.0;"/><polygon fill="#595959" points="431,453.866,435,444.866,431,448.866,427,444.866,431,453.866" style="stroke:#595959;stroke-width:1.0;"/></g><g id="link_AirLineFactory_DomesticAirLine"><path codeLine="29" d="M246.5,72.281 C246.5,72.281 246.5,126.729 246.5,126.729 " fill="none" id="AirLineFactory-to-DomesticAirLine" style="stroke:#595959;stroke-width:1.0;stroke-dasharray:7.0,7.0;"/><polygon fill="#595959" points="246.5,131.729,250.5,122.729,246.5,126.729,242.5,122.729,246.5,131.729" style="stroke:#595959;stroke-width:1.0;"/><text fill="#000000" font-family="Verdana" font-size="13" lengthAdjust="spacing" textLength="41" x="204.5" y="95.5719">create</text></g><g id="link_DomesticAirLine_AbstractAirLine"><path codeLine="30" d="M246.5,192.283 C246.5,192.283 246.5,231.77 246.5,231.77 " fill="none" id="DomesticAirLine-to-AbstractAirLine" style="stroke:#000082;stroke-width:1.0;"/><polygon fill="none" points="253.5,231.77,246.5,251.77,239.5,231.77,253.5,231.77" style="stroke:#000082;stroke-width:1.0;"/></g></g></svg>