<?xml version="1.0" encoding="UTF-8" standalone="no"?><svg xmlns="http://www.w3.org/2000/svg" xmlns:xlink="http://www.w3.org/1999/xlink" contentStyleType="text/css" height="423px" preserveAspectRatio="none" style="width:540px;height:423px;background:#FFFFFF;" version="1.1" viewBox="0 0 540 423" width="540px" zoomAndPan="magnify"><defs/><g><g id="elem_Gender"><rect codeLine="6" fill="#FFFFFF" height="121.4531" id="Gender" rx="2.5" ry="2.5" style="stroke:#000000;stroke-width:1.0;" width="186" x="13" y="12"/><ellipse cx="57.25" cy="32.1328" fill="#FFFFFF" rx="9" ry="9" style="stroke:#000000;stroke-width:1.0;"/><path d="M61.3594,38.1328 L53.6406,38.1328 L53.6406,25.7422 L61.3594,25.7422 L61.3594,27.8984 L56.0938,27.8984 L56.0938,30.5703 L60.8594,30.5703 L60.8594,32.7266 L56.0938,32.7266 L56.0938,35.9766 L61.3594,35.9766 L61.3594,38.1328 Z " fill="#000000"/><text fill="#000000" font-family="Verdana" font-size="12" font-style="italic" lengthAdjust="spacing" textLength="94" x="72.75" y="28.1387">«enumeration»</text><text fill="#000000" font-family="Verdana" font-size="14" lengthAdjust="spacing" textLength="52" x="93.75" y="43.9639">Gender</text><line style="stroke:#000000;stroke-width:1.0;" x1="14" x2="198" y1="52.2656" y2="52.2656"/><rect fill="none" height="6" style="stroke:#000000;stroke-width:1.0;" width="6" x="21" y="62.9141"/><text fill="#000000" font-family="Verdana" font-size="14" lengthAdjust="spacing" textLength="61" x="31" y="69.2607">code: int</text><text fill="#000000" font-family="Verdana" font-size="14" lengthAdjust="spacing" textLength="61" x="31" y="85.5576">code: int</text><line style="stroke:#000000;stroke-width:1.0;" x1="14" x2="198" y1="92.8594" y2="92.8594"/><ellipse cx="24" cy="106.5078" fill="#FFFFFF" rx="3" ry="3" style="stroke:#000000;stroke-width:1.0;"/><text fill="#000000" font-family="Verdana" font-size="14" lengthAdjust="spacing" textLength="162" x="31" y="109.8545">valueOf(String): Gender</text><ellipse cx="24" cy="122.8047" fill="#FFFFFF" rx="3" ry="3" style="stroke:#000000;stroke-width:1.0;"/><text fill="#000000" font-family="Verdana" font-size="14" lengthAdjust="spacing" textLength="125" x="31" y="126.1514">values(): Gender[]</text></g><g id="elem_HealthServiceImp"><rect codeLine="12" fill="#FFFFFF" height="76.5938" id="HealthServiceImp" rx="2.5" ry="2.5" style="stroke:#000000;stroke-width:1.0;" width="299" x="234.5" y="34"/><ellipse cx="320.75" cy="48" fill="#FFFFFF" rx="9" ry="9" style="stroke:#000000;stroke-width:1.0;"/><path d="M323.7188,53.6406 Q323.1406,53.9375 322.5,54.0781 Q321.8594,54.2344 321.1563,54.2344 Q318.6563,54.2344 317.3281,52.5938 Q316.0156,50.9375 316.0156,47.8125 Q316.0156,44.6875 317.3281,43.0313 Q318.6563,41.375 321.1563,41.375 Q321.8594,41.375 322.5,41.5313 Q323.1563,41.6875 323.7188,41.9844 L323.7188,44.7031 Q323.0938,44.125 322.5,43.8594 Q321.9063,43.5781 321.2813,43.5781 Q319.9375,43.5781 319.25,44.6563 Q318.5625,45.7188 318.5625,47.8125 Q318.5625,49.9063 319.25,50.9844 Q319.9375,52.0469 321.2813,52.0469 Q321.9063,52.0469 322.5,51.7813 Q323.0938,51.5 323.7188,50.9219 L323.7188,53.6406 Z " fill="#000000"/><text fill="#000000" font-family="Verdana" font-size="14" lengthAdjust="spacing" textLength="119" x="338.25" y="52.8467">HealthServiceImp</text><line style="stroke:#000000;stroke-width:1.0;" x1="235.5" x2="532.5" y1="62" y2="62"/><line style="stroke:#000000;stroke-width:1.0;" x1="235.5" x2="532.5" y1="70" y2="70"/><ellipse cx="245.5" cy="83.6484" fill="#FFFFFF" rx="3" ry="3" style="stroke:#000000;stroke-width:1.0;"/><text fill="#000000" font-family="Verdana" font-size="14" lengthAdjust="spacing" textLength="181" x="252.5" y="86.9951">isObese(Person): boolean</text><ellipse cx="245.5" cy="99.9453" fill="#FFFFFF" rx="3" ry="3" style="stroke:#000000;stroke-width:1.0;"/><text fill="#000000" font-family="Verdana" font-size="14" lengthAdjust="spacing" textLength="275" x="252.5" y="103.292">getBodyFatPercentage(Person): double</text></g><g id="elem_Person"><rect codeLine="16" fill="#FFFFFF" height="223.2656" id="Person" rx="2.5" ry="2.5" style="stroke:#000000;stroke-width:1.0;" width="188" x="12" y="193"/><ellipse cx="77.75" cy="207" fill="#FFFFFF" rx="9" ry="9" style="stroke:#000000;stroke-width:1.0;"/><path d="M80.7188,212.6406 Q80.1406,212.9375 79.5,213.0781 Q78.8594,213.2344 78.1563,213.2344 Q75.6563,213.2344 74.3281,211.5938 Q73.0156,209.9375 73.0156,206.8125 Q73.0156,203.6875 74.3281,202.0313 Q75.6563,200.375 78.1563,200.375 Q78.8594,200.375 79.5,200.5313 Q80.1563,200.6875 80.7188,200.9844 L80.7188,203.7031 Q80.0938,203.125 79.5,202.8594 Q78.9063,202.5781 78.2813,202.5781 Q76.9375,202.5781 76.25,203.6563 Q75.5625,204.7188 75.5625,206.8125 Q75.5625,208.9063 76.25,209.9844 Q76.9375,211.0469 78.2813,211.0469 Q78.9063,211.0469 79.5,210.7813 Q80.0938,210.5 80.7188,209.9219 L80.7188,212.6406 Z " fill="#000000"/><text fill="#000000" font-family="Verdana" font-size="14" lengthAdjust="spacing" textLength="49" x="95.25" y="211.8467">Person</text><line style="stroke:#000000;stroke-width:1.0;" x1="13" x2="199" y1="221" y2="221"/><rect fill="none" height="6" style="stroke:#000000;stroke-width:1.0;" width="6" x="20" y="231.6484"/><text fill="#000000" font-family="Verdana" font-size="14" lengthAdjust="spacing" textLength="88" x="30" y="237.9951">name: String</text><rect fill="none" height="6" style="stroke:#000000;stroke-width:1.0;" width="6" x="20" y="247.9453"/><text fill="#000000" font-family="Verdana" font-size="14" lengthAdjust="spacing" textLength="101" x="30" y="254.292">height: double</text><rect fill="none" height="6" style="stroke:#000000;stroke-width:1.0;" width="6" x="20" y="264.2422"/><text fill="#000000" font-family="Verdana" font-size="14" lengthAdjust="spacing" textLength="111" x="30" y="270.5889">gender: Gender</text><rect fill="none" height="6" style="stroke:#000000;stroke-width:1.0;" width="6" x="20" y="280.5391"/><text fill="#000000" font-family="Verdana" font-size="14" lengthAdjust="spacing" textLength="52" x="30" y="286.8857">age: int</text><rect fill="none" height="6" style="stroke:#000000;stroke-width:1.0;" width="6" x="20" y="296.8359"/><text fill="#000000" font-family="Verdana" font-size="14" lengthAdjust="spacing" textLength="103" x="30" y="303.1826">weight: double</text><text fill="#000000" font-family="Verdana" font-size="14" lengthAdjust="spacing" textLength="88" x="30" y="319.4795">name: String</text><text fill="#000000" font-family="Verdana" font-size="14" lengthAdjust="spacing" textLength="103" x="30" y="335.7764">weight: double</text><text fill="#000000" font-family="Verdana" font-size="14" lengthAdjust="spacing" textLength="164" x="30" y="352.0732">bodyMassIndex: double</text><text fill="#000000" font-family="Verdana" font-size="14" lengthAdjust="spacing" textLength="111" x="30" y="368.3701">gender: Gender</text><text fill="#000000" font-family="Verdana" font-size="14" lengthAdjust="spacing" textLength="52" x="30" y="384.667">age: int</text><text fill="#000000" font-family="Verdana" font-size="14" lengthAdjust="spacing" textLength="101" x="30" y="400.9639">height: double</text><line style="stroke:#000000;stroke-width:1.0;" x1="13" x2="199" y1="408.2656" y2="408.2656"/></g></g></svg>