<?xml version="1.0" encoding="UTF-8" standalone="no"?><svg xmlns="http://www.w3.org/2000/svg" xmlns:xlink="http://www.w3.org/1999/xlink" contentStyleType="text/css" height="384px" preserveAspectRatio="none" style="width:955px;height:384px;background:#FFFFFF;" version="1.1" viewBox="0 0 955 384" width="955px" zoomAndPan="magnify"><defs/><g><g id="elem_CatCosts"><rect codeLine="6" fill="#FFFFFF" height="92.8906" id="CatCosts" rx="2.5" ry="2.5" style="stroke:#000000;stroke-width:1.0;" width="190" x="12" y="132"/><ellipse cx="71.75" cy="146" fill="#FFFFFF" rx="9" ry="9" style="stroke:#000000;stroke-width:1.0;"/><path d="M74.7188,151.6406 Q74.1406,151.9375 73.5,152.0781 Q72.8594,152.2344 72.1563,152.2344 Q69.6563,152.2344 68.3281,150.5938 Q67.0156,148.9375 67.0156,145.8125 Q67.0156,142.6875 68.3281,141.0313 Q69.6563,139.375 72.1563,139.375 Q72.8594,139.375 73.5,139.5313 Q74.1563,139.6875 74.7188,139.9844 L74.7188,142.7031 Q74.0938,142.125 73.5,141.8594 Q72.9063,141.5781 72.2813,141.5781 Q70.9375,141.5781 70.25,142.6563 Q69.5625,143.7188 69.5625,145.8125 Q69.5625,147.9063 70.25,148.9844 Q70.9375,150.0469 72.2813,150.0469 Q72.9063,150.0469 73.5,149.7813 Q74.0938,149.5 74.7188,148.9219 L74.7188,151.6406 Z " fill="#000000"/><text fill="#000000" font-family="Verdana" font-size="14" lengthAdjust="spacing" textLength="63" x="89.25" y="150.8467">CatCosts</text><line style="stroke:#000000;stroke-width:1.0;" x1="13" x2="201" y1="160" y2="160"/><text fill="#000000" font-family="Verdana" font-size="14" lengthAdjust="spacing" textLength="178" x="18" y="176.9951">dailyCompanyTime: String</text><text fill="#000000" font-family="Verdana" font-size="14" lengthAdjust="spacing" textLength="159" x="18" y="193.292">cleanFrequency: String</text><text fill="#000000" font-family="Verdana" font-size="14" lengthAdjust="spacing" textLength="111" x="18" y="209.5889">dailyPay: double</text><line style="stroke:#000000;stroke-width:1.0;" x1="13" x2="201" y1="216.8906" y2="216.8906"/></g><g id="elem_DogCosts"><rect codeLine="11" fill="#FFFFFF" height="92.8906" id="DogCosts" rx="2.5" ry="2.5" style="stroke:#000000;stroke-width:1.0;" width="190" x="237" y="132"/><ellipse cx="293.75" cy="146" fill="#FFFFFF" rx="9" ry="9" style="stroke:#000000;stroke-width:1.0;"/><path d="M296.7188,151.6406 Q296.1406,151.9375 295.5,152.0781 Q294.8594,152.2344 294.1563,152.2344 Q291.6563,152.2344 290.3281,150.5938 Q289.0156,148.9375 289.0156,145.8125 Q289.0156,142.6875 290.3281,141.0313 Q291.6563,139.375 294.1563,139.375 Q294.8594,139.375 295.5,139.5313 Q296.1563,139.6875 296.7188,139.9844 L296.7188,142.7031 Q296.0938,142.125 295.5,141.8594 Q294.9063,141.5781 294.2813,141.5781 Q292.9375,141.5781 292.25,142.6563 Q291.5625,143.7188 291.5625,145.8125 Q291.5625,147.9063 292.25,148.9844 Q292.9375,150.0469 294.2813,150.0469 Q294.9063,150.0469 295.5,149.7813 Q296.0938,149.5 296.7188,148.9219 L296.7188,151.6406 Z " fill="#000000"/><text fill="#000000" font-family="Verdana" font-size="14" lengthAdjust="spacing" textLength="69" x="311.25" y="150.8467">DogCosts</text><line style="stroke:#000000;stroke-width:1.0;" x1="238" x2="426" y1="160" y2="160"/><text fill="#000000" font-family="Verdana" font-size="14" lengthAdjust="spacing" textLength="178" x="243" y="176.9951">dailyCompanyTime: String</text><text fill="#000000" font-family="Verdana" font-size="14" lengthAdjust="spacing" textLength="159" x="243" y="193.292">cleanFrequency: String</text><text fill="#000000" font-family="Verdana" font-size="14" lengthAdjust="spacing" textLength="111" x="243" y="209.5889">dailyPay: double</text><line style="stroke:#000000;stroke-width:1.0;" x1="238" x2="426" y1="216.8906" y2="216.8906"/></g><g id="elem_FishCosts"><rect codeLine="16" fill="#FFFFFF" height="92.8906" id="FishCosts" rx="2.5" ry="2.5" style="stroke:#000000;stroke-width:1.0;" width="190" x="462" y="132"/><ellipse cx="519.25" cy="146" fill="#FFFFFF" rx="9" ry="9" style="stroke:#000000;stroke-width:1.0;"/><path d="M522.2188,151.6406 Q521.6406,151.9375 521,152.0781 Q520.3594,152.2344 519.6563,152.2344 Q517.1563,152.2344 515.8281,150.5938 Q514.5156,148.9375 514.5156,145.8125 Q514.5156,142.6875 515.8281,141.0313 Q517.1563,139.375 519.6563,139.375 Q520.3594,139.375 521,139.5313 Q521.6563,139.6875 522.2188,139.9844 L522.2188,142.7031 Q521.5938,142.125 521,141.8594 Q520.4063,141.5781 519.7813,141.5781 Q518.4375,141.5781 517.75,142.6563 Q517.0625,143.7188 517.0625,145.8125 Q517.0625,147.9063 517.75,148.9844 Q518.4375,150.0469 519.7813,150.0469 Q520.4063,150.0469 521,149.7813 Q521.5938,149.5 522.2188,148.9219 L522.2188,151.6406 Z " fill="#000000"/><text fill="#000000" font-family="Verdana" font-size="14" lengthAdjust="spacing" textLength="68" x="536.75" y="150.8467">FishCosts</text><line style="stroke:#000000;stroke-width:1.0;" x1="463" x2="651" y1="160" y2="160"/><text fill="#000000" font-family="Verdana" font-size="14" lengthAdjust="spacing" textLength="178" x="468" y="176.9951">dailyCompanyTime: String</text><text fill="#000000" font-family="Verdana" font-size="14" lengthAdjust="spacing" textLength="159" x="468" y="193.292">cleanFrequency: String</text><text fill="#000000" font-family="Verdana" font-size="14" lengthAdjust="spacing" textLength="111" x="468" y="209.5889">dailyPay: double</text><line style="stroke:#000000;stroke-width:1.0;" x1="463" x2="651" y1="216.8906" y2="216.8906"/></g><g id="elem_PetCosts"><rect codeLine="21" fill="#FFFFFF" height="92.8906" id="PetCosts" rx="2.5" ry="2.5" style="stroke:#000000;stroke-width:1.0;" width="190" x="462" y="285"/><ellipse cx="521.75" cy="299" fill="#FFFFFF" rx="9" ry="9" style="stroke:#000000;stroke-width:1.0;"/><path d="M524.7188,304.6406 Q524.1406,304.9375 523.5,305.0781 Q522.8594,305.2344 522.1563,305.2344 Q519.6563,305.2344 518.3281,303.5938 Q517.0156,301.9375 517.0156,298.8125 Q517.0156,295.6875 518.3281,294.0313 Q519.6563,292.375 522.1563,292.375 Q522.8594,292.375 523.5,292.5313 Q524.1563,292.6875 524.7188,292.9844 L524.7188,295.7031 Q524.0938,295.125 523.5,294.8594 Q522.9063,294.5781 522.2813,294.5781 Q520.9375,294.5781 520.25,295.6563 Q519.5625,296.7188 519.5625,298.8125 Q519.5625,300.9063 520.25,301.9844 Q520.9375,303.0469 522.2813,303.0469 Q522.9063,303.0469 523.5,302.7813 Q524.0938,302.5 524.7188,301.9219 L524.7188,304.6406 Z " fill="#000000"/><text fill="#000000" font-family="Verdana" font-size="14" lengthAdjust="spacing" textLength="63" x="539.25" y="303.8467">PetCosts</text><line style="stroke:#000000;stroke-width:1.0;" x1="463" x2="651" y1="313" y2="313"/><text fill="#000000" font-family="Verdana" font-size="14" lengthAdjust="spacing" textLength="178" x="468" y="329.9951">dailyCompanyTime: String</text><text fill="#000000" font-family="Verdana" font-size="14" lengthAdjust="spacing" textLength="159" x="468" y="346.292">cleanFrequency: String</text><text fill="#000000" font-family="Verdana" font-size="14" lengthAdjust="spacing" textLength="111" x="468" y="362.5889">dailyPay: double</text><line style="stroke:#000000;stroke-width:1.0;" x1="463" x2="651" y1="369.8906" y2="369.8906"/></g><g id="elem_PetCostsFactory"><rect codeLine="26" fill="#FFFFFF" height="60.2969" id="PetCostsFactory" rx="2.5" ry="2.5" style="stroke:#000000;stroke-width:1.0;" width="236" x="439" y="12"/><ellipse cx="496.75" cy="26" fill="#FFFFFF" rx="9" ry="9" style="stroke:#000000;stroke-width:1.0;"/><path d="M499.7188,31.6406 Q499.1406,31.9375 498.5,32.0781 Q497.8594,32.2344 497.1563,32.2344 Q494.6563,32.2344 493.3281,30.5938 Q492.0156,28.9375 492.0156,25.8125 Q492.0156,22.6875 493.3281,21.0313 Q494.6563,19.375 497.1563,19.375 Q497.8594,19.375 498.5,19.5313 Q499.1563,19.6875 499.7188,19.9844 L499.7188,22.7031 Q499.0938,22.125 498.5,21.8594 Q497.9063,21.5781 497.2813,21.5781 Q495.9375,21.5781 495.25,22.6563 Q494.5625,23.7188 494.5625,25.8125 Q494.5625,27.9063 495.25,28.9844 Q495.9375,30.0469 497.2813,30.0469 Q497.9063,30.0469 498.5,29.7813 Q499.0938,29.5 499.7188,28.9219 L499.7188,31.6406 Z " fill="#000000"/><text fill="#000000" font-family="Verdana" font-size="14" lengthAdjust="spacing" textLength="113" x="514.25" y="30.8467">PetCostsFactory</text><line style="stroke:#000000;stroke-width:1.0;" x1="440" x2="674" y1="40" y2="40"/><line style="stroke:#000000;stroke-width:1.0;" x1="440" x2="674" y1="48" y2="48"/><ellipse cx="450" cy="61.6484" fill="#FFFFFF" rx="3" ry="3" style="stroke:#000000;stroke-width:1.0;"/><text fill="#000000" font-family="Verdana" font-size="14" lengthAdjust="spacing" textLength="212" x="457" y="64.9951">createPetCosts(Pet): PetCosts</text></g><g id="elem_UnknownPetCosts"><rect codeLine="29" fill="#FFFFFF" height="92.8906" id="UnknownPetCosts" rx="2.5" ry="2.5" style="stroke:#000000;stroke-width:1.0;" width="190" x="758" y="132"/><ellipse cx="786.3" cy="146" fill="#FFFFFF" rx="9" ry="9" style="stroke:#000000;stroke-width:1.0;"/><path d="M789.2688,151.6406 Q788.6906,151.9375 788.05,152.0781 Q787.4094,152.2344 786.7063,152.2344 Q784.2063,152.2344 782.8781,150.5938 Q781.5656,148.9375 781.5656,145.8125 Q781.5656,142.6875 782.8781,141.0313 Q784.2063,139.375 786.7063,139.375 Q787.4094,139.375 788.05,139.5313 Q788.7063,139.6875 789.2688,139.9844 L789.2688,142.7031 Q788.6438,142.125 788.05,141.8594 Q787.4563,141.5781 786.8313,141.5781 Q785.4875,141.5781 784.8,142.6563 Q784.1125,143.7188 784.1125,145.8125 Q784.1125,147.9063 784.8,148.9844 Q785.4875,150.0469 786.8313,150.0469 Q787.4563,150.0469 788.05,149.7813 Q788.6438,149.5 789.2688,148.9219 L789.2688,151.6406 Z " fill="#000000"/><text fill="#000000" font-family="Verdana" font-size="14" lengthAdjust="spacing" textLength="128" x="801.7" y="150.8467">UnknownPetCosts</text><line style="stroke:#000000;stroke-width:1.0;" x1="759" x2="947" y1="160" y2="160"/><text fill="#000000" font-family="Verdana" font-size="14" lengthAdjust="spacing" textLength="178" x="764" y="176.9951">dailyCompanyTime: String</text><text fill="#000000" font-family="Verdana" font-size="14" lengthAdjust="spacing" textLength="159" x="764" y="193.292">cleanFrequency: String</text><text fill="#000000" font-family="Verdana" font-size="14" lengthAdjust="spacing" textLength="111" x="764" y="209.5889">dailyPay: double</text><line style="stroke:#000000;stroke-width:1.0;" x1="759" x2="947" y1="216.8906" y2="216.8906"/></g><g id="link_CatCosts_PetCosts"><path codeLine="35" d="M107,225.335 C107,277.624 107,355 107,355 C107,355 441.842,355 441.842,355 " fill="none" id="CatCosts-to-PetCosts" style="stroke:#000082;stroke-width:1.0;"/><polygon fill="none" points="441.842,347.9999,461.842,355,441.842,361.9999,441.842,347.9999" style="stroke:#000082;stroke-width:1.0;"/></g><g id="link_DogCosts_PetCosts"><path codeLine="36" d="M332,225.389 C332,270.531 332,332 332,332 C332,332 441.906,332 441.906,332 " fill="none" id="DogCosts-to-PetCosts" style="stroke:#000082;stroke-width:1.0;"/><polygon fill="none" points="441.906,324.9999,461.906,332,441.906,338.9999,441.906,324.9999" style="stroke:#000082;stroke-width:1.0;"/></g><g id="link_FishCosts_PetCosts"><path codeLine="37" d="M557,225.236 C557,225.236 557,264.786 557,264.786 " fill="none" id="FishCosts-to-PetCosts" style="stroke:#000082;stroke-width:1.0;"/><polygon fill="none" points="564,264.786,557,284.7864,550,264.786,564,264.786" style="stroke:#000082;stroke-width:1.0;"/></g><g id="link_PetCostsFactory_CatCosts"><path codeLine="38" d="M438.768,42 C305.441,42 107,42 107,42 C107,42 107,126.906 107,126.906 " fill="none" id="PetCostsFactory-to-CatCosts" style="stroke:#595959;stroke-width:1.0;stroke-dasharray:7.0,7.0;"/><polygon fill="#595959" points="107,131.906,111,122.906,107,126.906,103,122.906,107,131.906" style="stroke:#595959;stroke-width:1.0;"/><text fill="#000000" font-family="Verdana" font-size="13" lengthAdjust="spacing" textLength="41" x="188.431" y="38.0669">create</text></g><g id="link_PetCostsFactory_DogCosts"><path codeLine="39" d="M446.667,72.065 C446.667,112.393 446.667,179 446.667,179 C446.667,179 432.215,179 432.215,179 " fill="none" id="PetCostsFactory-to-DogCosts" style="stroke:#595959;stroke-width:1.0;stroke-dasharray:7.0,7.0;"/><polygon fill="#595959" points="427.215,179,436.215,183,432.215,179,436.215,175,427.215,179" style="stroke:#595959;stroke-width:1.0;"/><text fill="#000000" font-family="Verdana" font-size="13" lengthAdjust="spacing" textLength="41" x="404.667" y="128.8249">create</text></g><g id="link_PetCostsFactory_FishCosts"><path codeLine="40" d="M557,72.294 C557,72.294 557,126.927 557,126.927 " fill="none" id="PetCostsFactory-to-FishCosts" style="stroke:#595959;stroke-width:1.0;stroke-dasharray:7.0,7.0;"/><polygon fill="#595959" points="557,131.927,561,122.927,557,126.927,553,122.927,557,131.927" style="stroke:#595959;stroke-width:1.0;"/><text fill="#000000" font-family="Verdana" font-size="13" lengthAdjust="spacing" textLength="41" x="515" y="95.6769">create</text></g><g id="link_PetCostsFactory_PetCosts"><path codeLine="41" d="M454.333,72.109 C454.333,141.937 454.333,309 454.333,309 C454.333,309 456.717,309 456.717,309 " fill="none" id="PetCostsFactory-to-PetCosts" style="stroke:#595959;stroke-width:1.0;stroke-dasharray:7.0,7.0;"/><polygon fill="#595959" points="461.717,309,452.717,305,456.717,309,452.717,313,461.717,309" style="stroke:#595959;stroke-width:1.0;"/></g><g id="link_PetCostsFactory_UnknownPetCosts"><path codeLine="42" d="M663.5,72.065 C663.5,112.393 663.5,179 663.5,179 C663.5,179 752.972,179 752.972,179 " fill="none" id="PetCostsFactory-to-UnknownPetCosts" style="stroke:#595959;stroke-width:1.0;stroke-dasharray:7.0,7.0;"/><polygon fill="#595959" points="757.972,179,748.972,175,752.972,179,748.972,183,757.972,179" style="stroke:#595959;stroke-width:1.0;"/><text fill="#000000" font-family="Verdana" font-size="13" lengthAdjust="spacing" textLength="41" x="664.5" y="166.3359">create</text></g><g id="link_UnknownPetCosts_PetCosts"><path codeLine="43" d="M853,225.389 C853,270.531 853,332 853,332 C853,332 672.286,332 672.286,332 " fill="none" id="UnknownPetCosts-to-PetCosts" style="stroke:#000082;stroke-width:1.0;"/><polygon fill="none" points="672.286,338.9999,652.286,332,672.286,324.9999,672.286,338.9999" style="stroke:#000082;stroke-width:1.0;"/></g></g></svg>