<?xml version="1.0" encoding="UTF-8" standalone="no"?><svg xmlns="http://www.w3.org/2000/svg" xmlns:xlink="http://www.w3.org/1999/xlink" contentStyleType="text/css" height="882px" preserveAspectRatio="none" style="width:858px;height:882px;background:#FFFFFF;" version="1.1" viewBox="0 0 858 882" width="858px" zoomAndPan="magnify"><defs/><g><g id="elem_Course"><rect codeLine="6" fill="#FFFFFF" height="109.1875" id="Course" rx="2.5" ry="2.5" style="stroke:#000000;stroke-width:1.0;" width="126" x="101" y="601.5"/><ellipse cx="135.6" cy="615.5" fill="#FFFFFF" rx="9" ry="9" style="stroke:#000000;stroke-width:1.0;"/><path d="M138.5688,621.1406 Q137.9906,621.4375 137.35,621.5781 Q136.7094,621.7344 136.0063,621.7344 Q133.5063,621.7344 132.1781,620.0938 Q130.8656,618.4375 130.8656,615.3125 Q130.8656,612.1875 132.1781,610.5313 Q133.5063,608.875 136.0063,608.875 Q136.7094,608.875 137.35,609.0313 Q138.0063,609.1875 138.5688,609.4844 L138.5688,612.2031 Q137.9438,611.625 137.35,611.3594 Q136.7563,611.0781 136.1313,611.0781 Q134.7875,611.0781 134.1,612.1563 Q133.4125,613.2188 133.4125,615.3125 Q133.4125,617.4063 134.1,618.4844 Q134.7875,619.5469 136.1313,619.5469 Q136.7563,619.5469 137.35,619.2813 Q137.9438,619 138.5688,618.4219 L138.5688,621.1406 Z " fill="#000000"/><text fill="#000000" font-family="Verdana" font-size="14" lengthAdjust="spacing" textLength="50" x="152.4" y="620.3467">Course</text><line style="stroke:#000000;stroke-width:1.0;" x1="102" x2="226" y1="629.5" y2="629.5"/><rect fill="none" height="6" style="stroke:#000000;stroke-width:1.0;" width="6" x="109" y="640.1484"/><text fill="#000000" font-family="Verdana" font-size="14" lengthAdjust="spacing" textLength="102" x="119" y="646.4951">teacher: String</text><rect fill="none" height="6" style="stroke:#000000;stroke-width:1.0;" width="6" x="109" y="656.4453"/><text fill="#000000" font-family="Verdana" font-size="14" lengthAdjust="spacing" textLength="88" x="119" y="662.792">name: String</text><text fill="#000000" font-family="Verdana" font-size="14" lengthAdjust="spacing" textLength="88" x="119" y="679.0889">name: String</text><text fill="#000000" font-family="Verdana" font-size="14" lengthAdjust="spacing" textLength="102" x="119" y="695.3857">teacher: String</text><line style="stroke:#000000;stroke-width:1.0;" x1="102" x2="226" y1="702.6875" y2="702.6875"/></g><g id="elem_CourseManager"><rect codeLine="12" fill="#FFFFFF" height="76.5938" id="CourseManager" rx="2.5" ry="2.5" style="stroke:#000000;stroke-width:1.0;" width="270" x="29" y="448"/><ellipse cx="105.25" cy="462" fill="#FFFFFF" rx="9" ry="9" style="stroke:#000000;stroke-width:1.0;"/><path d="M108.2188,467.6406 Q107.6406,467.9375 107,468.0781 Q106.3594,468.2344 105.6563,468.2344 Q103.1563,468.2344 101.8281,466.5938 Q100.5156,464.9375 100.5156,461.8125 Q100.5156,458.6875 101.8281,457.0313 Q103.1563,455.375 105.6563,455.375 Q106.3594,455.375 107,455.5313 Q107.6563,455.6875 108.2188,455.9844 L108.2188,458.7031 Q107.5938,458.125 107,457.8594 Q106.4063,457.5781 105.7813,457.5781 Q104.4375,457.5781 103.75,458.6563 Q103.0625,459.7188 103.0625,461.8125 Q103.0625,463.9063 103.75,464.9844 Q104.4375,466.0469 105.7813,466.0469 Q106.4063,466.0469 107,465.7813 Q107.5938,465.5 108.2188,464.9219 L108.2188,467.6406 Z " fill="#000000"/><text fill="#000000" font-family="Verdana" font-size="14" lengthAdjust="spacing" textLength="110" x="122.75" y="466.8467">CourseManager</text><line style="stroke:#000000;stroke-width:1.0;" x1="30" x2="298" y1="476" y2="476"/><line style="stroke:#000000;stroke-width:1.0;" x1="30" x2="298" y1="484" y2="484"/><ellipse cx="40" cy="497.6484" fill="#FFFFFF" rx="3" ry="3" style="stroke:#000000;stroke-width:1.0;"/><text fill="#000000" font-family="Verdana" font-size="14" lengthAdjust="spacing" textLength="198" x="47" y="500.9951">queryCourse(String): Course</text><ellipse cx="40" cy="513.9453" fill="#FFFFFF" rx="3" ry="3" style="stroke:#000000;stroke-width:1.0;"/><text fill="#000000" font-family="Verdana" font-size="14" lengthAdjust="spacing" textLength="246" x="47" y="517.292">importCourses(List&lt;Course&gt;): void</text></g><g id="elem_CourseSelectionManager"><rect codeLine="16" fill="#FFFFFF" height="174.375" id="CourseSelectionManager" rx="2.5" ry="2.5" style="stroke:#000000;stroke-width:1.0;" width="352" x="282" y="214"/><ellipse cx="367.25" cy="228" fill="#FFFFFF" rx="9" ry="9" style="stroke:#000000;stroke-width:1.0;"/><path d="M370.2188,233.6406 Q369.6406,233.9375 369,234.0781 Q368.3594,234.2344 367.6563,234.2344 Q365.1563,234.2344 363.8281,232.5938 Q362.5156,230.9375 362.5156,227.8125 Q362.5156,224.6875 363.8281,223.0313 Q365.1563,221.375 367.6563,221.375 Q368.3594,221.375 369,221.5313 Q369.6563,221.6875 370.2188,221.9844 L370.2188,224.7031 Q369.5938,224.125 369,223.8594 Q368.4063,223.5781 367.7813,223.5781 Q366.4375,223.5781 365.75,224.6563 Q365.0625,225.7188 365.0625,227.8125 Q365.0625,229.9063 365.75,230.9844 Q366.4375,232.0469 367.7813,232.0469 Q368.4063,232.0469 369,231.7813 Q369.5938,231.5 370.2188,230.9219 L370.2188,233.6406 Z " fill="#000000"/><text fill="#000000" font-family="Verdana" font-size="14" lengthAdjust="spacing" textLength="174" x="384.75" y="232.8467">CourseSelectionManager</text><line style="stroke:#000000;stroke-width:1.0;" x1="283" x2="633" y1="242" y2="242"/><line style="stroke:#000000;stroke-width:1.0;" x1="283" x2="633" y1="250" y2="250"/><ellipse cx="293" cy="263.6484" fill="#FFFFFF" rx="3" ry="3" style="stroke:#000000;stroke-width:1.0;"/><text fill="#000000" font-family="Verdana" font-size="14" lengthAdjust="spacing" textLength="256" x="300" y="266.9951">importStudents(List&lt;Student&gt;): void</text><ellipse cx="293" cy="279.9453" fill="#FFFFFF" rx="3" ry="3" style="stroke:#000000;stroke-width:1.0;"/><text fill="#000000" font-family="Verdana" font-size="14" lengthAdjust="spacing" textLength="262" x="300" y="283.292">assignCourses(int, List&lt;String&gt;): void</text><ellipse cx="293" cy="296.2422" fill="#FFFFFF" rx="3" ry="3" style="stroke:#000000;stroke-width:1.0;"/><text fill="#000000" font-family="Verdana" font-size="14" lengthAdjust="spacing" textLength="293" x="300" y="299.5889">addStudentInCourse(String, Student): void</text><ellipse cx="293" cy="312.5391" fill="#FFFFFF" rx="3" ry="3" style="stroke:#000000;stroke-width:1.0;"/><text fill="#000000" font-family="Verdana" font-size="14" lengthAdjust="spacing" textLength="246" x="300" y="315.8857">importCourses(List&lt;Course&gt;): void</text><rect fill="#FFFFFF" height="6" style="stroke:#000000;stroke-width:1.0;" width="6" x="290" y="325.8359"/><text fill="#000000" font-family="Verdana" font-size="14" lengthAdjust="spacing" textLength="251" x="300" y="332.1826">selectCourse(int, List&lt;String&gt;): void</text><ellipse cx="293" cy="345.1328" fill="#FFFFFF" rx="3" ry="3" style="stroke:#000000;stroke-width:1.0;"/><text fill="#000000" font-family="Verdana" font-size="14" lengthAdjust="spacing" textLength="325" x="300" y="348.4795">queryStudentCourseTeacher(int, String): String</text><ellipse cx="293" cy="361.4297" fill="#FFFFFF" rx="3" ry="3" style="stroke:#000000;stroke-width:1.0;"/><text fill="#000000" font-family="Verdana" font-size="14" lengthAdjust="spacing" textLength="326" x="300" y="364.7764">statisticStudentByGender(String, Gender): long</text><ellipse cx="293" cy="377.7266" fill="#FFFFFF" rx="3" ry="3" style="stroke:#000000;stroke-width:1.0;"/><text fill="#000000" font-family="Verdana" font-size="14" lengthAdjust="spacing" textLength="328" x="300" y="381.0732">queryStudentSelectCourses(int): List&lt;Course&gt;</text></g><g id="elem_CourseSelectionSystemApi"><rect codeLine="26" fill="#FFFFFF" height="141.7813" id="CourseSelectionSystemApi" rx="2.5" ry="2.5" style="stroke:#000000;stroke-width:1.0;" width="352" x="282" y="12"/><ellipse cx="361.25" cy="26" fill="#FFFFFF" rx="9" ry="9" style="stroke:#000000;stroke-width:1.0;"/><path d="M364.2188,31.6406 Q363.6406,31.9375 363,32.0781 Q362.3594,32.2344 361.6563,32.2344 Q359.1563,32.2344 357.8281,30.5938 Q356.5156,28.9375 356.5156,25.8125 Q356.5156,22.6875 357.8281,21.0313 Q359.1563,19.375 361.6563,19.375 Q362.3594,19.375 363,19.5313 Q363.6563,19.6875 364.2188,19.9844 L364.2188,22.7031 Q363.5938,22.125 363,21.8594 Q362.4063,21.5781 361.7813,21.5781 Q360.4375,21.5781 359.75,22.6563 Q359.0625,23.7188 359.0625,25.8125 Q359.0625,27.9063 359.75,28.9844 Q360.4375,30.0469 361.7813,30.0469 Q362.4063,30.0469 363,29.7813 Q363.5938,29.5 364.2188,28.9219 L364.2188,31.6406 Z " fill="#000000"/><text fill="#000000" font-family="Verdana" font-size="14" lengthAdjust="spacing" textLength="186" x="378.75" y="30.8467">CourseSelectionSystemApi</text><line style="stroke:#000000;stroke-width:1.0;" x1="283" x2="633" y1="40" y2="40"/><line style="stroke:#000000;stroke-width:1.0;" x1="283" x2="633" y1="48" y2="48"/><ellipse cx="293" cy="61.6484" fill="#FFFFFF" rx="3" ry="3" style="stroke:#000000;stroke-width:1.0;"/><text fill="#000000" font-family="Verdana" font-size="14" lengthAdjust="spacing" textLength="325" x="300" y="64.9951">queryStudentCourseTeacher(int, String): String</text><ellipse cx="293" cy="77.9453" fill="#FFFFFF" rx="3" ry="3" style="stroke:#000000;stroke-width:1.0;"/><text fill="#000000" font-family="Verdana" font-size="14" lengthAdjust="spacing" textLength="256" x="300" y="81.292">importStudents(List&lt;Student&gt;): void</text><ellipse cx="293" cy="94.2422" fill="#FFFFFF" rx="3" ry="3" style="stroke:#000000;stroke-width:1.0;"/><text fill="#000000" font-family="Verdana" font-size="14" lengthAdjust="spacing" textLength="246" x="300" y="97.5889">importCourses(List&lt;Course&gt;): void</text><ellipse cx="293" cy="110.5391" fill="#FFFFFF" rx="3" ry="3" style="stroke:#000000;stroke-width:1.0;"/><text fill="#000000" font-family="Verdana" font-size="14" lengthAdjust="spacing" textLength="328" x="300" y="113.8857">queryStudentSelectCourses(int): List&lt;Course&gt;</text><ellipse cx="293" cy="126.8359" fill="#FFFFFF" rx="3" ry="3" style="stroke:#000000;stroke-width:1.0;"/><text fill="#000000" font-family="Verdana" font-size="14" lengthAdjust="spacing" textLength="262" x="300" y="130.1826">assignCourses(int, List&lt;String&gt;): void</text><ellipse cx="293" cy="143.1328" fill="#FFFFFF" rx="3" ry="3" style="stroke:#000000;stroke-width:1.0;"/><text fill="#000000" font-family="Verdana" font-size="14" lengthAdjust="spacing" textLength="326" x="300" y="146.4795">statisticStudentByGender(String, Gender): long</text></g><g id="elem_Gender"><rect codeLine="34" fill="#FFFFFF" height="88.8594" id="Gender" rx="2.5" ry="2.5" style="stroke:#000000;stroke-width:1.0;" width="186" x="594" y="787"/><ellipse cx="638.25" cy="807.1328" fill="#FFFFFF" rx="9" ry="9" style="stroke:#000000;stroke-width:1.0;"/><path d="M642.3594,813.1328 L634.6406,813.1328 L634.6406,800.7422 L642.3594,800.7422 L642.3594,802.8984 L637.0938,802.8984 L637.0938,805.5703 L641.8594,805.5703 L641.8594,807.7266 L637.0938,807.7266 L637.0938,810.9766 L642.3594,810.9766 L642.3594,813.1328 Z " fill="#000000"/><text fill="#000000" font-family="Verdana" font-size="12" font-style="italic" lengthAdjust="spacing" textLength="94" x="653.75" y="803.1387">«enumeration»</text><text fill="#000000" font-family="Verdana" font-size="14" lengthAdjust="spacing" textLength="52" x="674.75" y="818.9639">Gender</text><line style="stroke:#000000;stroke-width:1.0;" x1="595" x2="779" y1="827.2656" y2="827.2656"/><line style="stroke:#000000;stroke-width:1.0;" x1="595" x2="779" y1="835.2656" y2="835.2656"/><ellipse cx="605" cy="848.9141" fill="#FFFFFF" rx="3" ry="3" style="stroke:#000000;stroke-width:1.0;"/><text fill="#000000" font-family="Verdana" font-size="14" lengthAdjust="spacing" textLength="125" x="612" y="852.2607">values(): Gender[]</text><ellipse cx="605" cy="865.2109" fill="#FFFFFF" rx="3" ry="3" style="stroke:#000000;stroke-width:1.0;"/><text fill="#000000" font-family="Verdana" font-size="14" lengthAdjust="spacing" textLength="162" x="612" y="868.5576">valueOf(String): Gender</text></g><g id="elem_Student"><rect codeLine="38" fill="#FFFFFF" height="141.7813" id="Student" rx="2.5" ry="2.5" style="stroke:#000000;stroke-width:1.0;" width="135" x="619.5" y="585"/><ellipse cx="655.9" cy="599" fill="#FFFFFF" rx="9" ry="9" style="stroke:#000000;stroke-width:1.0;"/><path d="M658.8688,604.6406 Q658.2906,604.9375 657.65,605.0781 Q657.0094,605.2344 656.3063,605.2344 Q653.8063,605.2344 652.4781,603.5938 Q651.1656,601.9375 651.1656,598.8125 Q651.1656,595.6875 652.4781,594.0313 Q653.8063,592.375 656.3063,592.375 Q657.0094,592.375 657.65,592.5313 Q658.3063,592.6875 658.8688,592.9844 L658.8688,595.7031 Q658.2438,595.125 657.65,594.8594 Q657.0563,594.5781 656.4313,594.5781 Q655.0875,594.5781 654.4,595.6563 Q653.7125,596.7188 653.7125,598.8125 Q653.7125,600.9063 654.4,601.9844 Q655.0875,603.0469 656.4313,603.0469 Q657.0563,603.0469 657.65,602.7813 Q658.2438,602.5 658.8688,601.9219 L658.8688,604.6406 Z " fill="#000000"/><text fill="#000000" font-family="Verdana" font-size="14" lengthAdjust="spacing" textLength="55" x="673.1" y="603.8467">Student</text><line style="stroke:#000000;stroke-width:1.0;" x1="620.5" x2="753.5" y1="613" y2="613"/><rect fill="none" height="6" style="stroke:#000000;stroke-width:1.0;" width="6" x="627.5" y="623.6484"/><text fill="#000000" font-family="Verdana" font-size="14" lengthAdjust="spacing" textLength="38" x="637.5" y="629.9951">id: int</text><rect fill="none" height="6" style="stroke:#000000;stroke-width:1.0;" width="6" x="627.5" y="639.9453"/><text fill="#000000" font-family="Verdana" font-size="14" lengthAdjust="spacing" textLength="88" x="637.5" y="646.292">name: String</text><rect fill="none" height="6" style="stroke:#000000;stroke-width:1.0;" width="6" x="627.5" y="656.2422"/><text fill="#000000" font-family="Verdana" font-size="14" lengthAdjust="spacing" textLength="111" x="637.5" y="662.5889">gender: Gender</text><text fill="#000000" font-family="Verdana" font-size="14" lengthAdjust="spacing" textLength="88" x="637.5" y="678.8857">name: String</text><text fill="#000000" font-family="Verdana" font-size="14" lengthAdjust="spacing" textLength="111" x="637.5" y="695.1826">gender: Gender</text><text fill="#000000" font-family="Verdana" font-size="14" lengthAdjust="spacing" textLength="38" x="637.5" y="711.4795">id: int</text><line style="stroke:#000000;stroke-width:1.0;" x1="620.5" x2="753.5" y1="718.7813" y2="718.7813"/></g><g id="elem_StudentManager"><rect codeLine="46" fill="#FFFFFF" height="76.5938" id="StudentManager" rx="2.5" ry="2.5" style="stroke:#000000;stroke-width:1.0;" width="280" x="547" y="448"/><ellipse cx="625.75" cy="462" fill="#FFFFFF" rx="9" ry="9" style="stroke:#000000;stroke-width:1.0;"/><path d="M628.7188,467.6406 Q628.1406,467.9375 627.5,468.0781 Q626.8594,468.2344 626.1563,468.2344 Q623.6563,468.2344 622.3281,466.5938 Q621.0156,464.9375 621.0156,461.8125 Q621.0156,458.6875 622.3281,457.0313 Q623.6563,455.375 626.1563,455.375 Q626.8594,455.375 627.5,455.5313 Q628.1563,455.6875 628.7188,455.9844 L628.7188,458.7031 Q628.0938,458.125 627.5,457.8594 Q626.9063,457.5781 626.2813,457.5781 Q624.9375,457.5781 624.25,458.6563 Q623.5625,459.7188 623.5625,461.8125 Q623.5625,463.9063 624.25,464.9844 Q624.9375,466.0469 626.2813,466.0469 Q626.9063,466.0469 627.5,465.7813 Q628.0938,465.5 628.7188,464.9219 L628.7188,467.6406 Z " fill="#000000"/><text fill="#000000" font-family="Verdana" font-size="14" lengthAdjust="spacing" textLength="115" x="643.25" y="466.8467">StudentManager</text><line style="stroke:#000000;stroke-width:1.0;" x1="548" x2="826" y1="476" y2="476"/><line style="stroke:#000000;stroke-width:1.0;" x1="548" x2="826" y1="484" y2="484"/><ellipse cx="558" cy="497.6484" fill="#FFFFFF" rx="3" ry="3" style="stroke:#000000;stroke-width:1.0;"/><text fill="#000000" font-family="Verdana" font-size="14" lengthAdjust="spacing" textLength="256" x="565" y="500.9951">importStudents(List&lt;Student&gt;): void</text><ellipse cx="558" cy="513.9453" fill="#FFFFFF" rx="3" ry="3" style="stroke:#000000;stroke-width:1.0;"/><text fill="#000000" font-family="Verdana" font-size="14" lengthAdjust="spacing" textLength="185" x="565" y="517.292">queryStudent(int): Student</text></g><g id="link_CourseManager_Course"><path codeLine="51" d="M164,537.387 C164,537.387 164,588.237 164,588.237 " fill="none" id="CourseManager-Course" style="stroke:#595959;stroke-width:1.0;"/><polygon fill="#595959" points="164,601.237,168,592.237,164,596.237,160,592.237,164,601.237" style="stroke:#595959;stroke-width:1.0;"/><line style="stroke:#595959;stroke-width:1.0;" x1="164" x2="164" y1="596.237" y2="588.237"/><polygon fill="#595959" points="164,525.387,160,531.387,164,537.387,168,531.387,164,525.387" style="stroke:#595959;stroke-width:1.0;"/><text fill="#000000" font-family="Verdana" font-size="13" lengthAdjust="spacing" textLength="8" x="155.4875" y="590.3229">1</text><text fill="#000000" font-family="Verdana" font-size="13" lengthAdjust="spacing" textLength="63" x="96.7672" y="544.7401">COURSES</text><text fill="#000000" font-family="Verdana" font-size="13" lengthAdjust="spacing" textLength="7" x="124.7672" y="559.8729">*</text></g><g id="link_CourseSelectionManager_Course"><path codeLine="52" d="M361,388.297 C361,493.41 361,656 361,656 C361,656 232.145,656 232.145,656 " fill="none" id="CourseSelectionManager-to-Course" style="stroke:#595959;stroke-width:1.0;stroke-dasharray:7.0,7.0;"/><polygon fill="#595959" points="227.145,656,236.145,660,232.145,656,236.145,652,227.145,656" style="stroke:#595959;stroke-width:1.0;"/></g><g id="link_CourseSelectionManager_CourseManager"><path codeLine="53" d="M287.667,388.047 C287.667,388.047 287.667,442.637 287.667,442.637 " fill="none" id="CourseSelectionManager-to-CourseManager" style="stroke:#595959;stroke-width:1.0;stroke-dasharray:7.0,7.0;"/><polygon fill="#595959" points="287.667,447.637,291.667,438.637,287.667,442.637,283.667,438.637,287.667,447.637" style="stroke:#595959;stroke-width:1.0;"/><text fill="#000000" font-family="Verdana" font-size="13" lengthAdjust="spacing" textLength="41" x="245.667" y="411.4089">create</text></g><g id="link_CourseSelectionManager_CourseManager"><path codeLine="54" d="M293.333,400.047 C293.333,400.047 293.333,434.637 293.333,434.637 " fill="none" id="CourseSelectionManager-CourseManager" style="stroke:#595959;stroke-width:1.0;"/><polygon fill="#595959" points="293.333,447.637,297.333,438.637,293.333,442.637,289.333,438.637,293.333,447.637" style="stroke:#595959;stroke-width:1.0;"/><line style="stroke:#595959;stroke-width:1.0;" x1="293.333" x2="293.333" y1="442.637" y2="434.637"/><polygon fill="#595959" points="293.333,388.047,289.333,394.047,293.333,400.047,297.333,394.047,293.333,388.047" style="stroke:#595959;stroke-width:1.0;"/><text fill="#000000" font-family="Verdana" font-size="13" lengthAdjust="spacing" textLength="8" x="306.0913" y="437.0697">1</text><text fill="#000000" font-family="Verdana" font-size="13" lengthAdjust="spacing" textLength="99" x="283.7957" y="408.5601">courseManager</text><text fill="#000000" font-family="Verdana" font-size="13" lengthAdjust="spacing" textLength="8" x="329.2957" y="423.6929">1</text></g><g id="link_CourseSelectionManager_Gender"><path codeLine="55" d="M423,388.089 C423,538.733 423,832 423,832 C423,832 588.923,832 588.923,832 " fill="none" id="CourseSelectionManager-to-Gender" style="stroke:#595959;stroke-width:1.0;stroke-dasharray:7.0,7.0;"/><polygon fill="#595959" points="593.923,832,584.923,828,588.923,832,584.923,836,593.923,832" style="stroke:#595959;stroke-width:1.0;"/></g><g id="link_CourseSelectionManager_Student"><path codeLine="56" d="M485,388.116 C485,474.485 485,594 485,594 C485,594 614.456,594 614.456,594 " fill="none" id="CourseSelectionManager-to-Student" style="stroke:#595959;stroke-width:1.0;stroke-dasharray:7.0,7.0;"/><polygon fill="#595959" points="619.456,594,610.456,590,614.456,594,610.456,598,619.456,594" style="stroke:#595959;stroke-width:1.0;"/></g><g id="link_CourseSelectionManager_StudentManager"><path codeLine="57" d="M576,388.047 C576,388.047 576,442.637 576,442.637 " fill="none" id="CourseSelectionManager-to-StudentManager" style="stroke:#595959;stroke-width:1.0;stroke-dasharray:7.0,7.0;"/><polygon fill="#595959" points="576,447.637,580,438.637,576,442.637,572,438.637,576,447.637" style="stroke:#595959;stroke-width:1.0;"/><text fill="#000000" font-family="Verdana" font-size="13" lengthAdjust="spacing" textLength="41" x="534" y="411.4089">create</text></g><g id="link_CourseSelectionManager_StudentManager"><path codeLine="58" d="M605,400.047 C605,400.047 605,434.637 605,434.637 " fill="none" id="CourseSelectionManager-StudentManager" style="stroke:#595959;stroke-width:1.0;"/><polygon fill="#595959" points="605,447.637,609,438.637,605,442.637,601,438.637,605,447.637" style="stroke:#595959;stroke-width:1.0;"/><line style="stroke:#595959;stroke-width:1.0;" x1="605" x2="605" y1="442.637" y2="434.637"/><polygon fill="#595959" points="605,388.047,601,394.047,605,400.047,609,394.047,605,388.047" style="stroke:#595959;stroke-width:1.0;"/><text fill="#000000" font-family="Verdana" font-size="13" lengthAdjust="spacing" textLength="8" x="582.7563" y="437.0697">1</text><text fill="#000000" font-family="Verdana" font-size="13" lengthAdjust="spacing" textLength="105" x="621.5211" y="408.5601">studentManager</text><text fill="#000000" font-family="Verdana" font-size="13" lengthAdjust="spacing" textLength="8" x="670.0211" y="423.6929">1</text></g><g id="link_CourseSelectionSystemApi_Course"><path codeLine="59" d="M281.975,83 C156.888,83 11,83 11,83 C11,83 11,656 11,656 C11,656 95.8857,656 95.8857,656 " fill="none" id="CourseSelectionSystemApi-to-Course" style="stroke:#595959;stroke-width:1.0;stroke-dasharray:7.0,7.0;"/><polygon fill="#595959" points="100.8857,656,91.8857,652,95.8857,656,91.8857,660,100.8857,656" style="stroke:#595959;stroke-width:1.0;"/></g><g id="link_CourseSelectionSystemApi_CourseSelectionManager"><path codeLine="60" d="M399.333,166.08 C399.333,166.08 399.333,200.637 399.333,200.637 " fill="none" id="CourseSelectionSystemApi-CourseSelectionManager" style="stroke:#595959;stroke-width:1.0;"/><polygon fill="#595959" points="399.333,213.637,403.333,204.637,399.333,208.637,395.333,204.637,399.333,213.637" style="stroke:#595959;stroke-width:1.0;"/><line style="stroke:#595959;stroke-width:1.0;" x1="399.333" x2="399.333" y1="208.637" y2="200.637"/><polygon fill="#595959" points="399.333,154.08,395.333,160.08,399.333,166.08,403.333,160.08,399.333,154.08" style="stroke:#595959;stroke-width:1.0;"/><text fill="#000000" font-family="Verdana" font-size="13" lengthAdjust="spacing" textLength="8" x="386.1434" y="202.838">1</text><text fill="#000000" font-family="Verdana" font-size="13" lengthAdjust="spacing" textLength="158" x="229.072" y="173.835">courseSelectionManager</text><text fill="#000000" font-family="Verdana" font-size="13" lengthAdjust="spacing" textLength="8" x="304.072" y="188.9678">1</text></g><g id="link_CourseSelectionSystemApi_CourseSelectionManager"><path codeLine="61" d="M516.667,154.08 C516.667,154.08 516.667,208.637 516.667,208.637 " fill="none" id="CourseSelectionSystemApi-to-CourseSelectionManager" style="stroke:#595959;stroke-width:1.0;stroke-dasharray:7.0,7.0;"/><polygon fill="#595959" points="516.667,213.637,520.667,204.637,516.667,208.637,512.667,204.637,516.667,213.637" style="stroke:#595959;stroke-width:1.0;"/><text fill="#000000" font-family="Verdana" font-size="13" lengthAdjust="spacing" textLength="41" x="474.667" y="177.4249">create</text></g><g id="link_CourseSelectionSystemApi_Gender"><path codeLine="62" d="M634.096,60 C738.653,60 851,60 851,60 C851,60 851,832 851,832 C851,832 785.021,832 785.021,832 " fill="none" id="CourseSelectionSystemApi-to-Gender" style="stroke:#595959;stroke-width:1.0;stroke-dasharray:7.0,7.0;"/><polygon fill="#595959" points="780.021,832,789.021,836,785.021,832,789.021,828,780.021,832" style="stroke:#595959;stroke-width:1.0;"/></g><g id="link_CourseSelectionSystemApi_Student"><path codeLine="63" d="M634.002,107 C733.831,107 839,107 839,107 C839,107 839,656 839,656 C839,656 759.555,656 759.555,656 " fill="none" id="CourseSelectionSystemApi-to-Student" style="stroke:#595959;stroke-width:1.0;stroke-dasharray:7.0,7.0;"/><polygon fill="#595959" points="754.555,656,763.555,660,759.555,656,763.555,652,754.555,656" style="stroke:#595959;stroke-width:1.0;"/></g><g id="link_Student_Gender"><path codeLine="64" d="M687,739.13 C687,739.13 687,773.996 687,773.996 " fill="none" id="Student-Gender" style="stroke:#595959;stroke-width:1.0;"/><polygon fill="#595959" points="687,786.9964,691,777.9964,687,781.9964,683,777.9964,687,786.9964" style="stroke:#595959;stroke-width:1.0;"/><line style="stroke:#595959;stroke-width:1.0;" x1="687" x2="687" y1="781.9964" y2="773.996"/><polygon fill="#595959" points="687,727.13,683,733.13,687,739.13,691,733.13,687,727.13" style="stroke:#595959;stroke-width:1.0;"/><text fill="#000000" font-family="Verdana" font-size="13" lengthAdjust="spacing" textLength="8" x="678.3625" y="775.7965">1</text><text fill="#000000" font-family="Verdana" font-size="13" lengthAdjust="spacing" textLength="45" x="639.9961" y="746.8894">gender</text><text fill="#000000" font-family="Verdana" font-size="13" lengthAdjust="spacing" textLength="8" x="658.4961" y="762.0222">1</text></g><g id="link_StudentManager_Student"><path codeLine="65" d="M687,537.387 C687,537.387 687,571.996 687,571.996 " fill="none" id="StudentManager-Student" style="stroke:#595959;stroke-width:1.0;"/><polygon fill="#595959" points="687,584.996,691,575.996,687,579.996,683,575.996,687,584.996" style="stroke:#595959;stroke-width:1.0;"/><line style="stroke:#595959;stroke-width:1.0;" x1="687" x2="687" y1="579.996" y2="571.996"/><polygon fill="#595959" points="687,525.387,683,531.387,687,537.387,691,531.387,687,525.387" style="stroke:#595959;stroke-width:1.0;"/><text fill="#000000" font-family="Verdana" font-size="13" lengthAdjust="spacing" textLength="8" x="678.5875" y="573.9853">1</text><text fill="#000000" font-family="Verdana" font-size="13" lengthAdjust="spacing" textLength="70" x="612.2969" y="544.7401">STUDENTS</text><text fill="#000000" font-family="Verdana" font-size="13" lengthAdjust="spacing" textLength="7" x="643.7969" y="559.8729">*</text></g></g></svg>